vertices

1 -0.117798 -0.702184 -0.702184
2 -0.450752 -0.450752 -0.770483
3 -0.0612002 -0.376806 -0.924268
4 0.296039 -0.520921 -0.800626
5 0.624849 -0.386688 -0.67826
6 -0.702184 -0.117798 -0.702184
7 -0.376806 -0.0612002 -0.924268
8 0.0062192 0.0062192 -0.999961
9 0.344476 -0.127366 -0.930115
10 0.672247 -0.0100987 -0.740258
11 -0.520921 0.296039 -0.800626
12 -0.127366 0.344476 -0.930115
13 0.304739 0.304739 -0.902368
14 0.643699 0.352021 -0.679509
15 -0.386688 0.624849 -0.67826
16 -0.0100987 0.672247 -0.740258
17 0.352021 0.643699 -0.679509
18 -0.450752 -0.770483 -0.450752
19 -0.0612002 -0.924268 -0.376806
20 0.296039 -0.800626 -0.520921
21 0.624849 -0.67826 -0.386688
22 -0.770483 -0.450752 -0.450752
23 -0.372521 -0.372521 -0.372521
24 0.0242077 -0.433972 -0.433972
25 0.367059 -0.336493 -0.336493
26 0.866216 -0.35332 -0.35332
27 -0.924268 -0.0612002 -0.376806
28 -0.433972 0.0242077 -0.433972
29 -0.0291479 -0.0291479 -0.577809
30 0.378252 0.0250101 -0.475882
31 0.900184 -0.0179042 -0.435142
32 -0.800626 0.296039 -0.520921
33 -0.336493 0.367059 -0.336493
34 0.0250101 0.378252 -0.475882
35 0.369589 0.369589 -0.286334
36 0.87623 0.328347 -0.352718
37 -0.67826 0.624849 -0.386688
38 -0.35332 0.866216 -0.35332
39 -0.0179042 0.900184 -0.435142
40 0.328347 0.87623 -0.352718
41 0.657839 0.657839 -0.366736
42 -0.702184 -0.702184 -0.117798
43 -0.376806 -0.924268 -0.0612002
44 0.0062192 -0.999961 0.0062192
45 0.344476 -0.930115 -0.127366
46 0.672247 -0.740258 -0.0100987
47 -0.924268 -0.376806 -0.0612002
48 -0.433972 -0.433972 0.0242077
49 -0.0291479 -0.577809 -0.0291479
50 0.378252 -0.475882 0.0250101
51 0.900184 -0.435142 -0.0179042
52 -0.999961 0.0062192 0.0062192
53 -0.577809 -0.0291479 -0.0291479
54 -0.122762 -0.122762 -0.122762
55 0.258043 -0.0276523 -0.0276523
56 0.620527 -0.0214669 -0.0214669
57 0.98 -0.01 -0.01
58 -0.930115 0.344476 -0.127366
59 -0.475882 0.378252 0.0250101
60 -0.0276523 0.258043 -0.0276523
61 0.425451 0.425451 0.0374137
62 0.923379 0.383867 -0.00416336
63 -0.740258 0.672247 -0.0100987
64 -0.435142 0.900184 -0.0179042
65 -0.0214669 0.620527 -0.0214669
66 0.383867 0.923379 -0.00416336
67 0.706947 0.706947 -0.0212291
68 -0.01 0.98 -0.01
69 -0.520921 -0.800626 0.296039
70 -0.127366 -0.930115 0.344476
71 0.304739 -0.902368 0.304739
72 0.643699 -0.679509 0.352021
73 -0.800626 -0.520921 0.296039
74 -0.336493 -0.336493 0.367059
75 0.0250101 -0.475882 0.378252
76 0.369589 -0.286334 0.369589
77 0.87623 -0.352718 0.328347
78 -0.930115 -0.127366 0.344476
79 -0.475882 0.0250101 0.378252
80 -0.0276523 -0.0276523 0.258043
81 0.425451 0.0374137 0.425451
82 0.923379 -0.00416336 0.383867
83 -0.902368 0.304739 0.304739
84 -0.286334 0.369589 0.369589
85 0.0374137 0.425451 0.425451
86 0.326786 0.326786 0.326786
87 0.874851 0.342517 0.342517
88 -0.679509 0.643699 0.352021
89 -0.352718 0.87623 0.328347
90 -0.00416336 0.923379 0.383867
91 0.342517 0.874851 0.342517
92 0.661608 0.661608 0.352918
93 -0.386688 -0.67826 0.624849
94 -0.0100987 -0.740258 0.672247
95 0.352021 -0.679509 0.643699
96 -0.67826 -0.386688 0.624849
97 -0.35332 -0.35332 0.866216
98 -0.0179042 -0.435142 0.900184
99 0.328347 -0.352718 0.87623
100 0.657839 -0.366736 0.657839
101 -0.740258 -0.0100987 0.672247
102 -0.435142 -0.0179042 0.900184
103 -0.0214669 -0.0214669 0.620527
104 0.383867 -0.00416336 0.923379
105 0.706947 -0.0212291 0.706947
106 -0.679509 0.352021 0.643699
107 -0.352718 0.328347 0.87623
108 -0.00416336 0.383867 0.923379
109 0.342517 0.342517 0.874851
110 0.661608 0.352918 0.661608
111 -0.366736 0.657839 0.657839
112 -0.0212291 0.706947 0.706947
113 0.352918 0.661608 0.661608
114 -0.01 -0.01 0.98

edges

1 3 7
2 3 8
3 3 29
4 7 8
5 7 29
6 8 29
7 8 9
8 8 13
9 9 13
10 9 29
11 13 29
12 7 12
13 8 12
14 12 29
15 12 13
16 3 9
17 9 10
18 9 30
19 10 13
20 10 30
21 13 30
22 12 16
23 12 34
24 13 16
25 13 34
26 16 34
27 10 14
28 13 14
29 14 30
30 13 17
31 16 17
32 17 34
33 7 11
34 11 12
35 11 29
36 2 3
37 2 7
38 2 29
39 3 4
40 4 9
41 4 29
42 29 30
43 5 9
44 5 10
45 5 30
46 29 34
47 12 15
48 15 16
49 15 34
50 6 7
51 6 11
52 6 28
53 7 28
54 11 28
55 1 3
56 1 4
57 1 24
58 3 24
59 4 24
60 28 29
61 24 29
62 2 6
63 2 28
64 1 2
65 2 24
66 30 34
67 6 32
68 11 32
69 28 32
70 1 20
71 4 20
72 20 24
73 4 30
74 4 5
75 11 15
76 11 34
77 1 23
78 2 23
79 23 24
80 6 23
81 23 28
82 23 29
83 11 33
84 15 33
85 33 34
86 4 25
87 5 25
88 25 30
89 10 31
90 14 31
91 30 31
92 5 31
93 16 39
94 17 39
95 34 39
96 15 39
97 6 27
98 27 28
99 27 32
100 1 19
101 19 20
102 19 24
103 2 18
104 2 22
105 18 22
106 18 23
107 22 23
108 6 22
109 1 18
110 18 24
111 22 28
112 15 38
113 34 38
114 38 39
115 5 26
116 26 30
117 26 31
118 14 36
119 30 36
120 31 36
121 17 40
122 34 40
123 39 40
124 11 37
125 15 37
126 33 37
127 32 33
128 32 37
129 28 33
130 29 33
131 33 38
132 37 38
133 25 26
134 4 21
135 5 21
136 21 25
137 20 25
138 24 25
139 25 29
140 20 21
141 21 26
142 14 17
143 14 35
144 14 41
145 17 35
146 17 41
147 35 41
148 13 35
149 30 35
150 34 35
151 35 36
152 36 41
153 35 40
154 40 41
155 22 27
156 18 19
157 23 54
158 28 54
159 29 54
160 24 54
161 33 39
162 25 31
163 18 42
164 22 42
165 23 42
166 33 54
167 25 54
168 34 54
169 30 54
170 25 56
171 30 56
172 31 56
173 26 56
174 33 65
175 34 65
176 39 65
177 38 65
178 29 55
179 30 55
180 54 55
181 25 55
182 29 60
183 34 60
184 54 60
185 33 60
186 36 56
187 40 65
188 18 49
189 19 49
190 24 49
191 20 49
192 23 49
193 27 53
194 28 53
195 32 53
196 22 53
197 23 53
198 35 56
199 35 65
200 49 54
201 19 45
202 20 45
203 45 49
204 18 43
205 19 43
206 43 49
207 25 49
208 27 58
209 32 58
210 53 58
211 33 53
212 53 54
213 22 47
214 27 47
215 47 53
216 55 60
217 30 60
218 35 55
219 35 60
220 55 56
221 60 65
222 33 64
223 38 64
224 64 65
225 25 51
226 26 51
227 51 56
228 26 57
229 51 57
230 56 57
231 31 57
232 36 57
233 39 68
234 40 68
235 65 68
236 38 68
237 64 68
238 36 62
239 56 62
240 57 62
241 40 66
242 65 66
243 66 68
244 27 52
245 47 52
246 52 53
247 52 58
248 19 44
249 43 44
250 44 49
251 44 45
252 22 48
253 47 48
254 48 53
255 18 48
256 23 48
257 42 48
258 48 49
259 48 54
260 43 48
261 42 47
262 42 43
263 32 59
264 33 59
265 37 59
266 54 59
267 59 60
268 37 58
269 58 59
270 37 64
271 38 59
272 59 64
273 53 59
274 37 63
275 58 63
276 59 63
277 59 65
278 63 64
279 21 45
280 21 46
281 21 50
282 45 46
283 45 50
284 46 50
285 25 50
286 26 50
287 50 51
288 50 56
289 21 51
290 46 51
291 20 50
292 49 50
293 50 54
294 50 55
295 40 61
296 61 65
297 61 66
298 36 61
299 41 61
300 41 62
301 61 62
302 35 61
303 56 61
304 55 61
305 41 66
306 60 61
307 41 67
308 61 67
309 66 67
310 62 67
311 53 60
312 49 55
313 54 80
314 55 80
315 60 80
316 42 73
317 47 73
318 48 73
319 42 69
320 43 69
321 48 69
322 55 86
323 60 86
324 61 86
325 44 71
326 45 71
327 49 71
328 46 71
329 50 71
330 52 83
331 53 83
332 58 83
333 59 83
334 63 83
335 43 70
336 44 70
337 49 70
338 47 78
339 52 78
340 53 78
341 49 80
342 53 80
343 69 73
344 65 86
345 56 86
346 51 77
347 56 77
348 57 77
349 64 89
350 65 89
351 68 89
352 56 87
353 57 87
354 62 87
355 65 91
356 66 91
357 68 91
358 46 72
359 50 72
360 51 72
361 59 88
362 63 88
363 64 88
364 48 74
365 49 74
366 54 74
367 53 74
368 59 84
369 60 84
370 65 84
371 50 76
372 55 76
373 56 76
374 53 73
375 49 69
376 80 86
377 50 77
378 59 89
379 69 70
380 70 71
381 78 83
382 73 78
383 61 87
384 86 87
385 61 91
386 86 91
387 71 72
388 72 77
389 88 89
390 83 88
391 61 92
392 62 92
393 67 92
394 66 92
395 86 92
396 87 92
397 91 92
398 69 74
399 73 74
400 84 88
401 84 89
402 83 84
403 71 76
404 72 76
405 76 77
406 49 75
407 69 75
408 74 75
409 70 75
410 71 75
411 54 75
412 75 80
413 50 75
414 55 75
415 74 80
416 75 76
417 76 80
418 53 79
419 59 79
420 79 83
421 60 79
422 79 80
423 54 79
424 74 79
425 78 79
426 73 79
427 79 84
428 80 84
429 65 90
430 68 90
431 90 91
432 89 90
433 56 82
434 57 82
435 77 82
436 82 87
437 55 81
438 80 81
439 81 86
440 56 81
441 76 81
442 77 81
443 81 82
444 81 87
445 65 85
446 85 90
447 85 91
448 84 85
449 85 89
450 60 85
451 80 85
452 85 86
453 83 106
454 84 106
455 88 106
456 71 95
457 72 95
458 76 95
459 69 93
460 74 93
461 75 93
462 70 93
463 73 96
464 78 96
465 79 96
466 74 96
467 79 106
468 75 95
469 72 100
470 76 100
471 77 100
472 84 111
473 88 111
474 89 111
475 86 110
476 87 110
477 92 110
478 86 113
479 91 113
480 92 113
481 81 110
482 85 113
483 70 94
484 71 94
485 75 94
486 78 101
487 79 101
488 83 101
489 75 103
490 76 103
491 80 103
492 74 103
493 79 103
494 84 103
495 81 103
496 86 103
497 85 103
498 69 96
499 93 96
500 95 100
501 81 100
502 82 100
503 85 111
504 90 111
505 106 111
506 82 110
507 90 113
508 110 113
509 93 94
510 94 95
511 96 101
512 101 106
513 85 112
514 90 112
515 112 113
516 111 112
517 81 105
518 82 105
519 105 110
520 100 105
521 74 97
522 93 97
523 96 97
524 86 109
525 109 110
526 109 113
527 81 109
528 85 109
529 76 99
530 95 99
531 99 100
532 84 107
533 106 107
534 107 111
535 75 99
536 79 107
537 75 97
538 79 97
539 103 109
540 81 99
541 99 103
542 85 107
543 103 107
544 75 98
545 94 98
546 95 98
547 93 98
548 97 98
549 98 99
550 98 103
551 74 98
552 97 103
553 79 102
554 101 102
555 102 106
556 102 107
557 96 102
558 97 102
559 74 102
560 102 103
561 85 108
562 108 112
563 108 113
564 108 111
565 103 108
566 107 108
567 108 109
568 81 104
569 100 104
570 104 105
571 104 110
572 104 109
573 99 104
574 103 104
575 66 90
576 62 82
577 103 114
578 104 114
579 109 114
580 98 114
581 99 114
582 97 114
583 102 114
584 108 114
585 107 114
586 104 108
volumes

1 3 7 8 29
2 8 9 13 29
3 7 8 12 29
4 8 12 13 29
5 3 8 9 29
6 9 10 13 30
7 12 13 16 34
8 10 13 14 30
9 13 16 17 34
10 7 11 12 29
11 2 3 7 29
12 3 4 9 29
13 9 13 29 30
14 5 9 10 30
15 12 13 29 34
16 12 15 16 34
17 6 7 11 28
18 1 3 4 24
19 7 11 28 29
20 3 4 24 29
21 2 6 7 28
22 1 2 3 24
23 13 29 30 34
24 6 11 28 32
25 1 4 20 24
26 4 9 29 30
27 4 5 9 30
28 11 12 15 34
29 11 12 29 34
30 2 7 28 29
31 2 3 24 29
32 1 2 23 24
33 2 6 23 28
34 2 23 24 29
35 2 23 28 29
36 11 15 33 34
37 4 5 25 30
38 10 14 30 31
39 5 10 30 31
40 16 17 34 39
41 15 16 34 39
42 6 27 28 32
43 1 19 20 24
44 2 18 22 23
45 2 6 22 23
46 1 18 23 24
47 6 22 23 28
48 1 2 18 23
49 15 34 38 39
50 5 26 30 31
51 14 30 31 36
52 17 34 39 40
53 11 15 33 37
54 11 32 33 37
55 11 28 29 33
56 15 33 34 38
57 11 28 32 33
58 15 33 37 38
59 11 29 33 34
60 5 25 26 30
61 4 5 21 25
62 4 20 24 25
63 4 25 29 30
64 4 20 21 25
65 5 21 25 26
66 4 24 25 29
67 14 17 35 41
68 13 14 17 35
69 13 30 34 35
70 13 17 34 35
71 14 35 36 41
72 17 35 40 41
73 13 14 30 35
74 6 22 27 28
75 1 18 19 24
76 17 34 35 40
77 14 30 35 36
78 23 28 29 54
79 23 24 29 54
80 33 34 38 39
81 25 26 30 31
82 18 22 23 42
83 28 29 33 54
84 24 25 29 54
85 29 33 34 54
86 25 29 30 54
87 25 30 31 56
88 25 26 31 56
89 33 34 39 65
90 33 38 39 65
91 29 30 54 55
92 25 30 54 55
93 29 34 54 60
94 33 34 54 60
95 30 31 36 56
96 34 39 40 65
97 18 19 24 49
98 19 20 24 49
99 18 23 24 49
100 27 28 32 53
101 22 23 28 53
102 22 27 28 53
103 30 35 36 56
104 34 35 40 65
105 23 24 49 54
106 19 20 45 49
107 18 19 43 49
108 20 24 25 49
109 24 25 49 54
110 27 32 53 58
111 28 32 33 53
112 23 28 53 54
113 22 27 47 53
114 28 33 53 54
115 29 54 55 60
116 29 30 34 60
117 29 30 55 60
118 30 35 55 60
119 30 34 35 60
120 25 30 55 56
121 30 35 55 56
122 33 34 60 65
123 34 35 60 65
124 33 38 64 65
125 25 26 51 56
126 26 51 56 57
127 26 31 56 57
128 31 36 56 57
129 39 40 65 68
130 38 39 65 68
131 38 64 65 68
132 36 56 57 62
133 40 65 66 68
134 27 47 52 53
135 27 52 53 58
136 19 43 44 49
137 19 44 45 49
138 22 47 48 53
139 18 23 42 48
140 22 23 48 53
141 22 23 42 48
142 18 23 48 49
143 23 48 49 54
144 18 43 48 49
145 22 42 47 48
146 23 48 53 54
147 18 42 43 48
148 32 33 37 59
149 33 54 59 60
150 32 37 58 59
151 37 38 59 64
152 33 38 59 64
153 32 53 58 59
154 33 53 54 59
155 37 58 59 63
156 33 59 60 65
157 33 37 38 59
158 37 59 63 64
159 33 59 64 65
160 32 33 53 59
161 21 45 46 50
162 21 25 26 50
163 25 50 51 56
164 21 46 50 51
165 25 26 50 51
166 20 21 25 50
167 25 49 50 54
168 25 50 55 56
169 20 25 49 50
170 25 50 54 55
171 20 45 49 50
172 21 26 50 51
173 20 21 45 50
174 40 61 65 66
175 36 41 61 62
176 35 36 56 61
177 35 55 56 61
178 36 56 61 62
179 35 36 41 61
180 40 41 61 66
181 35 40 41 61
182 35 60 61 65
183 41 61 66 67
184 35 55 60 61
185 41 61 62 67
186 35 40 61 65
187 53 54 59 60
188 49 50 54 55
189 54 55 60 80
190 42 47 48 73
191 42 43 48 69
192 55 60 61 86
193 44 45 49 71
194 45 46 50 71
195 45 49 50 71
196 52 53 58 83
197 53 58 59 83
198 58 59 63 83
199 43 44 49 70
200 47 52 53 78
201 49 54 55 80
202 53 54 60 80
203 42 48 69 73
204 60 61 65 86
205 55 56 61 86
206 51 56 57 77
207 64 65 68 89
208 56 57 62 87
209 65 66 68 91
210 46 50 51 72
211 59 63 64 88
212 48 49 54 74
213 48 53 54 74
214 59 60 65 84
215 50 55 56 76
216 47 48 53 73
217 43 48 49 69
218 55 60 80 86
219 50 51 56 77
220 59 64 65 89
221 43 49 69 70
222 44 49 70 71
223 52 53 78 83
224 47 53 73 78
225 56 61 86 87
226 56 61 62 87
227 61 65 66 91
228 61 65 86 91
229 46 50 71 72
230 50 51 72 77
231 59 64 88 89
232 59 63 83 88
233 61 62 67 92
234 61 66 67 92
235 61 86 87 92
236 61 62 87 92
237 61 86 91 92
238 61 66 91 92
239 48 49 69 74
240 48 69 73 74
241 48 53 73 74
242 59 84 88 89
243 59 83 84 88
244 59 65 84 89
245 50 71 72 76
246 50 56 76 77
247 50 72 76 77
248 49 69 74 75
249 49 70 71 75
250 49 54 75 80
251 49 50 55 75
252 54 74 75 80
253 49 54 74 75
254 55 75 76 80
255 50 71 75 76
256 49 69 70 75
257 50 55 75 76
258 49 50 71 75
259 49 55 75 80
260 53 59 79 83
261 53 60 79 80
262 53 54 74 79
263 53 78 79 83
264 53 59 60 79
265 53 73 74 79
266 53 73 78 79
267 54 74 79 80
268 53 54 79 80
269 59 60 79 84
270 59 79 83 84
271 60 79 80 84
272 65 68 90 91
273 65 68 89 90
274 56 57 77 82
275 56 57 82 87
276 55 80 81 86
277 56 76 77 81
278 56 77 81 82
279 55 76 80 81
280 56 81 86 87
281 55 56 81 86
282 56 81 82 87
283 55 56 76 81
284 65 85 90 91
285 65 84 85 89
286 60 65 84 85
287 60 80 84 85
288 60 65 85 86
289 60 80 85 86
290 65 85 89 90
291 65 85 86 91
292 83 84 88 106
293 71 72 76 95
294 69 74 75 93
295 69 70 75 93
296 73 78 79 96
297 73 74 79 96
298 79 83 84 106
299 71 75 76 95
300 72 76 77 100
301 84 88 89 111
302 86 87 92 110
303 86 91 92 113
304 81 86 87 110
305 85 86 91 113
306 70 71 75 94
307 78 79 83 101
308 75 76 80 103
309 74 75 80 103
310 79 80 84 103
311 74 79 80 103
312 76 80 81 103
313 80 81 86 103
314 80 84 85 103
315 80 85 86 103
316 69 73 74 96
317 69 74 93 96
318 72 76 95 100
319 76 77 81 100
320 77 81 82 100
321 85 89 90 111
322 84 85 89 111
323 84 88 106 111
324 81 82 87 110
325 85 90 91 113
326 86 92 110 113
327 70 75 93 94
328 71 75 94 95
329 78 79 96 101
330 79 83 101 106
331 85 90 112 113
332 85 90 111 112
333 81 82 105 110
334 81 82 100 105
335 74 93 96 97
336 86 109 110 113
337 81 86 109 110
338 85 86 109 113
339 76 95 99 100
340 84 106 107 111
341 75 76 95 99
342 79 84 106 107
343 74 75 93 97
344 74 79 96 97
345 81 86 103 109
346 85 86 103 109
347 76 81 99 103
348 75 76 99 103
349 76 81 99 100
350 84 85 103 107
351 84 85 107 111
352 79 84 103 107
353 75 94 95 98
354 75 93 94 98
355 75 93 97 98
356 75 95 98 99
357 75 98 99 103
358 74 75 97 98
359 74 97 98 103
360 74 75 98 103
361 79 101 102 106
362 79 102 106 107
363 79 96 101 102
364 79 96 97 102
365 74 79 102 103
366 79 102 103 107
367 74 97 102 103
368 74 79 97 102
369 85 108 112 113
370 85 108 111 112
371 85 103 107 108
372 85 108 109 113
373 85 107 108 111
374 81 100 104 105
375 81 104 105 110
376 81 104 109 110
377 81 99 100 104
378 81 99 103 104
379 66 68 90 91
380 57 62 82 87
381 85 103 108 109
382 81 103 104 109
383 103 104 109 114
384 98 99 103 114
385 99 103 104 114
386 97 102 103 114
387 103 108 109 114
388 97 98 103 114
389 103 107 108 114
390 104 108 109 114
391 102 103 107 114
