<?xml version="1.0" encoding="utf-8" standalone="no"?>
<!DOCTYPE svg PUBLIC "-//W3C//DTD SVG 1.1//EN"
  "http://www.w3.org/Graphics/SVG/1.1/DTD/svg11.dtd">
<svg xmlns:xlink="http://www.w3.org/1999/xlink" width="360.603836pt" height="350.3448pt" viewBox="0 0 360.603836 350.3448" xmlns="http://www.w3.org/2000/svg" version="1.1">
 <metadata>
  <rdf:RDF xmlns:dc="http://purl.org/dc/elements/1.1/" xmlns:cc="http://creativecommons.org/ns#" xmlns:rdf="http://www.w3.org/1999/02/22-rdf-syntax-ns#">
   <cc:Work>
    <dc:type rdf:resource="http://purl.org/dc/dcmitype/StillImage"/>
    <dc:date>2022-02-11T09:58:41.313956</dc:date>
    <dc:format>image/svg+xml</dc:format>
    <dc:creator>
     <cc:Agent>
      <dc:title>Matplotlib v3.5.1, https://matplotlib.org/</dc:title>
     </cc:Agent>
    </dc:creator>
   </cc:Work>
  </rdf:RDF>
 </metadata>
 <defs>
  <style type="text/css">*{stroke-linejoin: round; stroke-linecap: butt}</style>
 </defs>
 <g id="figure_1">
  <g id="patch_1">
   <path d="M 0 350.3448 
L 360.603836 350.3448 
L 360.603836 0 
L 0 0 
z
" style="fill: #ffffff"/>
  </g>
  <g id="patch_2">
   <path d="M 17.459036 343.1448 
L 353.403836 343.1448 
L 353.403836 7.2 
L 17.459036 7.2 
z
" style="fill: #ffffff"/>
  </g>
  <g id="pane3d_1">
   <g id="patch_3">
    <path d="M 125.368605 199.427645 
L 125.368605 47.070092 
L 51.430452 116.549228 
L 51.430452 268.906781 
" style="fill: #f2f2f2; opacity: 0.5; stroke: #f2f2f2; stroke-width: 0.5; stroke-linejoin: miter"/>
   </g>
  </g>
  <g id="pane3d_2">
   <g id="patch_4">
    <path d="M 125.368605 199.427645 
L 328.512009 224.715983 
L 254.573856 294.195119 
L 51.430452 268.906781 
" style="fill: #e6e6e6; opacity: 0.5; stroke: #e6e6e6; stroke-width: 0.5; stroke-linejoin: miter"/>
   </g>
  </g>
  <g id="pane3d_3">
   <g id="patch_5">
    <path d="M 125.368605 199.427645 
L 328.512009 224.715983 
L 328.512009 72.358429 
L 125.368605 47.070092 
" style="fill: #ececec; opacity: 0.5; stroke: #ececec; stroke-width: 0.5; stroke-linejoin: miter"/>
   </g>
  </g>
  <g id="axis3d_1">
   <g id="line2d_1">
    <path d="M 254.573856 294.195119 
L 51.430452 268.906781 
" style="fill: none; stroke: #ffffff; stroke-linecap: square"/>
   </g>
   <g id="text_1">
    <!-- X -->
    <g style="fill: #555555" transform="translate(137.796957 316.833662)scale(0.144 -0.144)">
     <defs>
      <path id="CMSS17-58" d="M 2214 2329 
L 3661 4416 
L 3072 4416 
L 1952 2762 
L 800 4416 
L 166 4416 
L 1690 2329 
L 83 0 
L 672 0 
L 1952 1941 
L 3277 0 
L 3910 0 
L 2214 2329 
z
" transform="scale(0.015625)"/>
     </defs>
     <use xlink:href="#CMSS17-58" transform="scale(0.996264)"/>
    </g>
   </g>
   <g id="Line3DCollection_1">
    <path d="M 138.295912 48.67935 
L 138.295912 201.036903 
L 64.35776 270.516039 
" style="fill: none; stroke: #ffffff; stroke-width: 0.8"/>
    <path d="M 192.846309 55.470064 
L 192.846309 207.827617 
L 118.908156 277.306754 
" style="fill: none; stroke: #ffffff; stroke-width: 0.8"/>
    <path d="M 247.396705 62.260779 
L 247.396705 214.618332 
L 173.458553 284.097468 
" style="fill: none; stroke: #ffffff; stroke-width: 0.8"/>
    <path d="M 301.947102 69.051493 
L 301.947102 221.409046 
L 228.00895 290.888182 
" style="fill: none; stroke: #ffffff; stroke-width: 0.8"/>
   </g>
   <g id="xtick_1">
    <g id="line2d_2">
     <path d="M 189.97123 170.632605 
" clip-path="url(#pa62c0c1b5b)" style="fill: none; stroke: #ffffff; stroke-width: 0.8; stroke-linecap: square"/>
    </g>
    <g id="line2d_3">
     <path d="M 64.949265 269.960206 
L 63.174749 271.627705 
" style="fill: none; stroke: #555555; stroke-width: 0.8; stroke-linecap: square"/>
    </g>
   </g>
   <g id="xtick_2">
    <g id="line2d_4">
     <path d="M 189.97123 170.632605 
" clip-path="url(#pa62c0c1b5b)" style="fill: none; stroke: #ffffff; stroke-width: 0.8; stroke-linecap: square"/>
    </g>
    <g id="line2d_5">
     <path d="M 119.499662 276.750921 
L 117.725146 278.41842 
" style="fill: none; stroke: #555555; stroke-width: 0.8; stroke-linecap: square"/>
    </g>
   </g>
   <g id="xtick_3">
    <g id="line2d_6">
     <path d="M 189.97123 170.632605 
" clip-path="url(#pa62c0c1b5b)" style="fill: none; stroke: #ffffff; stroke-width: 0.8; stroke-linecap: square"/>
    </g>
    <g id="line2d_7">
     <path d="M 174.050058 283.541635 
L 172.275543 285.209134 
" style="fill: none; stroke: #555555; stroke-width: 0.8; stroke-linecap: square"/>
    </g>
   </g>
   <g id="xtick_4">
    <g id="line2d_8">
     <path d="M 189.97123 170.632605 
" clip-path="url(#pa62c0c1b5b)" style="fill: none; stroke: #ffffff; stroke-width: 0.8; stroke-linecap: square"/>
    </g>
    <g id="line2d_9">
     <path d="M 228.600455 290.332349 
L 226.825939 291.999849 
" style="fill: none; stroke: #555555; stroke-width: 0.8; stroke-linecap: square"/>
    </g>
   </g>
  </g>
  <g id="axis3d_2">
   <g id="line2d_10">
    <path d="M 51.430452 116.549228 
L 51.430452 268.906781 
" style="fill: none; stroke: #ffffff; stroke-linecap: square"/>
   </g>
   <g id="text_2">
    <!-- Y -->
    <g style="fill: #555555" transform="translate(7.2 202.628562)scale(0.144 -0.144)">
     <defs>
      <path id="CMSS17-59" d="M 3974 4416 
L 3424 4416 
L 2432 2877 
C 2355 2755 2138 2425 2035 2240 
L 1722 2743 
L 646 4416 
L 19 4416 
L 1734 1769 
L 1734 0 
L 2259 0 
L 2259 1763 
L 3974 4416 
z
" transform="scale(0.015625)"/>
     </defs>
     <use xlink:href="#CMSS17-59" transform="scale(0.996264)"/>
    </g>
   </g>
   <g id="Line3DCollection_2">
    <path d="M 51.430452 259.211301 
L 125.368605 189.732164 
L 328.512009 215.020502 
" style="fill: none; stroke: #ffffff; stroke-width: 0.8"/>
    <path d="M 51.430452 222.276136 
L 125.368605 152.797 
L 328.512009 178.085338 
" style="fill: none; stroke: #ffffff; stroke-width: 0.8"/>
    <path d="M 51.430452 185.340972 
L 125.368605 115.861836 
L 328.512009 141.150173 
" style="fill: none; stroke: #ffffff; stroke-width: 0.8"/>
    <path d="M 51.430452 148.405807 
L 125.368605 78.926671 
L 328.512009 104.215009 
" style="fill: none; stroke: #ffffff; stroke-width: 0.8"/>
   </g>
   <g id="xtick_5">
    <g id="line2d_11">
     <path d="M 189.97123 170.632605 
" clip-path="url(#pa62c0c1b5b)" style="fill: none; stroke: #ffffff; stroke-width: 0.8; stroke-linecap: square"/>
    </g>
    <g id="line2d_12">
     <path d="M 52.021957 258.655468 
L 50.247442 260.322967 
" style="fill: none; stroke: #555555; stroke-width: 0.8; stroke-linecap: square"/>
    </g>
   </g>
   <g id="xtick_6">
    <g id="line2d_13">
     <path d="M 189.97123 170.632605 
" clip-path="url(#pa62c0c1b5b)" style="fill: none; stroke: #ffffff; stroke-width: 0.8; stroke-linecap: square"/>
    </g>
    <g id="line2d_14">
     <path d="M 52.021957 221.720303 
L 50.247442 223.387803 
" style="fill: none; stroke: #555555; stroke-width: 0.8; stroke-linecap: square"/>
    </g>
   </g>
   <g id="xtick_7">
    <g id="line2d_15">
     <path d="M 189.97123 170.632605 
" clip-path="url(#pa62c0c1b5b)" style="fill: none; stroke: #ffffff; stroke-width: 0.8; stroke-linecap: square"/>
    </g>
    <g id="line2d_16">
     <path d="M 52.021957 184.785139 
L 50.247442 186.452638 
" style="fill: none; stroke: #555555; stroke-width: 0.8; stroke-linecap: square"/>
    </g>
   </g>
   <g id="xtick_8">
    <g id="line2d_17">
     <path d="M 189.97123 170.632605 
" clip-path="url(#pa62c0c1b5b)" style="fill: none; stroke: #ffffff; stroke-width: 0.8; stroke-linecap: square"/>
    </g>
    <g id="line2d_18">
     <path d="M 52.021957 147.849974 
L 50.247442 149.517474 
" style="fill: none; stroke: #555555; stroke-width: 0.8; stroke-linecap: square"/>
    </g>
   </g>
  </g>
  <g id="axis3d_3">
   <g id="line2d_19">
    <path d="M 328.512009 224.715983 
L 254.573856 294.195119 
" style="fill: none; stroke: #ffffff; stroke-linecap: square"/>
   </g>
   <g id="text_3">
    <!-- Z -->
    <g style="fill: #555555" transform="translate(316.276002 288.424254)scale(0.144 -0.144)">
     <defs>
      <path id="CMSS17-5a" d="M 3341 4155 
L 3341 4416 
L 416 4416 
L 416 4015 
L 1613 4015 
C 1690 4015 1766 4015 1843 4015 
L 2662 4015 
L 333 274 
L 333 0 
L 3373 0 
L 3373 414 
L 2803 414 
C 2272 414 1734 414 1203 414 
L 1011 414 
L 3341 4155 
z
" transform="scale(0.015625)"/>
     </defs>
     <use xlink:href="#CMSS17-5a" transform="scale(0.996264)"/>
    </g>
   </g>
   <g id="Line3DCollection_3">
    <path d="M 323.806854 229.137382 
L 120.663449 203.849045 
L 120.663449 51.491491 
" style="fill: none; stroke: #ffffff; stroke-width: 0.8"/>
    <path d="M 309.141435 242.918368 
L 105.998031 217.63003 
L 105.998031 65.272477 
" style="fill: none; stroke: #ffffff; stroke-width: 0.8"/>
    <path d="M 294.476016 256.699354 
L 91.332612 231.411016 
L 91.332612 79.053463 
" style="fill: none; stroke: #ffffff; stroke-width: 0.8"/>
    <path d="M 279.810598 270.480339 
L 76.667193 245.192002 
L 76.667193 92.834449 
" style="fill: none; stroke: #ffffff; stroke-width: 0.8"/>
    <path d="M 265.145179 284.261325 
L 62.001775 258.972988 
L 62.001775 106.615434 
" style="fill: none; stroke: #ffffff; stroke-width: 0.8"/>
   </g>
   <g id="xtick_9">
    <g id="line2d_20">
     <path d="M 189.97123 170.632605 
" clip-path="url(#pa62c0c1b5b)" style="fill: none; stroke: #ffffff; stroke-width: 0.8; stroke-linecap: square"/>
    </g>
    <g id="line2d_21">
     <path d="M 322.181706 228.935076 
L 327.057148 229.541996 
" style="fill: none; stroke: #555555; stroke-width: 0.8; stroke-linecap: square"/>
    </g>
   </g>
   <g id="xtick_10">
    <g id="line2d_22">
     <path d="M 189.97123 170.632605 
" clip-path="url(#pa62c0c1b5b)" style="fill: none; stroke: #ffffff; stroke-width: 0.8; stroke-linecap: square"/>
    </g>
    <g id="line2d_23">
     <path d="M 307.516288 242.716061 
L 312.391729 243.322981 
" style="fill: none; stroke: #555555; stroke-width: 0.8; stroke-linecap: square"/>
    </g>
   </g>
   <g id="xtick_11">
    <g id="line2d_24">
     <path d="M 189.97123 170.632605 
" clip-path="url(#pa62c0c1b5b)" style="fill: none; stroke: #ffffff; stroke-width: 0.8; stroke-linecap: square"/>
    </g>
    <g id="line2d_25">
     <path d="M 292.850869 256.497047 
L 297.726311 257.103967 
" style="fill: none; stroke: #555555; stroke-width: 0.8; stroke-linecap: square"/>
    </g>
   </g>
   <g id="xtick_12">
    <g id="line2d_26">
     <path d="M 189.97123 170.632605 
" clip-path="url(#pa62c0c1b5b)" style="fill: none; stroke: #ffffff; stroke-width: 0.8; stroke-linecap: square"/>
    </g>
    <g id="line2d_27">
     <path d="M 278.18545 270.278033 
L 283.060892 270.884953 
" style="fill: none; stroke: #555555; stroke-width: 0.8; stroke-linecap: square"/>
    </g>
   </g>
   <g id="xtick_13">
    <g id="line2d_28">
     <path d="M 189.97123 170.632605 
" clip-path="url(#pa62c0c1b5b)" style="fill: none; stroke: #ffffff; stroke-width: 0.8; stroke-linecap: square"/>
    </g>
    <g id="line2d_29">
     <path d="M 263.520032 284.059018 
L 268.395473 284.665938 
" style="fill: none; stroke: #555555; stroke-width: 0.8; stroke-linecap: square"/>
    </g>
   </g>
  </g>
  <g id="axes_1">
   <g id="line2d_30">
    <path d="M 133.590757 195.762822 
L 242.69155 209.344251 
" clip-path="url(#pa62c0c1b5b)" style="fill: none; stroke: #348abd; stroke-width: 1.5; stroke-linecap: square"/>
   </g>
   <g id="line2d_31">
    <path d="M 242.69155 209.344251 
L 299.969467 105.669008 
" clip-path="url(#pa62c0c1b5b)" style="fill: none; stroke: #e24a33; stroke-width: 1.5; stroke-linecap: square"/>
   </g>
   <g id="line2d_32">
    <path d="M 299.969467 105.669008 
L 190.868673 92.087579 
" clip-path="url(#pa62c0c1b5b)" style="fill: none; stroke: #e24a33; stroke-width: 1.5; stroke-linecap: square"/>
   </g>
   <g id="line2d_33">
    <path d="M 190.868673 92.087579 
L 133.590757 195.762822 
" clip-path="url(#pa62c0c1b5b)" style="fill: none; stroke: #348abd; stroke-width: 1.5; stroke-linecap: square"/>
   </g>
   <g id="line2d_34">
    <path d="M 85.839162 230.083809 
L 194.939955 243.665238 
" clip-path="url(#pa62c0c1b5b)" style="fill: none; stroke: #e24a33; stroke-width: 1.5; stroke-linecap: square"/>
   </g>
   <g id="line2d_35">
    <path d="M 194.939955 243.665238 
L 252.217871 139.989995 
" clip-path="url(#pa62c0c1b5b)" style="fill: none; stroke: #e24a33; stroke-width: 1.5; stroke-linecap: square"/>
   </g>
   <g id="line2d_36">
    <path d="M 252.217871 139.989995 
L 143.117078 126.408566 
" clip-path="url(#pa62c0c1b5b)" style="fill: none; stroke: #e24a33; stroke-width: 1.5; stroke-linecap: square"/>
   </g>
   <g id="line2d_37">
    <path d="M 143.117078 126.408566 
L 85.839162 230.083809 
" clip-path="url(#pa62c0c1b5b)" style="fill: none; stroke: #e24a33; stroke-width: 1.5; stroke-linecap: square"/>
   </g>
   <g id="line2d_38">
    <path d="M 133.590757 195.762822 
L 85.839162 230.083809 
" clip-path="url(#pa62c0c1b5b)" style="fill: none; stroke: #348abd; stroke-width: 1.5; stroke-linecap: square"/>
   </g>
   <g id="line2d_39">
    <path d="M 242.69155 209.344251 
L 194.939955 243.665238 
" clip-path="url(#pa62c0c1b5b)" style="fill: none; stroke: #e24a33; stroke-width: 1.5; stroke-linecap: square"/>
   </g>
   <g id="line2d_40">
    <path d="M 299.969467 105.669008 
L 252.217871 139.989995 
" clip-path="url(#pa62c0c1b5b)" style="fill: none; stroke: #e24a33; stroke-width: 1.5; stroke-linecap: square"/>
   </g>
   <g id="line2d_41">
    <path d="M 190.868673 92.087579 
L 143.117078 126.408566 
" clip-path="url(#pa62c0c1b5b)" style="fill: none; stroke: #e24a33; stroke-width: 1.5; stroke-linecap: square"/>
   </g>
   <g id="line2d_42">
    <path d="M 69.062915 256.399159 
L 178.163708 269.980588 
" clip-path="url(#pa62c0c1b5b)" style="fill: none; stroke: #777777; stroke-width: 1.5; stroke-linecap: square"/>
   </g>
   <g id="line2d_43">
    <path d="M 310.879546 217.832644 
L 310.879546 107.02715 
" clip-path="url(#pa62c0c1b5b)" style="fill: none; stroke: #777777; stroke-width: 1.5; stroke-linecap: square"/>
   </g>
   <g id="line2d_44">
    <path d="M 133.590757 84.957329 
L 74.929082 140.081271 
" clip-path="url(#pa62c0c1b5b)" style="fill: none; stroke: #777777; stroke-width: 1.5; stroke-linecap: square"/>
   </g>
   <g id="text_4">
    <!-- $\vec{0}$ -->
    <g transform="translate(192.904314 167.876408)scale(0.12 -0.12)">
     <defs>
      <path id="CMMI12-7e" d="M 3424 3835 
C 3347 3764 3110 3540 3110 3451 
C 3110 3387 3168 3329 3232 3329 
C 3290 3329 3315 3368 3360 3432 
C 3514 3624 3686 3745 3834 3828 
C 3898 3867 3942 3886 3942 3956 
C 3942 4014 3891 4046 3853 4078 
C 3674 4200 3629 4372 3610 4449 
C 3590 4500 3571 4577 3482 4577 
C 3443 4577 3366 4552 3366 4456 
C 3366 4398 3405 4244 3526 4072 
L 1376 4072 
C 1267 4072 1158 4072 1158 3950 
C 1158 3835 1274 3835 1376 3835 
L 3424 3835 
z
" transform="scale(0.015625)"/>
      <path id="CMR17-30" d="M 2688 2025 
C 2688 2416 2682 3080 2413 3591 
C 2176 4039 1798 4198 1466 4198 
C 1158 4198 768 4058 525 3597 
C 269 3118 243 2524 243 2025 
C 243 1661 250 1106 448 619 
C 723 -39 1216 -128 1466 -128 
C 1760 -128 2208 -7 2470 600 
C 2662 1042 2688 1559 2688 2025 
z
M 1466 -26 
C 1056 -26 813 325 723 812 
C 653 1188 653 1738 653 2096 
C 653 2588 653 2997 736 3387 
C 858 3929 1216 4096 1466 4096 
C 1728 4096 2067 3923 2189 3400 
C 2272 3036 2278 2607 2278 2096 
C 2278 1680 2278 1169 2202 792 
C 2067 95 1690 -26 1466 -26 
z
" transform="scale(0.015625)"/>
     </defs>
     <use xlink:href="#CMMI12-7e" transform="translate(0 21.325547)scale(0.996264)"/>
     <use xlink:href="#CMR17-30" transform="translate(9.204436 0)scale(0.996264)"/>
    </g>
   </g>
   <g id="text_5">
    <!-- $\vec{a}_1$ -->
    <g transform="translate(231.781471 204.292591)scale(0.12 -0.12)">
     <defs>
      <path id="CMMI12-61" d="M 1926 760 
C 1894 651 1894 639 1805 517 
C 1664 338 1382 64 1082 64 
C 819 64 672 300 672 677 
C 672 1028 870 1743 992 2012 
C 1210 2459 1510 2689 1760 2689 
C 2182 2689 2266 2165 2266 2114 
C 2266 2108 2246 2024 2240 2012 
L 1926 760 
z
M 2336 2395 
C 2266 2561 2093 2816 1760 2816 
C 1037 2816 256 1884 256 939 
C 256 307 627 -64 1062 -64 
C 1414 -64 1715 211 1894 422 
C 1958 45 2259 -64 2451 -64 
C 2643 -64 2797 51 2912 281 
C 3014 498 3104 888 3104 913 
C 3104 945 3078 971 3040 971 
C 2982 971 2976 939 2950 843 
C 2854 466 2733 64 2470 64 
C 2285 64 2272 230 2272 358 
C 2272 505 2291 575 2349 824 
C 2394 984 2426 1124 2477 1309 
C 2714 2267 2771 2497 2771 2535 
C 2771 2625 2701 2695 2605 2695 
C 2400 2695 2349 2472 2336 2395 
z
" transform="scale(0.015625)"/>
      <path id="CMR17-31" d="M 1702 4058 
C 1702 4192 1696 4192 1606 4192 
C 1357 3916 979 3827 621 3827 
C 602 3827 570 3827 563 3808 
C 557 3795 557 3782 557 3648 
C 755 3648 1088 3686 1344 3839 
L 1344 461 
C 1344 236 1331 160 781 160 
L 589 160 
L 589 0 
C 896 0 1216 0 1523 0 
C 1830 0 2150 0 2458 0 
L 2458 160 
L 2266 160 
C 1715 160 1702 230 1702 458 
L 1702 4058 
z
" transform="scale(0.015625)"/>
     </defs>
     <use xlink:href="#CMMI12-7e" transform="scale(0.996264)"/>
     <use xlink:href="#CMMI12-61" transform="translate(6.445738 0)scale(0.996264)"/>
     <use xlink:href="#CMR17-31" transform="translate(57.653596 -14.943915)scale(0.697382)"/>
    </g>
   </g>
   <g id="text_6">
    <!-- $\vec{a}_2$ -->
    <g transform="translate(188.141154 106.522109)scale(0.12 -0.12)">
     <defs>
      <path id="CMR17-32" d="M 2669 989 
L 2554 989 
C 2490 536 2438 459 2413 420 
C 2381 369 1920 369 1830 369 
L 602 369 
C 832 619 1280 1072 1824 1597 
C 2214 1967 2669 2402 2669 3035 
C 2669 3790 2067 4224 1395 4224 
C 691 4224 262 3604 262 3030 
C 262 2780 448 2748 525 2748 
C 589 2748 781 2787 781 3010 
C 781 3207 614 3264 525 3264 
C 486 3264 448 3258 422 3245 
C 544 3790 915 4058 1306 4058 
C 1862 4058 2227 3617 2227 3035 
C 2227 2479 1901 2000 1536 1584 
L 262 146 
L 262 0 
L 2515 0 
L 2669 989 
z
" transform="scale(0.015625)"/>
     </defs>
     <use xlink:href="#CMMI12-7e" transform="scale(0.996264)"/>
     <use xlink:href="#CMMI12-61" transform="translate(6.445738 0)scale(0.996264)"/>
     <use xlink:href="#CMR17-32" transform="translate(57.653596 -14.943915)scale(0.697382)"/>
    </g>
   </g>
   <g id="text_7">
    <!-- $\vec{a}_3$ -->
    <g transform="translate(99.682325 228.685755)scale(0.12 -0.12)">
     <defs>
      <path id="CMR17-33" d="M 1414 2157 
C 1984 2157 2234 1662 2234 1090 
C 2234 320 1824 25 1453 25 
C 1114 25 563 194 390 693 
C 422 680 454 680 486 680 
C 640 680 755 782 755 948 
C 755 1133 614 1216 486 1216 
C 378 1216 211 1165 211 926 
C 211 335 787 -128 1466 -128 
C 2176 -128 2720 430 2720 1085 
C 2720 1707 2208 2157 1600 2227 
C 2086 2328 2554 2756 2554 3329 
C 2554 3820 2048 4179 1472 4179 
C 890 4179 378 3829 378 3329 
C 378 3110 544 3072 627 3072 
C 762 3072 877 3155 877 3321 
C 877 3486 762 3569 627 3569 
C 602 3569 570 3569 544 3557 
C 730 3959 1235 4032 1459 4032 
C 1683 4032 2106 3925 2106 3320 
C 2106 3143 2080 2828 1862 2550 
C 1670 2304 1453 2304 1242 2284 
C 1210 2284 1062 2269 1037 2269 
C 992 2263 966 2257 966 2208 
C 966 2163 973 2157 1101 2157 
L 1414 2157 
z
" transform="scale(0.015625)"/>
     </defs>
     <use xlink:href="#CMMI12-7e" transform="scale(0.996264)"/>
     <use xlink:href="#CMMI12-61" transform="translate(6.445738 0)scale(0.996264)"/>
     <use xlink:href="#CMR17-33" transform="translate(57.653596 -14.943915)scale(0.697382)"/>
    </g>
   </g>
   <g id="text_8">
    <!-- $L_x$ -->
    <g transform="translate(129.479479 257.677479)scale(0.12 -0.12)">
     <defs>
      <path id="CMMI12-4c" d="M 2349 3861 
C 2406 4103 2426 4167 2989 4167 
C 3162 4167 3206 4167 3206 4288 
C 3206 4352 3136 4352 3110 4352 
C 2982 4352 2835 4352 2707 4352 
L 1850 4352 
C 1728 4352 1587 4352 1466 4352 
C 1414 4352 1344 4352 1344 4231 
C 1344 4167 1402 4167 1498 4167 
C 1888 4167 1888 4116 1888 4046 
C 1888 4034 1888 3995 1862 3899 
L 998 472 
C 941 249 928 185 480 185 
C 358 185 294 185 294 70 
C 294 0 333 0 461 0 
L 3328 0 
C 3469 0 3475 6 3520 121 
L 4013 1478 
C 4026 1510 4038 1548 4038 1567 
C 4038 1605 4006 1631 3974 1631 
C 3968 1631 3936 1631 3923 1605 
C 3910 1599 3910 1586 3859 1465 
C 3654 905 3366 185 2285 185 
L 1670 185 
C 1581 185 1568 185 1530 192 
C 1459 198 1453 211 1453 262 
C 1453 307 1466 345 1478 401 
L 2349 3861 
z
" transform="scale(0.015625)"/>
      <path id="CMMI12-78" d="M 3034 2606 
C 2829 2567 2752 2414 2752 2293 
C 2752 2139 2874 2088 2963 2088 
C 3155 2088 3290 2254 3290 2427 
C 3290 2695 2982 2816 2714 2816 
C 2323 2816 2106 2433 2048 2312 
C 1901 2816 1504 2816 1389 2816 
C 736 2816 390 1980 390 1839 
C 390 1814 416 1782 461 1782 
C 512 1782 525 1820 538 1846 
C 755 2555 1184 2689 1370 2689 
C 1658 2689 1715 2420 1715 2267 
C 1715 2127 1677 1980 1600 1673 
L 1382 798 
C 1286 415 1101 64 762 64 
C 730 64 570 64 435 147 
C 666 192 717 383 717 460 
C 717 588 621 664 499 664 
C 346 664 179 530 179 326 
C 179 57 480 -64 755 -64 
C 1062 -64 1280 179 1414 441 
C 1517 64 1837 -64 2074 -64 
C 2726 -64 3072 773 3072 913 
C 3072 945 3046 971 3008 971 
C 2950 971 2944 939 2925 888 
C 2752 326 2381 64 2093 64 
C 1869 64 1747 230 1747 492 
C 1747 632 1773 734 1875 1156 
L 2099 2024 
C 2195 2408 2413 2689 2707 2689 
C 2720 2689 2899 2689 3034 2606 
z
" transform="scale(0.015625)"/>
     </defs>
     <use xlink:href="#CMMI12-4c" transform="scale(0.996264)"/>
     <use xlink:href="#CMMI12-78" transform="translate(66.370875 -14.943915)scale(0.697382)"/>
    </g>
   </g>
   <g id="text_9">
    <!-- $L_y$ -->
    <g transform="translate(294.514427 160.392683)scale(0.12 -0.12)">
     <defs>
      <path id="CMMI12-79" d="M 1683 -700 
C 1510 -939 1261 -1152 947 -1152 
C 870 -1152 563 -1152 467 -889 
C 486 -895 518 -895 531 -895 
C 723 -895 851 -729 851 -582 
C 851 -435 730 -384 634 -384 
C 531 -384 307 -458 307 -759 
C 307 -1071 582 -1286 947 -1286 
C 1587 -1286 2234 -700 2413 6 
L 3040 2485 
C 3046 2517 3059 2556 3059 2594 
C 3059 2689 2982 2753 2886 2753 
C 2829 2753 2694 2727 2643 2535 
L 2170 658 
C 2138 543 2138 530 2086 460 
C 1958 281 1747 64 1440 64 
C 1082 64 1050 415 1050 588 
C 1050 952 1222 1443 1395 1903 
C 1466 2088 1504 2178 1504 2305 
C 1504 2574 1312 2816 998 2816 
C 410 2816 173 1890 173 1839 
C 173 1814 198 1782 243 1782 
C 301 1782 307 1807 333 1897 
C 486 2433 730 2689 979 2689 
C 1037 2689 1146 2689 1146 2478 
C 1146 2312 1075 2127 979 1884 
C 666 1047 666 837 666 683 
C 666 77 1101 -64 1421 -64 
C 1606 -64 1837 -6 2061 230 
L 2067 224 
C 1971 -147 1907 -392 1683 -700 
z
" transform="scale(0.015625)"/>
     </defs>
     <use xlink:href="#CMMI12-4c" transform="scale(0.996264)"/>
     <use xlink:href="#CMMI12-79" transform="translate(66.370875 -14.943915)scale(0.697382)"/>
    </g>
   </g>
   <g id="text_10">
    <!-- $L_z$ -->
    <g transform="translate(115.169999 113.877443)scale(0.12 -0.12)">
     <defs>
      <path id="CMMI12-7a" d="M 813 486 
C 1088 803 1312 1004 1632 1296 
C 2016 1632 2182 1793 2272 1891 
C 2720 2338 2944 2713 2944 2764 
C 2944 2816 2893 2816 2880 2816 
C 2835 2816 2822 2793 2790 2750 
C 2630 2494 2477 2367 2310 2367 
C 2176 2367 2106 2421 1984 2565 
C 1850 2715 1741 2816 1555 2816 
C 1088 2816 806 2257 806 2128 
C 806 2108 813 2068 870 2068 
C 922 2068 928 2091 947 2133 
C 1056 2372 1363 2414 1485 2414 
C 1619 2414 1747 2376 1882 2327 
C 2125 2240 2227 2240 2291 2240 
C 2336 2240 2362 2240 2394 2246 
C 2182 1994 1837 1683 1549 1418 
L 902 816 
C 512 415 275 33 275 -12 
C 275 -51 307 -64 346 -64 
C 384 -64 390 -57 435 14 
C 538 163 742 384 979 384 
C 1114 384 1178 342 1306 193 
C 1427 61 1536 -64 1741 -64 
C 2368 -64 2726 732 2726 876 
C 2726 903 2720 942 2656 942 
C 2605 942 2598 917 2579 855 
C 2438 488 2061 338 1811 338 
C 1677 338 1549 376 1414 425 
C 1158 512 1088 512 1005 512 
C 941 512 870 512 813 486 
z
" transform="scale(0.015625)"/>
     </defs>
     <use xlink:href="#CMMI12-4c" transform="scale(0.996264)"/>
     <use xlink:href="#CMMI12-7a" transform="translate(66.370875 -14.943915)scale(0.697382)"/>
    </g>
   </g>
  </g>
 </g>
 <defs>
  <clipPath id="pa62c0c1b5b">
   <rect x="17.459036" y="7.2" width="335.9448" height="335.9448"/>
  </clipPath>
 </defs>
</svg>
