<?xml version="1.0" encoding="utf-8" standalone="no"?>
<!DOCTYPE svg PUBLIC "-//W3C//DTD SVG 1.1//EN"
  "http://www.w3.org/Graphics/SVG/1.1/DTD/svg11.dtd">
<svg xmlns:xlink="http://www.w3.org/1999/xlink" width="308.361735pt" height="289.802639pt" viewBox="0 0 308.361735 289.802639" xmlns="http://www.w3.org/2000/svg" version="1.1">
 <metadata>
  <rdf:RDF xmlns:dc="http://purl.org/dc/elements/1.1/" xmlns:cc="http://creativecommons.org/ns#" xmlns:rdf="http://www.w3.org/1999/02/22-rdf-syntax-ns#">
   <cc:Work>
    <dc:type rdf:resource="http://purl.org/dc/dcmitype/StillImage"/>
    <dc:date>2023-03-16T09:44:44.292129</dc:date>
    <dc:format>image/svg+xml</dc:format>
    <dc:creator>
     <cc:Agent>
      <dc:title>Matplotlib v3.7.1, https://matplotlib.org/</dc:title>
     </cc:Agent>
    </dc:creator>
   </cc:Work>
  </rdf:RDF>
 </metadata>
 <defs>
  <style type="text/css">*{stroke-linejoin: round; stroke-linecap: butt}</style>
 </defs>
 <g id="figure_1">
  <g id="patch_1">
   <path d="M 0 289.802639 
L 308.361735 289.802639 
L 308.361735 0 
L 0 0 
z
" style="fill: #ffffff"/>
  </g>
  <g id="axes_1">
   <g id="patch_2">
    <path d="M 61.314958 247.046777 
L 301.161735 247.046777 
L 301.161735 7.2 
L 61.314958 7.2 
z
" style="fill: #e5e5e5"/>
   </g>
   <g id="matplotlib.axis_1">
    <g id="xtick_1">
     <g id="line2d_1">
      <path d="M 113.100058 247.046777 
L 113.100058 7.2 
" clip-path="url(#p1473db6a62)" style="fill: none; stroke: #ffffff; stroke-width: 0.8; stroke-linecap: square"/>
     </g>
     <g id="line2d_2"/>
     <g id="text_1">
      <!-- $\mathdefault{−0.5}$ -->
      <g style="fill: #555555" transform="translate(96.168655 262.501945) scale(0.1728 -0.1728)">
       <defs>
        <path id="CMSY10-0" d="M 4218 1472 
C 4326 1472 4442 1472 4442 1600 
C 4442 1728 4326 1728 4218 1728 
L 755 1728 
C 646 1728 531 1728 531 1600 
C 531 1472 646 1472 755 1472 
L 4218 1472 
z
" transform="scale(0.015625)"/>
        <path id="CMR17-30" d="M 2688 2038 
C 2688 2430 2682 3099 2413 3613 
C 2176 4063 1798 4224 1466 4224 
C 1158 4224 768 4082 525 3620 
C 269 3137 243 2539 243 2038 
C 243 1671 250 1112 448 623 
C 723 -39 1216 -128 1466 -128 
C 1760 -128 2208 -7 2470 604 
C 2662 1048 2688 1568 2688 2038 
z
M 1466 -26 
C 1056 -26 813 328 723 816 
C 653 1196 653 1749 653 2109 
C 653 2604 653 3015 736 3407 
C 858 3954 1216 4121 1466 4121 
C 1728 4121 2067 3947 2189 3420 
C 2272 3054 2278 2623 2278 2109 
C 2278 1691 2278 1176 2202 797 
C 2067 96 1690 -26 1466 -26 
z
" transform="scale(0.015625)"/>
        <path id="CMMI12-3a" d="M 1178 307 
C 1178 492 1024 620 870 620 
C 685 620 557 467 557 313 
C 557 128 710 0 864 0 
C 1050 0 1178 153 1178 307 
z
" transform="scale(0.015625)"/>
        <path id="CMR17-35" d="M 730 3750 
C 794 3724 1056 3641 1325 3641 
C 1920 3641 2246 3961 2432 4140 
C 2432 4191 2432 4224 2394 4224 
C 2387 4224 2374 4224 2323 4198 
C 2099 4102 1837 4032 1517 4032 
C 1325 4032 1037 4055 723 4191 
C 653 4224 640 4224 634 4224 
C 602 4224 595 4217 595 4090 
L 595 2231 
C 595 2113 595 2080 659 2080 
C 691 2080 704 2093 736 2139 
C 941 2435 1222 2560 1542 2560 
C 1766 2560 2246 2415 2246 1293 
C 2246 1087 2246 716 2054 422 
C 1894 159 1645 25 1370 25 
C 947 25 518 319 403 812 
C 429 806 480 793 506 793 
C 589 793 749 838 749 1036 
C 749 1209 627 1280 506 1280 
C 358 1280 262 1190 262 1011 
C 262 454 704 -128 1382 -128 
C 2042 -128 2669 441 2669 1267 
C 2669 2054 2170 2662 1549 2662 
C 1222 2662 947 2540 730 2304 
L 730 3750 
z
" transform="scale(0.015625)"/>
       </defs>
       <use xlink:href="#CMSY10-0" transform="scale(0.996264)"/>
       <use xlink:href="#CMR17-30" transform="translate(77.487468 0) scale(0.996264)"/>
       <use xlink:href="#CMMI12-3a" transform="translate(123.177945 0) scale(0.996264)"/>
       <use xlink:href="#CMR17-35" transform="translate(150.275122 0) scale(0.996264)"/>
      </g>
     </g>
    </g>
    <g id="xtick_2">
     <g id="line2d_3">
      <path d="M 181.238347 247.046777 
L 181.238347 7.2 
" clip-path="url(#p1473db6a62)" style="fill: none; stroke: #ffffff; stroke-width: 0.8; stroke-linecap: square"/>
     </g>
     <g id="line2d_4"/>
     <g id="text_2">
      <!-- $\mathdefault{0.0}$ -->
      <g style="fill: #555555" transform="translate(171.001854 262.501945) scale(0.1728 -0.1728)">
       <use xlink:href="#CMR17-30" transform="scale(0.996264)"/>
       <use xlink:href="#CMMI12-3a" transform="translate(45.690477 0) scale(0.996264)"/>
       <use xlink:href="#CMR17-30" transform="translate(72.787654 0) scale(0.996264)"/>
      </g>
     </g>
    </g>
    <g id="xtick_3">
     <g id="line2d_5">
      <path d="M 249.376635 247.046777 
L 249.376635 7.2 
" clip-path="url(#p1473db6a62)" style="fill: none; stroke: #ffffff; stroke-width: 0.8; stroke-linecap: square"/>
     </g>
     <g id="line2d_6"/>
     <g id="text_3">
      <!-- $\mathdefault{0.5}$ -->
      <g style="fill: #555555" transform="translate(239.140143 262.501945) scale(0.1728 -0.1728)">
       <use xlink:href="#CMR17-30" transform="scale(0.996264)"/>
       <use xlink:href="#CMMI12-3a" transform="translate(45.690477 0) scale(0.996264)"/>
       <use xlink:href="#CMR17-35" transform="translate(72.787654 0) scale(0.996264)"/>
      </g>
     </g>
    </g>
    <g id="text_4">
     <!-- X -->
     <g style="fill: #555555" transform="translate(176.597478 279.813112) scale(0.144 -0.144)">
      <defs>
       <path id="CMSS17-58" d="M 2214 2328 
L 3661 4416 
L 3072 4416 
L 1952 2761 
L 800 4416 
L 166 4416 
L 1690 2328 
L 83 0 
L 672 0 
L 1952 1940 
L 3277 0 
L 3910 0 
L 2214 2328 
z
" transform="scale(0.015625)"/>
      </defs>
      <use xlink:href="#CMSS17-58" transform="scale(0.996264)"/>
     </g>
    </g>
   </g>
   <g id="matplotlib.axis_2">
    <g id="ytick_1">
     <g id="line2d_7">
      <path d="M 61.314958 195.261677 
L 301.161735 195.261677 
" clip-path="url(#p1473db6a62)" style="fill: none; stroke: #ffffff; stroke-width: 0.8; stroke-linecap: square"/>
     </g>
     <g id="line2d_8"/>
     <g id="text_5">
      <!-- $\mathdefault{−0.5}$ -->
      <g style="fill: #555555" transform="translate(23.952152 201.239261) scale(0.1728 -0.1728)">
       <use xlink:href="#CMSY10-0" transform="scale(0.996264)"/>
       <use xlink:href="#CMR17-30" transform="translate(77.487468 0) scale(0.996264)"/>
       <use xlink:href="#CMMI12-3a" transform="translate(123.177945 0) scale(0.996264)"/>
       <use xlink:href="#CMR17-35" transform="translate(150.275122 0) scale(0.996264)"/>
      </g>
     </g>
    </g>
    <g id="ytick_2">
     <g id="line2d_9">
      <path d="M 61.314958 127.123388 
L 301.161735 127.123388 
" clip-path="url(#p1473db6a62)" style="fill: none; stroke: #ffffff; stroke-width: 0.8; stroke-linecap: square"/>
     </g>
     <g id="line2d_10"/>
     <g id="text_6">
      <!-- $\mathdefault{0.0}$ -->
      <g style="fill: #555555" transform="translate(37.341973 133.100972) scale(0.1728 -0.1728)">
       <use xlink:href="#CMR17-30" transform="scale(0.996264)"/>
       <use xlink:href="#CMMI12-3a" transform="translate(45.690477 0) scale(0.996264)"/>
       <use xlink:href="#CMR17-30" transform="translate(72.787654 0) scale(0.996264)"/>
      </g>
     </g>
    </g>
    <g id="ytick_3">
     <g id="line2d_11">
      <path d="M 61.314958 58.9851 
L 301.161735 58.9851 
" clip-path="url(#p1473db6a62)" style="fill: none; stroke: #ffffff; stroke-width: 0.8; stroke-linecap: square"/>
     </g>
     <g id="line2d_12"/>
     <g id="text_7">
      <!-- $\mathdefault{0.5}$ -->
      <g style="fill: #555555" transform="translate(37.341973 64.962684) scale(0.1728 -0.1728)">
       <use xlink:href="#CMR17-30" transform="scale(0.996264)"/>
       <use xlink:href="#CMMI12-3a" transform="translate(45.690477 0) scale(0.996264)"/>
       <use xlink:href="#CMR17-35" transform="translate(72.787654 0) scale(0.996264)"/>
      </g>
     </g>
    </g>
    <g id="text_8">
     <!-- Y -->
     <g style="fill: #555555" transform="translate(17.162625 131.764257) rotate(-90) scale(0.144 -0.144)">
      <defs>
       <path id="CMSS17-59" d="M 3974 4416 
L 3424 4416 
L 2432 2875 
C 2355 2754 2138 2424 2035 2239 
L 1722 2742 
L 646 4416 
L 19 4416 
L 1734 1769 
L 1734 0 
L 2259 0 
L 2259 1762 
L 3974 4416 
z
" transform="scale(0.015625)"/>
      </defs>
      <use xlink:href="#CMSS17-59" transform="scale(0.996264)"/>
     </g>
    </g>
   </g>
   <g id="patch_3">
    <path d="M 72.217085 195.261677 
L 72.356721 198.637766 
L 72.774675 201.990793 
L 73.468093 205.297854 
L 74.432237 208.536357 
L 75.660521 211.68418 
L 77.144556 214.719822 
L 78.874203 217.622544 
L 80.837647 220.372519 
L 83.021477 222.950962 
L 85.410773 225.340258 
L 87.989216 227.524088 
L 90.739191 229.487532 
L 93.641913 231.217179 
L 96.677554 232.701214 
L 99.825378 233.929498 
L 103.063881 234.893642 
L 106.370942 235.58706 
L 109.723969 236.005014 
L 113.100058 236.14465 
L 249.376635 236.14465 
L 252.752725 236.005014 
L 256.105752 235.58706 
L 259.412812 234.893642 
L 262.651315 233.929498 
L 265.799139 232.701214 
L 268.83478 231.217179 
L 271.737502 229.487532 
L 274.487477 227.524088 
L 277.06592 225.340258 
L 279.455216 222.950962 
L 281.639046 220.372519 
L 283.60249 217.622544 
L 285.332137 214.719822 
L 286.816172 211.68418 
L 288.044456 208.536357 
L 289.008601 205.297854 
L 289.702018 201.990793 
L 290.119973 198.637766 
L 290.259609 195.261677 
L 290.259609 58.9851 
L 290.119973 55.60901 
L 289.702018 52.255983 
L 289.008601 48.948923 
L 288.044456 45.71042 
L 286.816172 42.562596 
L 285.332137 39.526955 
L 283.60249 36.624233 
L 281.639046 33.874258 
L 279.455216 31.295815 
L 277.06592 28.906519 
L 274.487477 26.722689 
L 271.737502 24.759245 
L 268.83478 23.029598 
L 265.799139 21.545563 
L 262.651315 20.317278 
L 259.412812 19.353134 
L 256.105752 18.659717 
L 252.752725 18.241762 
L 249.376635 18.102126 
L 113.100058 18.102126 
L 109.723969 18.241762 
L 106.370942 18.659717 
L 103.063881 19.353134 
L 99.825378 20.317278 
L 96.677554 21.545563 
L 93.641913 23.029598 
L 90.739191 24.759245 
L 87.989216 26.722689 
L 85.410773 28.906519 
L 83.021477 31.295815 
L 80.837647 33.874258 
L 78.874203 36.624233 
L 77.144556 39.526955 
L 75.660521 42.562596 
L 74.432237 45.71042 
L 73.468093 48.948923 
L 72.774675 52.255983 
L 72.356721 55.60901 
L 72.217085 58.9851 
z
" clip-path="url(#p1473db6a62)" style="fill: #fbc15e; stroke: #777777; stroke-width: 3; stroke-linejoin: miter"/>
   </g>
   <g id="patch_4">
    <path d="M 113.100058 236.14465 
C 123.942349 236.14465 134.342028 231.836962 142.008685 224.170305 
C 149.675343 216.503647 153.983031 206.103968 153.983031 195.261677 
C 153.983031 184.419386 149.675343 174.019707 142.008685 166.353049 
C 134.342028 158.686392 123.942349 154.378704 113.100058 154.378704 
C 102.257767 154.378704 91.858088 158.686392 84.19143 166.353049 
C 76.524772 174.019707 72.217085 184.419386 72.217085 195.261677 
C 72.217085 206.103968 76.524772 216.503647 84.19143 224.170305 
C 91.858088 231.836962 102.257767 236.14465 113.100058 236.14465 
z
" clip-path="url(#p1473db6a62)" style="fill: #348abd; stroke: #348abd; stroke-width: 0.5; stroke-linejoin: miter"/>
   </g>
   <g id="line2d_13">
    <path d="M 113.100058 195.261677 
L 84.19143 224.170305 
" clip-path="url(#p1473db6a62)" style="fill: none; stroke: #8eba42; stroke-width: 3; stroke-linecap: square"/>
   </g>
   <g id="line2d_14">
    <defs>
     <path id="m820d358ee1" d="M 0 3.75 
C 0.994512 3.75 1.948425 3.354876 2.65165 2.65165 
C 3.354876 1.948425 3.75 0.994512 3.75 0 
C 3.75 -0.994512 3.354876 -1.948425 2.65165 -2.65165 
C 1.948425 -3.354876 0.994512 -3.75 0 -3.75 
C -0.994512 -3.75 -1.948425 -3.354876 -2.65165 -2.65165 
C -3.354876 -1.948425 -3.75 -0.994512 -3.75 0 
C -3.75 0.994512 -3.354876 1.948425 -2.65165 2.65165 
C -1.948425 3.354876 -0.994512 3.75 0 3.75 
z
" style="stroke: #e24a33"/>
    </defs>
    <g clip-path="url(#p1473db6a62)">
     <use xlink:href="#m820d358ee1" x="113.100058" y="195.261677" style="fill: #e24a33; stroke: #e24a33"/>
    </g>
   </g>
   <g id="line2d_15">
    <g clip-path="url(#p1473db6a62)">
     <use xlink:href="#m820d358ee1" x="249.376635" y="195.261677" style="fill: #e24a33; stroke: #e24a33"/>
    </g>
   </g>
   <g id="line2d_16">
    <g clip-path="url(#p1473db6a62)">
     <use xlink:href="#m820d358ee1" x="249.376635" y="58.9851" style="fill: #e24a33; stroke: #e24a33"/>
    </g>
   </g>
   <g id="line2d_17">
    <g clip-path="url(#p1473db6a62)">
     <use xlink:href="#m820d358ee1" x="113.100058" y="58.9851" style="fill: #e24a33; stroke: #e24a33"/>
    </g>
   </g>
   <g id="line2d_18">
    <g clip-path="url(#p1473db6a62)">
     <use xlink:href="#m820d358ee1" x="181.238347" y="127.123388" style="fill: #e24a33; stroke: #e24a33"/>
    </g>
   </g>
   <g id="patch_5">
    <path d="M 61.314958 247.046777 
L 61.314958 7.2 
" style="fill: none; stroke: #ffffff; stroke-linejoin: miter; stroke-linecap: square"/>
   </g>
   <g id="patch_6">
    <path d="M 301.161735 247.046777 
L 301.161735 7.2 
" style="fill: none; stroke: #ffffff; stroke-linejoin: miter; stroke-linecap: square"/>
   </g>
   <g id="patch_7">
    <path d="M 61.314958 247.046777 
L 301.161735 247.046777 
" style="fill: none; stroke: #ffffff; stroke-linejoin: miter; stroke-linecap: square"/>
   </g>
   <g id="patch_8">
    <path d="M 61.314958 7.2 
L 301.161735 7.2 
" style="fill: none; stroke: #ffffff; stroke-linejoin: miter; stroke-linecap: square"/>
   </g>
   <g id="text_9">
    <!-- $s_r$ -->
    <g transform="translate(98.645744 217.892586) scale(0.2 -0.2)">
     <defs>
      <path id="CMMI12-73" d="M 1459 1290 
C 1568 1271 1741 1233 1779 1227 
C 1862 1201 2150 1099 2150 793 
C 2150 595 1971 64 1229 64 
C 1094 64 614 83 486 447 
C 742 414 870 614 870 755 
C 870 889 781 960 653 960 
C 512 960 326 851 326 563 
C 326 176 710 -64 1222 -64 
C 2195 -64 2483 665 2483 998 
C 2483 1093 2483 1271 2278 1475 
C 2118 1627 1965 1659 1619 1729 
C 1446 1767 1171 1824 1171 2111 
C 1171 2239 1286 2687 1894 2687 
C 2163 2687 2426 2589 2490 2368 
C 2208 2368 2195 2124 2195 2118 
C 2195 1983 2317 1945 2374 1945 
C 2464 1945 2643 2015 2643 2284 
C 2643 2546 2400 2816 1901 2816 
C 1062 2816 838 2169 838 1907 
C 838 1424 1312 1322 1459 1290 
z
" transform="scale(0.015625)"/>
      <path id="CMMI12-72" d="M 2490 2633 
C 2291 2598 2189 2457 2189 2316 
C 2189 2163 2310 2111 2400 2111 
C 2579 2111 2726 2265 2726 2457 
C 2726 2651 2528 2816 2208 2816 
C 1952 2816 1658 2700 1389 2335 
C 1344 2660 1088 2816 832 2816 
C 582 2816 454 2642 378 2508 
C 269 2278 173 1892 173 1860 
C 173 1834 198 1801 243 1801 
C 294 1801 301 1808 339 1957 
C 435 2342 557 2687 813 2687 
C 966 2687 1011 2604 1011 2419 
C 1011 2278 947 2028 902 1827 
L 723 1130 
C 698 1007 627 716 595 600 
C 550 432 480 128 480 96 
C 480 6 550 -64 646 -64 
C 717 -64 838 -20 877 109 
C 896 160 1133 1136 1171 1285 
C 1203 1427 1242 1562 1274 1705 
C 1299 1795 1325 1898 1344 1982 
C 1363 2040 1536 2355 1696 2495 
C 1773 2566 1939 2687 2202 2687 
C 2304 2687 2406 2674 2490 2633 
z
" transform="scale(0.015625)"/>
     </defs>
     <use xlink:href="#CMMI12-73" transform="scale(0.996264)"/>
     <use xlink:href="#CMMI12-72" transform="translate(45.950048 -14.943915) scale(0.697382)"/>
    </g>
   </g>
   <g id="text_10">
    <!-- $\vec{v}_0$ -->
    <g transform="translate(114.462824 192.536146) scale(0.2 -0.2)">
     <defs>
      <path id="CMMI12-7e" d="M 3424 3840 
C 3347 3769 3110 3545 3110 3455 
C 3110 3391 3168 3334 3232 3334 
C 3290 3334 3315 3372 3360 3436 
C 3514 3628 3686 3750 3834 3833 
C 3898 3872 3942 3891 3942 3961 
C 3942 4019 3891 4051 3853 4083 
C 3674 4204 3629 4377 3610 4454 
C 3590 4505 3571 4582 3482 4582 
C 3443 4582 3366 4556 3366 4460 
C 3366 4403 3405 4249 3526 4076 
L 1376 4076 
C 1267 4076 1158 4076 1158 3955 
C 1158 3840 1274 3840 1376 3840 
L 3424 3840 
z
" transform="scale(0.015625)"/>
      <path id="CMMI12-76" d="M 2925 2388 
C 2925 2790 2720 2816 2669 2816 
C 2515 2816 2374 2662 2374 2534 
C 2374 2458 2419 2413 2445 2388 
C 2509 2330 2675 2158 2675 1826 
C 2675 1558 2291 64 1523 64 
C 1133 64 1056 389 1056 625 
C 1056 945 1203 1392 1376 1851 
C 1478 2113 1504 2177 1504 2305 
C 1504 2573 1312 2816 998 2816 
C 410 2816 173 1890 173 1838 
C 173 1813 198 1781 243 1781 
C 301 1781 307 1807 333 1896 
C 486 2445 736 2687 979 2687 
C 1037 2687 1146 2687 1146 2477 
C 1146 2311 1075 2126 979 1883 
C 672 1066 672 868 672 715 
C 672 574 691 313 890 134 
C 1120 -64 1440 -64 1498 -64 
C 2560 -64 2925 2024 2925 2388 
z
" transform="scale(0.015625)"/>
     </defs>
     <use xlink:href="#CMMI12-7e" transform="scale(0.996264)"/>
     <use xlink:href="#CMMI12-76" transform="translate(3.972363 0) scale(0.996264)"/>
     <use xlink:href="#CMR17-30" transform="translate(51.132943 -14.943915) scale(0.697382)"/>
    </g>
   </g>
   <g id="text_11">
    <!-- $\vec{v}_1$ -->
    <g transform="translate(250.739401 192.536146) scale(0.2 -0.2)">
     <defs>
      <path id="CMR17-31" d="M 1702 4083 
C 1702 4217 1696 4224 1606 4224 
C 1357 3927 979 3833 621 3820 
C 602 3820 570 3820 563 3808 
C 557 3795 557 3782 557 3648 
C 755 3648 1088 3686 1344 3839 
L 1344 467 
C 1344 243 1331 166 781 166 
L 589 166 
L 589 0 
C 896 6 1216 12 1523 12 
C 1830 12 2150 6 2458 0 
L 2458 166 
L 2266 166 
C 1715 166 1702 236 1702 467 
L 1702 4083 
z
" transform="scale(0.015625)"/>
     </defs>
     <use xlink:href="#CMMI12-7e" transform="scale(0.996264)"/>
     <use xlink:href="#CMMI12-76" transform="translate(3.972363 0) scale(0.996264)"/>
     <use xlink:href="#CMR17-31" transform="translate(51.132943 -14.943915) scale(0.697382)"/>
    </g>
   </g>
   <g id="text_12">
    <!-- $\vec{v}_2$ -->
    <g transform="translate(250.739401 56.259568) scale(0.2 -0.2)">
     <defs>
      <path id="CMR17-32" d="M 2669 990 
L 2554 990 
C 2490 537 2438 460 2413 422 
C 2381 371 1920 371 1830 371 
L 602 371 
C 832 620 1280 1073 1824 1596 
C 2214 1966 2669 2400 2669 3033 
C 2669 3788 2067 4224 1395 4224 
C 691 4224 262 3603 262 3027 
C 262 2777 448 2745 525 2745 
C 589 2745 781 2783 781 3007 
C 781 3206 614 3264 525 3264 
C 486 3264 448 3257 422 3244 
C 544 3788 915 4057 1306 4057 
C 1862 4057 2227 3616 2227 3033 
C 2227 2477 1901 1998 1536 1583 
L 262 147 
L 262 0 
L 2515 0 
L 2669 990 
z
" transform="scale(0.015625)"/>
     </defs>
     <use xlink:href="#CMMI12-7e" transform="scale(0.996264)"/>
     <use xlink:href="#CMMI12-76" transform="translate(3.972363 0) scale(0.996264)"/>
     <use xlink:href="#CMR17-32" transform="translate(51.132943 -14.943915) scale(0.697382)"/>
    </g>
   </g>
   <g id="text_13">
    <!-- $\vec{v}_3$ -->
    <g transform="translate(114.462824 56.259568) scale(0.2 -0.2)">
     <defs>
      <path id="CMR17-33" d="M 1414 2176 
C 1984 2176 2234 1673 2234 1094 
C 2234 322 1824 25 1453 25 
C 1114 25 563 193 390 691 
C 422 678 454 678 486 678 
C 640 678 755 780 755 947 
C 755 1132 614 1216 486 1216 
C 378 1216 211 1164 211 927 
C 211 335 787 -128 1466 -128 
C 2176 -128 2720 432 2720 1087 
C 2720 1718 2208 2176 1600 2246 
C 2086 2347 2554 2776 2554 3353 
C 2554 3856 2048 4224 1472 4224 
C 890 4224 378 3862 378 3347 
C 378 3123 544 3084 627 3084 
C 762 3084 877 3167 877 3334 
C 877 3500 762 3584 627 3584 
C 602 3584 570 3584 544 3571 
C 730 3999 1235 4076 1459 4076 
C 1683 4076 2106 3966 2106 3347 
C 2106 3167 2080 2851 1862 2574 
C 1670 2329 1453 2316 1242 2297 
C 1210 2297 1062 2284 1037 2284 
C 992 2278 966 2272 966 2227 
C 966 2182 973 2176 1101 2176 
L 1414 2176 
z
" transform="scale(0.015625)"/>
     </defs>
     <use xlink:href="#CMMI12-7e" transform="scale(0.996264)"/>
     <use xlink:href="#CMMI12-76" transform="translate(3.972363 0) scale(0.996264)"/>
     <use xlink:href="#CMR17-33" transform="translate(51.132943 -14.943915) scale(0.697382)"/>
    </g>
   </g>
   <g id="text_14">
    <!-- $\vec{0}$ -->
    <g transform="translate(182.601112 124.397857) scale(0.2 -0.2)">
     <use xlink:href="#CMMI12-7e" transform="translate(0 21.325547) scale(0.996264)"/>
     <use xlink:href="#CMR17-30" transform="translate(9.204436 0) scale(0.996264)"/>
    </g>
   </g>
  </g>
 </g>
 <defs>
  <clipPath id="p1473db6a62">
   <rect x="61.314958" y="7.2" width="239.846777" height="239.846777"/>
  </clipPath>
 </defs>
</svg>
