<?xml version="1.0" encoding="utf-8" standalone="no"?>
<!DOCTYPE svg PUBLIC "-//W3C//DTD SVG 1.1//EN"
  "http://www.w3.org/Graphics/SVG/1.1/DTD/svg11.dtd">
<svg xmlns:xlink="http://www.w3.org/1999/xlink" width="359.830362pt" height="350.3448pt" viewBox="0 0 359.830362 350.3448" xmlns="http://www.w3.org/2000/svg" version="1.1">
 <metadata>
  <rdf:RDF xmlns:dc="http://purl.org/dc/elements/1.1/" xmlns:cc="http://creativecommons.org/ns#" xmlns:rdf="http://www.w3.org/1999/02/22-rdf-syntax-ns#">
   <cc:Work>
    <dc:type rdf:resource="http://purl.org/dc/dcmitype/StillImage"/>
    <dc:date>2022-02-17T11:36:19.094206</dc:date>
    <dc:format>image/svg+xml</dc:format>
    <dc:creator>
     <cc:Agent>
      <dc:title>Matplotlib v3.5.1, https://matplotlib.org/</dc:title>
     </cc:Agent>
    </dc:creator>
   </cc:Work>
  </rdf:RDF>
 </metadata>
 <defs>
  <style type="text/css">*{stroke-linejoin: round; stroke-linecap: butt}</style>
 </defs>
 <g id="figure_1">
  <g id="patch_1">
   <path d="M 0 350.3448 
L 359.830362 350.3448 
L 359.830362 0 
L 0 0 
L 0 350.3448 
z
" style="fill: none"/>
  </g>
  <g id="patch_2">
   <path d="M 16.685562 343.1448 
L 352.630362 343.1448 
L 352.630362 7.2 
L 16.685562 7.2 
z
" style="fill: #ffffff"/>
  </g>
  <g id="pane3d_1">
   <g id="patch_3">
    <path d="M 124.59513 199.427645 
L 124.59513 47.070092 
L 50.656978 116.549228 
L 50.656978 268.906781 
" style="fill: #f2f2f2; opacity: 0.5; stroke: #f2f2f2; stroke-width: 0.5; stroke-linejoin: miter"/>
   </g>
  </g>
  <g id="pane3d_2">
   <g id="patch_4">
    <path d="M 124.59513 199.427645 
L 327.738535 224.715983 
L 253.800382 294.195119 
L 50.656978 268.906781 
" style="fill: #e6e6e6; opacity: 0.5; stroke: #e6e6e6; stroke-width: 0.5; stroke-linejoin: miter"/>
   </g>
  </g>
  <g id="pane3d_3">
   <g id="patch_5">
    <path d="M 124.59513 199.427645 
L 327.738535 224.715983 
L 327.738535 72.358429 
L 124.59513 47.070092 
" style="fill: #ececec; opacity: 0.5; stroke: #ececec; stroke-width: 0.5; stroke-linejoin: miter"/>
   </g>
  </g>
  <g id="axis3d_1">
   <g id="line2d_1">
    <path d="M 253.800382 294.195119 
L 50.656978 268.906781 
" style="fill: none; stroke: #ffffff; stroke-linecap: square"/>
   </g>
   <g id="text_1">
    <!-- X -->
    <g style="fill: #555555" transform="translate(137.796957 316.235905)scale(0.12 -0.12)">
     <defs>
      <path id="CMSS17-58" d="M 2214 2329 
L 3661 4416 
L 3072 4416 
L 1952 2762 
L 800 4416 
L 166 4416 
L 1690 2329 
L 83 0 
L 672 0 
L 1952 1941 
L 3277 0 
L 3910 0 
L 2214 2329 
z
" transform="scale(0.015625)"/>
     </defs>
     <use xlink:href="#CMSS17-58" transform="scale(0.996264)"/>
    </g>
   </g>
   <g id="Line3DCollection_1">
    <path d="M 137.522438 48.67935 
L 137.522438 201.036903 
L 63.584285 270.516039 
" style="fill: none; stroke: #ffffff; stroke-width: 0.8"/>
    <path d="M 181.844635 54.196805 
L 181.844635 206.554358 
L 107.906483 276.033495 
" style="fill: none; stroke: #ffffff; stroke-width: 0.8"/>
    <path d="M 226.166832 59.714261 
L 226.166832 212.071814 
L 152.22868 281.55095 
" style="fill: none; stroke: #ffffff; stroke-width: 0.8"/>
    <path d="M 270.48903 65.231716 
L 270.48903 217.589269 
L 196.550877 287.068406 
" style="fill: none; stroke: #ffffff; stroke-width: 0.8"/>
    <path d="M 314.811227 70.749172 
L 314.811227 223.106725 
L 240.873075 292.585861 
" style="fill: none; stroke: #ffffff; stroke-width: 0.8"/>
   </g>
   <g id="xtick_1">
    <g id="line2d_2">
     <path d="M 189.197756 170.632605 
" clip-path="url(#p449bc93d1e)" style="fill: none; stroke: #ffffff; stroke-width: 0.8; stroke-linecap: square"/>
    </g>
    <g id="line2d_3">
     <path d="M 64.175791 269.960206 
L 62.401275 271.627705 
" style="fill: none; stroke: #555555; stroke-width: 0.8; stroke-linecap: square"/>
    </g>
    <g id="text_2">
     <!-- $\mathdefault{−10}$ -->
     <g style="fill: #555555" transform="translate(46.122029 295.058899)scale(0.144 -0.144)">
      <defs>
       <path id="CMSY10-0" d="M 4218 1472 
C 4326 1472 4442 1472 4442 1600 
C 4442 1728 4326 1728 4218 1728 
L 755 1728 
C 646 1728 531 1728 531 1600 
C 531 1472 646 1472 755 1472 
L 4218 1472 
z
" transform="scale(0.015625)"/>
       <path id="CMR17-31" d="M 1702 4058 
C 1702 4192 1696 4192 1606 4192 
C 1357 3916 979 3827 621 3827 
C 602 3827 570 3827 563 3808 
C 557 3795 557 3782 557 3648 
C 755 3648 1088 3686 1344 3839 
L 1344 461 
C 1344 236 1331 160 781 160 
L 589 160 
L 589 0 
C 896 0 1216 0 1523 0 
C 1830 0 2150 0 2458 0 
L 2458 160 
L 2266 160 
C 1715 160 1702 230 1702 458 
L 1702 4058 
z
" transform="scale(0.015625)"/>
       <path id="CMR17-30" d="M 2688 2025 
C 2688 2416 2682 3080 2413 3591 
C 2176 4039 1798 4198 1466 4198 
C 1158 4198 768 4058 525 3597 
C 269 3118 243 2524 243 2025 
C 243 1661 250 1106 448 619 
C 723 -39 1216 -128 1466 -128 
C 1760 -128 2208 -7 2470 600 
C 2662 1042 2688 1559 2688 2025 
z
M 1466 -26 
C 1056 -26 813 325 723 812 
C 653 1188 653 1738 653 2096 
C 653 2588 653 2997 736 3387 
C 858 3929 1216 4096 1466 4096 
C 1728 4096 2067 3923 2189 3400 
C 2272 3036 2278 2607 2278 2096 
C 2278 1680 2278 1169 2202 792 
C 2067 95 1690 -26 1466 -26 
z
" transform="scale(0.015625)"/>
      </defs>
      <use xlink:href="#CMSY10-0" transform="scale(0.996264)"/>
      <use xlink:href="#CMR17-31" transform="translate(77.487468 0)scale(0.996264)"/>
      <use xlink:href="#CMR17-30" transform="translate(123.177945 0)scale(0.996264)"/>
     </g>
    </g>
   </g>
   <g id="xtick_2">
    <g id="line2d_4">
     <path d="M 189.197756 170.632605 
" clip-path="url(#p449bc93d1e)" style="fill: none; stroke: #ffffff; stroke-width: 0.8; stroke-linecap: square"/>
    </g>
    <g id="line2d_5">
     <path d="M 108.497988 275.477662 
L 106.723472 277.145161 
" style="fill: none; stroke: #555555; stroke-width: 0.8; stroke-linecap: square"/>
    </g>
    <g id="text_3">
     <!-- $\mathdefault{−5}$ -->
     <g style="fill: #555555" transform="translate(93.956013 300.576355)scale(0.144 -0.144)">
      <defs>
       <path id="CMR17-35" d="M 730 3692 
C 794 3666 1056 3584 1325 3584 
C 1920 3584 2246 3911 2432 4100 
C 2432 4157 2432 4192 2394 4192 
C 2387 4192 2374 4192 2323 4163 
C 2099 4058 1837 3973 1517 3973 
C 1325 3973 1037 3999 723 4139 
C 653 4171 640 4171 634 4171 
C 602 4171 595 4164 595 4037 
L 595 2203 
C 595 2089 595 2057 659 2057 
C 691 2057 704 2070 736 2114 
C 941 2401 1222 2522 1542 2522 
C 1766 2522 2246 2382 2246 1289 
C 2246 1085 2246 715 2054 421 
C 1894 159 1645 25 1370 25 
C 947 25 518 320 403 814 
C 429 807 480 795 506 795 
C 589 795 749 840 749 1038 
C 749 1210 627 1280 506 1280 
C 358 1280 262 1190 262 1011 
C 262 454 704 -128 1382 -128 
C 2042 -128 2669 440 2669 1264 
C 2669 2030 2170 2624 1549 2624 
C 1222 2624 947 2503 730 2274 
L 730 3692 
z
" transform="scale(0.015625)"/>
      </defs>
      <use xlink:href="#CMSY10-0" transform="scale(0.996264)"/>
      <use xlink:href="#CMR17-35" transform="translate(77.487468 0)scale(0.996264)"/>
     </g>
    </g>
   </g>
   <g id="xtick_3">
    <g id="line2d_6">
     <path d="M 189.197756 170.632605 
" clip-path="url(#p449bc93d1e)" style="fill: none; stroke: #ffffff; stroke-width: 0.8; stroke-linecap: square"/>
    </g>
    <g id="line2d_7">
     <path d="M 152.820185 280.995117 
L 151.04567 282.662616 
" style="fill: none; stroke: #555555; stroke-width: 0.8; stroke-linecap: square"/>
    </g>
    <g id="text_4">
     <!-- $\mathdefault{0}$ -->
     <g style="fill: #555555" transform="translate(143.857302 306.09381)scale(0.144 -0.144)">
      <use xlink:href="#CMR17-30" transform="scale(0.996264)"/>
     </g>
    </g>
   </g>
   <g id="xtick_4">
    <g id="line2d_8">
     <path d="M 189.197756 170.632605 
" clip-path="url(#p449bc93d1e)" style="fill: none; stroke: #ffffff; stroke-width: 0.8; stroke-linecap: square"/>
    </g>
    <g id="line2d_9">
     <path d="M 197.142382 286.512573 
L 195.367867 288.180072 
" style="fill: none; stroke: #555555; stroke-width: 0.8; stroke-linecap: square"/>
    </g>
    <g id="text_5">
     <!-- $\mathdefault{5}$ -->
     <g style="fill: #555555" transform="translate(188.179499 311.611265)scale(0.144 -0.144)">
      <use xlink:href="#CMR17-35" transform="scale(0.996264)"/>
     </g>
    </g>
   </g>
   <g id="xtick_5">
    <g id="line2d_10">
     <path d="M 189.197756 170.632605 
" clip-path="url(#p449bc93d1e)" style="fill: none; stroke: #ffffff; stroke-width: 0.8; stroke-linecap: square"/>
    </g>
    <g id="line2d_11">
     <path d="M 241.46458 292.030028 
L 239.690064 293.697527 
" style="fill: none; stroke: #555555; stroke-width: 0.8; stroke-linecap: square"/>
    </g>
    <g id="text_6">
     <!-- $\mathdefault{10}$ -->
     <g style="fill: #555555" transform="translate(228.98991 317.128721)scale(0.144 -0.144)">
      <use xlink:href="#CMR17-31" transform="scale(0.996264)"/>
      <use xlink:href="#CMR17-30" transform="translate(45.690477 0)scale(0.996264)"/>
     </g>
    </g>
   </g>
  </g>
  <g id="axis3d_2">
   <g id="line2d_12">
    <path d="M 50.656978 116.549228 
L 50.656978 268.906781 
" style="fill: none; stroke: #ffffff; stroke-linecap: square"/>
   </g>
   <g id="text_7">
    <!-- Y -->
    <g style="fill: #555555" transform="translate(7.2 202.030805)scale(0.12 -0.12)">
     <defs>
      <path id="CMSS17-59" d="M 3974 4416 
L 3424 4416 
L 2432 2877 
C 2355 2755 2138 2425 2035 2240 
L 1722 2743 
L 646 4416 
L 19 4416 
L 1734 1769 
L 1734 0 
L 2259 0 
L 2259 1763 
L 3974 4416 
z
" transform="scale(0.015625)"/>
     </defs>
     <use xlink:href="#CMSS17-59" transform="scale(0.996264)"/>
    </g>
   </g>
   <g id="Line3DCollection_2">
    <path d="M 50.656978 259.211301 
L 124.59513 189.732164 
L 327.738535 215.020502 
" style="fill: none; stroke: #ffffff; stroke-width: 0.8"/>
    <path d="M 50.656978 225.969653 
L 124.59513 156.490517 
L 327.738535 181.778854 
" style="fill: none; stroke: #ffffff; stroke-width: 0.8"/>
    <path d="M 50.656978 192.728005 
L 124.59513 123.248869 
L 327.738535 148.537206 
" style="fill: none; stroke: #ffffff; stroke-width: 0.8"/>
    <path d="M 50.656978 159.486357 
L 124.59513 90.007221 
L 327.738535 115.295558 
" style="fill: none; stroke: #ffffff; stroke-width: 0.8"/>
    <path d="M 50.656978 126.244709 
L 124.59513 56.765573 
L 327.738535 82.05391 
" style="fill: none; stroke: #ffffff; stroke-width: 0.8"/>
   </g>
   <g id="xtick_6">
    <g id="line2d_13">
     <path d="M 189.197756 170.632605 
" clip-path="url(#p449bc93d1e)" style="fill: none; stroke: #ffffff; stroke-width: 0.8; stroke-linecap: square"/>
    </g>
    <g id="line2d_14">
     <path d="M 51.248483 258.655468 
L 49.473967 260.322967 
" style="fill: none; stroke: #555555; stroke-width: 0.8; stroke-linecap: square"/>
    </g>
    <g id="text_8">
     <!-- $\mathdefault{−10}$ -->
     <g style="fill: #555555" transform="translate(19.843104 272.07837)scale(0.144 -0.144)">
      <use xlink:href="#CMSY10-0" transform="scale(0.996264)"/>
      <use xlink:href="#CMR17-31" transform="translate(77.487468 0)scale(0.996264)"/>
      <use xlink:href="#CMR17-30" transform="translate(123.177945 0)scale(0.996264)"/>
     </g>
    </g>
   </g>
   <g id="xtick_7">
    <g id="line2d_15">
     <path d="M 189.197756 170.632605 
" clip-path="url(#p449bc93d1e)" style="fill: none; stroke: #ffffff; stroke-width: 0.8; stroke-linecap: square"/>
    </g>
    <g id="line2d_16">
     <path d="M 51.248483 225.41382 
L 49.473967 227.081319 
" style="fill: none; stroke: #555555; stroke-width: 0.8; stroke-linecap: square"/>
    </g>
    <g id="text_9">
     <!-- $\mathdefault{−5}$ -->
     <g style="fill: #555555" transform="translate(23.354891 238.836722)scale(0.144 -0.144)">
      <use xlink:href="#CMSY10-0" transform="scale(0.996264)"/>
      <use xlink:href="#CMR17-35" transform="translate(77.487468 0)scale(0.996264)"/>
     </g>
    </g>
   </g>
   <g id="xtick_8">
    <g id="line2d_17">
     <path d="M 189.197756 170.632605 
" clip-path="url(#p449bc93d1e)" style="fill: none; stroke: #ffffff; stroke-width: 0.8; stroke-linecap: square"/>
    </g>
    <g id="line2d_18">
     <path d="M 51.248483 192.172172 
L 49.473967 193.839671 
" style="fill: none; stroke: #555555; stroke-width: 0.8; stroke-linecap: square"/>
    </g>
    <g id="text_10">
     <!-- $\mathdefault{0}$ -->
     <g style="fill: #555555" transform="translate(28.933983 205.595074)scale(0.144 -0.144)">
      <use xlink:href="#CMR17-30" transform="scale(0.996264)"/>
     </g>
    </g>
   </g>
   <g id="xtick_9">
    <g id="line2d_19">
     <path d="M 189.197756 170.632605 
" clip-path="url(#p449bc93d1e)" style="fill: none; stroke: #ffffff; stroke-width: 0.8; stroke-linecap: square"/>
    </g>
    <g id="line2d_20">
     <path d="M 51.248483 158.930524 
L 49.473967 160.598023 
" style="fill: none; stroke: #555555; stroke-width: 0.8; stroke-linecap: square"/>
    </g>
    <g id="text_11">
     <!-- $\mathdefault{5}$ -->
     <g style="fill: #555555" transform="translate(28.933983 172.353426)scale(0.144 -0.144)">
      <use xlink:href="#CMR17-35" transform="scale(0.996264)"/>
     </g>
    </g>
   </g>
   <g id="xtick_10">
    <g id="line2d_21">
     <path d="M 189.197756 170.632605 
" clip-path="url(#p449bc93d1e)" style="fill: none; stroke: #ffffff; stroke-width: 0.8; stroke-linecap: square"/>
    </g>
    <g id="line2d_22">
     <path d="M 51.248483 125.688876 
L 49.473967 127.356375 
" style="fill: none; stroke: #555555; stroke-width: 0.8; stroke-linecap: square"/>
    </g>
    <g id="text_12">
     <!-- $\mathdefault{10}$ -->
     <g style="fill: #555555" transform="translate(25.422196 139.111778)scale(0.144 -0.144)">
      <use xlink:href="#CMR17-31" transform="scale(0.996264)"/>
      <use xlink:href="#CMR17-30" transform="translate(45.690477 0)scale(0.996264)"/>
     </g>
    </g>
   </g>
  </g>
  <g id="axis3d_3">
   <g id="line2d_23">
    <path d="M 327.738535 224.715983 
L 253.800382 294.195119 
" style="fill: none; stroke: #ffffff; stroke-linecap: square"/>
   </g>
   <g id="text_13">
    <!-- Z -->
    <g style="fill: #555555" transform="translate(316.217886 287.826497)scale(0.12 -0.12)">
     <defs>
      <path id="CMSS17-5a" d="M 3341 4155 
L 3341 4416 
L 416 4416 
L 416 4015 
L 1613 4015 
C 1690 4015 1766 4015 1843 4015 
L 2662 4015 
L 333 274 
L 333 0 
L 3373 0 
L 3373 414 
L 2803 414 
C 2272 414 1734 414 1203 414 
L 1011 414 
L 3341 4155 
z
" transform="scale(0.015625)"/>
     </defs>
     <use xlink:href="#CMSS17-5a" transform="scale(0.996264)"/>
    </g>
   </g>
   <g id="Line3DCollection_3">
    <path d="M 323.033379 229.137382 
L 119.889975 203.849045 
L 119.889975 51.491491 
" style="fill: none; stroke: #ffffff; stroke-width: 0.8"/>
    <path d="M 306.901419 244.296466 
L 103.758015 219.008129 
L 103.758015 66.650576 
" style="fill: none; stroke: #ffffff; stroke-width: 0.8"/>
    <path d="M 290.769458 259.455551 
L 87.626054 234.167213 
L 87.626054 81.80966 
" style="fill: none; stroke: #ffffff; stroke-width: 0.8"/>
    <path d="M 274.637498 274.614635 
L 71.494093 249.326298 
L 71.494093 96.968744 
" style="fill: none; stroke: #ffffff; stroke-width: 0.8"/>
    <path d="M 258.505537 289.773719 
L 55.362133 264.485382 
L 55.362133 112.127829 
" style="fill: none; stroke: #ffffff; stroke-width: 0.8"/>
   </g>
   <g id="xtick_11">
    <g id="line2d_24">
     <path d="M 189.197756 170.632605 
" clip-path="url(#p449bc93d1e)" style="fill: none; stroke: #ffffff; stroke-width: 0.8; stroke-linecap: square"/>
    </g>
    <g id="line2d_25">
     <path d="M 321.408232 228.935076 
L 326.283674 229.541996 
" style="fill: none; stroke: #555555; stroke-width: 0.8; stroke-linecap: square"/>
    </g>
    <g id="text_14">
     <!-- $\mathdefault{−10}$ -->
     <g style="fill: #555555" transform="translate(323.782331 250.775798)scale(0.144 -0.144)">
      <use xlink:href="#CMSY10-0" transform="scale(0.996264)"/>
      <use xlink:href="#CMR17-31" transform="translate(77.487468 0)scale(0.996264)"/>
      <use xlink:href="#CMR17-30" transform="translate(123.177945 0)scale(0.996264)"/>
     </g>
    </g>
   </g>
   <g id="xtick_12">
    <g id="line2d_26">
     <path d="M 189.197756 170.632605 
" clip-path="url(#p449bc93d1e)" style="fill: none; stroke: #ffffff; stroke-width: 0.8; stroke-linecap: square"/>
    </g>
    <g id="line2d_27">
     <path d="M 305.276272 244.09416 
L 310.151713 244.70108 
" style="fill: none; stroke: #555555; stroke-width: 0.8; stroke-linecap: square"/>
    </g>
    <g id="text_15">
     <!-- $\mathdefault{−5}$ -->
     <g style="fill: #555555" transform="translate(311.162157 265.934882)scale(0.144 -0.144)">
      <use xlink:href="#CMSY10-0" transform="scale(0.996264)"/>
      <use xlink:href="#CMR17-35" transform="translate(77.487468 0)scale(0.996264)"/>
     </g>
    </g>
   </g>
   <g id="xtick_13">
    <g id="line2d_28">
     <path d="M 189.197756 170.632605 
" clip-path="url(#p449bc93d1e)" style="fill: none; stroke: #ffffff; stroke-width: 0.8; stroke-linecap: square"/>
    </g>
    <g id="line2d_29">
     <path d="M 289.144311 259.253244 
L 294.019753 259.860164 
" style="fill: none; stroke: #555555; stroke-width: 0.8; stroke-linecap: square"/>
    </g>
    <g id="text_16">
     <!-- $\mathdefault{0}$ -->
     <g style="fill: #555555" transform="translate(300.609289 281.093967)scale(0.144 -0.144)">
      <use xlink:href="#CMR17-30" transform="scale(0.996264)"/>
     </g>
    </g>
   </g>
   <g id="xtick_14">
    <g id="line2d_30">
     <path d="M 189.197756 170.632605 
" clip-path="url(#p449bc93d1e)" style="fill: none; stroke: #ffffff; stroke-width: 0.8; stroke-linecap: square"/>
    </g>
    <g id="line2d_31">
     <path d="M 273.012351 274.412328 
L 277.887792 275.019248 
" style="fill: none; stroke: #555555; stroke-width: 0.8; stroke-linecap: square"/>
    </g>
    <g id="text_17">
     <!-- $\mathdefault{5}$ -->
     <g style="fill: #555555" transform="translate(284.477328 296.253051)scale(0.144 -0.144)">
      <use xlink:href="#CMR17-35" transform="scale(0.996264)"/>
     </g>
    </g>
   </g>
   <g id="xtick_15">
    <g id="line2d_32">
     <path d="M 189.197756 170.632605 
" clip-path="url(#p449bc93d1e)" style="fill: none; stroke: #ffffff; stroke-width: 0.8; stroke-linecap: square"/>
    </g>
    <g id="line2d_33">
     <path d="M 256.88039 289.571413 
L 261.755832 290.178333 
" style="fill: none; stroke: #555555; stroke-width: 0.8; stroke-linecap: square"/>
    </g>
    <g id="text_18">
     <!-- $\mathdefault{10}$ -->
     <g style="fill: #555555" transform="translate(264.833581 311.412135)scale(0.144 -0.144)">
      <use xlink:href="#CMR17-31" transform="scale(0.996264)"/>
      <use xlink:href="#CMR17-30" transform="translate(45.690477 0)scale(0.996264)"/>
     </g>
    </g>
   </g>
  </g>
  <g id="axes_1">
   <g id="line2d_34">
    <path d="M 132.817283 195.762822 
L 310.106072 217.832644 
" clip-path="url(#p449bc93d1e)" style="fill: none; stroke: #777777; stroke-width: 1.5; stroke-linecap: square"/>
   </g>
   <g id="line2d_35">
    <path d="M 310.106072 217.832644 
L 249.651914 127.749329 
" clip-path="url(#p449bc93d1e)" style="fill: none; stroke: #777777; stroke-width: 1.5; stroke-linecap: square"/>
   </g>
   <g id="line2d_36">
    <path d="M 249.651914 127.749329 
L 132.817283 62.79623 
" clip-path="url(#p449bc93d1e)" style="fill: none; stroke: #777777; stroke-width: 1.5; stroke-linecap: square"/>
   </g>
   <g id="line2d_37">
    <path d="M 132.817283 62.79623 
L 132.817283 195.762822 
" clip-path="url(#p449bc93d1e)" style="fill: none; stroke: #777777; stroke-width: 1.5; stroke-linecap: square"/>
   </g>
   <g id="line2d_38">
    <path d="M 68.28944 256.399159 
L 245.57823 278.468981 
" clip-path="url(#p449bc93d1e)" style="fill: none; stroke: #777777; stroke-width: 1.5; stroke-linecap: square"/>
   </g>
   <g id="line2d_39">
    <path d="M 245.57823 278.468981 
L 217.387993 158.067497 
" clip-path="url(#p449bc93d1e)" style="fill: none; stroke: #777777; stroke-width: 1.5; stroke-linecap: square"/>
   </g>
   <g id="line2d_40">
    <path d="M 217.387993 158.067497 
L 68.28944 123.432567 
" clip-path="url(#p449bc93d1e)" style="fill: none; stroke: #777777; stroke-width: 1.5; stroke-linecap: square"/>
   </g>
   <g id="line2d_41">
    <path d="M 68.28944 123.432567 
L 68.28944 256.399159 
" clip-path="url(#p449bc93d1e)" style="fill: none; stroke: #777777; stroke-width: 1.5; stroke-linecap: square"/>
   </g>
   <g id="line2d_42">
    <path d="M 132.817283 195.762822 
L 68.28944 256.399159 
" clip-path="url(#p449bc93d1e)" style="fill: none; stroke: #777777; stroke-width: 1.5; stroke-linecap: square"/>
   </g>
   <g id="line2d_43">
    <path d="M 310.106072 217.832644 
L 245.57823 278.468981 
" clip-path="url(#p449bc93d1e)" style="fill: none; stroke: #777777; stroke-width: 1.5; stroke-linecap: square"/>
   </g>
   <g id="line2d_44">
    <path d="M 249.651914 127.749329 
L 217.387993 158.067497 
" clip-path="url(#p449bc93d1e)" style="fill: none; stroke: #777777; stroke-width: 1.5; stroke-linecap: square"/>
   </g>
   <g id="line2d_45">
    <path d="M 132.817283 62.79623 
L 68.28944 123.432567 
" clip-path="url(#p449bc93d1e)" style="fill: none; stroke: #777777; stroke-width: 1.5; stroke-linecap: square"/>
   </g>
   <g id="line2d_46">
    <defs>
     <path id="m20297c1242" d="M 0 3.75 
C 0.994512 3.75 1.948425 3.354876 2.65165 2.65165 
C 3.354876 1.948425 3.75 0.994512 3.75 0 
C 3.75 -0.994512 3.354876 -1.948425 2.65165 -2.65165 
C 1.948425 -3.354876 0.994512 -3.75 0 -3.75 
C -0.994512 -3.75 -1.948425 -3.354876 -2.65165 -2.65165 
C -3.354876 -1.948425 -3.75 -0.994512 -3.75 0 
C -3.75 0.994512 -3.354876 1.948425 -2.65165 2.65165 
C -1.948425 3.354876 -0.994512 3.75 0 3.75 
z
" style="stroke: #e24a33"/>
    </defs>
    <g clip-path="url(#p449bc93d1e)">
     <use xlink:href="#m20297c1242" x="132.817283" y="195.762822" style="fill: #e24a33; stroke: #e24a33"/>
    </g>
   </g>
   <g id="line2d_47">
    <g clip-path="url(#p449bc93d1e)">
     <use xlink:href="#m20297c1242" x="310.106072" y="217.832644" style="fill: #e24a33; stroke: #e24a33"/>
    </g>
   </g>
   <g id="line2d_48">
    <g clip-path="url(#p449bc93d1e)">
     <use xlink:href="#m20297c1242" x="249.651914" y="127.749329" style="fill: #e24a33; stroke: #e24a33"/>
    </g>
   </g>
   <g id="line2d_49">
    <g clip-path="url(#p449bc93d1e)">
     <use xlink:href="#m20297c1242" x="132.817283" y="62.79623" style="fill: #e24a33; stroke: #e24a33"/>
    </g>
   </g>
   <g id="line2d_50">
    <g clip-path="url(#p449bc93d1e)">
     <use xlink:href="#m20297c1242" x="68.28944" y="256.399159" style="fill: #e24a33; stroke: #e24a33"/>
    </g>
   </g>
   <g id="line2d_51">
    <g clip-path="url(#p449bc93d1e)">
     <use xlink:href="#m20297c1242" x="245.57823" y="278.468981" style="fill: #e24a33; stroke: #e24a33"/>
    </g>
   </g>
   <g id="line2d_52">
    <g clip-path="url(#p449bc93d1e)">
     <use xlink:href="#m20297c1242" x="217.387993" y="158.067497" style="fill: #e24a33; stroke: #e24a33"/>
    </g>
   </g>
   <g id="line2d_53">
    <g clip-path="url(#p449bc93d1e)">
     <use xlink:href="#m20297c1242" x="68.28944" y="123.432567" style="fill: #e24a33; stroke: #e24a33"/>
    </g>
   </g>
   <g id="line2d_54">
    <g clip-path="url(#p449bc93d1e)">
     <use xlink:href="#m20297c1242" x="189.197756" y="170.632605" style="fill: #e24a33; stroke: #e24a33"/>
    </g>
   </g>
   <g id="text_19">
    <!-- $\vec{v}_0$ -->
    <g transform="translate(132.817283 179.141998)scale(0.2 -0.2)">
     <defs>
      <path id="CMMI12-7e" d="M 3424 3835 
C 3347 3764 3110 3540 3110 3451 
C 3110 3387 3168 3329 3232 3329 
C 3290 3329 3315 3368 3360 3432 
C 3514 3624 3686 3745 3834 3828 
C 3898 3867 3942 3886 3942 3956 
C 3942 4014 3891 4046 3853 4078 
C 3674 4200 3629 4372 3610 4449 
C 3590 4500 3571 4577 3482 4577 
C 3443 4577 3366 4552 3366 4456 
C 3366 4398 3405 4244 3526 4072 
L 1376 4072 
C 1267 4072 1158 4072 1158 3950 
C 1158 3835 1274 3835 1376 3835 
L 3424 3835 
z
" transform="scale(0.015625)"/>
      <path id="CMMI12-76" d="M 2925 2389 
C 2925 2791 2720 2816 2669 2816 
C 2515 2816 2374 2663 2374 2535 
C 2374 2459 2419 2414 2445 2389 
C 2509 2331 2675 2159 2675 1827 
C 2675 1558 2291 64 1523 64 
C 1133 64 1056 390 1056 626 
C 1056 945 1203 1392 1376 1852 
C 1478 2114 1504 2178 1504 2305 
C 1504 2574 1312 2816 998 2816 
C 410 2816 173 1890 173 1839 
C 173 1814 198 1782 243 1782 
C 301 1782 307 1807 333 1897 
C 486 2446 736 2689 979 2689 
C 1037 2689 1146 2689 1146 2478 
C 1146 2312 1075 2127 979 1884 
C 672 1067 672 869 672 715 
C 672 575 691 313 890 134 
C 1120 -64 1440 -64 1498 -64 
C 2560 -64 2925 2024 2925 2389 
z
" transform="scale(0.015625)"/>
     </defs>
     <use xlink:href="#CMMI12-7e" transform="scale(0.996264)"/>
     <use xlink:href="#CMMI12-76" transform="translate(3.972363 0)scale(0.996264)"/>
     <use xlink:href="#CMR17-30" transform="translate(51.132943 -14.943915)scale(0.697382)"/>
    </g>
   </g>
   <g id="text_20">
    <!-- $\vec{v}_1$ -->
    <g transform="translate(310.106072 201.21182)scale(0.2 -0.2)">
     <use xlink:href="#CMMI12-7e" transform="scale(0.996264)"/>
     <use xlink:href="#CMMI12-76" transform="translate(3.972363 0)scale(0.996264)"/>
     <use xlink:href="#CMR17-31" transform="translate(51.132943 -14.943915)scale(0.697382)"/>
    </g>
   </g>
   <g id="text_21">
    <!-- $\vec{v}_2$ -->
    <g transform="translate(249.651914 111.128505)scale(0.2 -0.2)">
     <defs>
      <path id="CMR17-32" d="M 2669 989 
L 2554 989 
C 2490 536 2438 459 2413 420 
C 2381 369 1920 369 1830 369 
L 602 369 
C 832 619 1280 1072 1824 1597 
C 2214 1967 2669 2402 2669 3035 
C 2669 3790 2067 4224 1395 4224 
C 691 4224 262 3604 262 3030 
C 262 2780 448 2748 525 2748 
C 589 2748 781 2787 781 3010 
C 781 3207 614 3264 525 3264 
C 486 3264 448 3258 422 3245 
C 544 3790 915 4058 1306 4058 
C 1862 4058 2227 3617 2227 3035 
C 2227 2479 1901 2000 1536 1584 
L 262 146 
L 262 0 
L 2515 0 
L 2669 989 
z
" transform="scale(0.015625)"/>
     </defs>
     <use xlink:href="#CMMI12-7e" transform="scale(0.996264)"/>
     <use xlink:href="#CMMI12-76" transform="translate(3.972363 0)scale(0.996264)"/>
     <use xlink:href="#CMR17-32" transform="translate(51.132943 -14.943915)scale(0.697382)"/>
    </g>
   </g>
   <g id="text_22">
    <!-- $\vec{v}_3$ -->
    <g transform="translate(132.817283 46.175406)scale(0.2 -0.2)">
     <defs>
      <path id="CMR17-33" d="M 1414 2157 
C 1984 2157 2234 1662 2234 1090 
C 2234 320 1824 25 1453 25 
C 1114 25 563 194 390 693 
C 422 680 454 680 486 680 
C 640 680 755 782 755 948 
C 755 1133 614 1216 486 1216 
C 378 1216 211 1165 211 926 
C 211 335 787 -128 1466 -128 
C 2176 -128 2720 430 2720 1085 
C 2720 1707 2208 2157 1600 2227 
C 2086 2328 2554 2756 2554 3329 
C 2554 3820 2048 4179 1472 4179 
C 890 4179 378 3829 378 3329 
C 378 3110 544 3072 627 3072 
C 762 3072 877 3155 877 3321 
C 877 3486 762 3569 627 3569 
C 602 3569 570 3569 544 3557 
C 730 3959 1235 4032 1459 4032 
C 1683 4032 2106 3925 2106 3320 
C 2106 3143 2080 2828 1862 2550 
C 1670 2304 1453 2304 1242 2284 
C 1210 2284 1062 2269 1037 2269 
C 992 2263 966 2257 966 2208 
C 966 2163 973 2157 1101 2157 
L 1414 2157 
z
" transform="scale(0.015625)"/>
     </defs>
     <use xlink:href="#CMMI12-7e" transform="scale(0.996264)"/>
     <use xlink:href="#CMMI12-76" transform="translate(3.972363 0)scale(0.996264)"/>
     <use xlink:href="#CMR17-33" transform="translate(51.132943 -14.943915)scale(0.697382)"/>
    </g>
   </g>
   <g id="text_23">
    <!-- $\vec{v}_4$ -->
    <g transform="translate(68.28944 239.778335)scale(0.2 -0.2)">
     <defs>
      <path id="CMR17-34" d="M 2150 4122 
C 2150 4256 2144 4256 2029 4256 
L 128 1254 
L 128 1088 
L 1779 1088 
L 1779 457 
C 1779 224 1766 160 1318 160 
L 1197 160 
L 1197 0 
C 1402 0 1747 0 1965 0 
C 2182 0 2528 0 2733 0 
L 2733 160 
L 2611 160 
C 2163 160 2150 224 2150 457 
L 2150 1088 
L 2803 1088 
L 2803 1254 
L 2150 1254 
L 2150 4122 
z
M 1798 3703 
L 1798 1254 
L 256 1254 
L 1798 3703 
z
" transform="scale(0.015625)"/>
     </defs>
     <use xlink:href="#CMMI12-7e" transform="scale(0.996264)"/>
     <use xlink:href="#CMMI12-76" transform="translate(3.972363 0)scale(0.996264)"/>
     <use xlink:href="#CMR17-34" transform="translate(51.132943 -14.943915)scale(0.697382)"/>
    </g>
   </g>
   <g id="text_24">
    <!-- $\vec{v}_5$ -->
    <g transform="translate(245.57823 261.848157)scale(0.2 -0.2)">
     <use xlink:href="#CMMI12-7e" transform="scale(0.996264)"/>
     <use xlink:href="#CMMI12-76" transform="translate(3.972363 0)scale(0.996264)"/>
     <use xlink:href="#CMR17-35" transform="translate(51.132943 -14.943915)scale(0.697382)"/>
    </g>
   </g>
   <g id="text_25">
    <!-- $\vec{v}_6$ -->
    <g transform="translate(217.387993 141.446673)scale(0.2 -0.2)">
     <defs>
      <path id="CMR17-36" d="M 678 2176 
C 678 3690 1395 4032 1811 4032 
C 1946 4032 2272 4009 2400 3776 
C 2298 3776 2106 3776 2106 3553 
C 2106 3381 2246 3323 2336 3323 
C 2394 3323 2566 3348 2566 3560 
C 2566 3954 2246 4179 1805 4179 
C 1043 4179 243 3390 243 1984 
C 243 253 966 -128 1478 -128 
C 2099 -128 2688 427 2688 1283 
C 2688 2081 2170 2662 1517 2662 
C 1126 2662 838 2407 678 1960 
L 678 2176 
z
M 1478 25 
C 691 25 691 1200 691 1436 
C 691 1896 909 2560 1504 2560 
C 1613 2560 1926 2560 2138 2120 
C 2253 1870 2253 1609 2253 1289 
C 2253 944 2253 690 2118 434 
C 1978 171 1773 25 1478 25 
z
" transform="scale(0.015625)"/>
     </defs>
     <use xlink:href="#CMMI12-7e" transform="scale(0.996264)"/>
     <use xlink:href="#CMMI12-76" transform="translate(3.972363 0)scale(0.996264)"/>
     <use xlink:href="#CMR17-36" transform="translate(51.132943 -14.943915)scale(0.697382)"/>
    </g>
   </g>
   <g id="text_26">
    <!-- $\vec{v}_7$ -->
    <g transform="translate(68.28944 106.811743)scale(0.2 -0.2)">
     <defs>
      <path id="CMR17-37" d="M 2886 3941 
L 2886 4081 
L 1382 4081 
C 634 4081 621 4165 595 4288 
L 480 4288 
L 294 3094 
L 410 3094 
C 429 3215 474 3540 550 3661 
C 589 3712 1062 3712 1171 3712 
L 2579 3712 
L 1869 2661 
C 1395 1954 1069 999 1069 165 
C 1069 89 1069 -128 1299 -128 
C 1530 -128 1530 89 1530 171 
L 1530 465 
C 1530 1508 1709 2196 2003 2636 
L 2886 3941 
z
" transform="scale(0.015625)"/>
     </defs>
     <use xlink:href="#CMMI12-7e" transform="scale(0.996264)"/>
     <use xlink:href="#CMMI12-76" transform="translate(3.972363 0)scale(0.996264)"/>
     <use xlink:href="#CMR17-37" transform="translate(51.132943 -14.943915)scale(0.697382)"/>
    </g>
   </g>
   <g id="text_27">
    <!-- $\vec{0}$ -->
    <g transform="translate(189.197756 193.901759)scale(0.2 -0.2)">
     <use xlink:href="#CMMI12-7e" transform="translate(0 21.325547)scale(0.996264)"/>
     <use xlink:href="#CMR17-30" transform="translate(9.204436 0)scale(0.996264)"/>
    </g>
   </g>
  </g>
 </g>
 <defs>
  <clipPath id="p449bc93d1e">
   <rect x="16.685562" y="7.2" width="335.9448" height="335.9448"/>
  </clipPath>
 </defs>
</svg>
