<svg id="Layer_1" data-name="Layer 1" xmlns="http://www.w3.org/2000/svg" viewBox="75 122 930 150"><defs><style>.cls-1{fill:#0f2a4e;}.cls-2{fill:#a8cede;}.cls-3{fill:#76abc9;}.cls-4{fill:#5187b2;}</style></defs><path class="cls-1" d="M116.83,201.23l51.26-42.91a3.71,3.71,0,0,1,6,2.18L186,226.25a3.7,3.7,0,0,1-4.9,4.14l-63.15-22.84A3.7,3.7,0,0,1,116.83,201.23Z"/><path class="cls-2" d="M105.19,143l2.48,55.39a4.25,4.25,0,0,0,7,3.07L166.5,158.2a4.25,4.25,0,0,0-1.79-7.41l-54.36-12.15A4.24,4.24,0,0,0,105.19,143Z"/><path class="cls-2" d="M81.44,210l22.73-3.76a2.41,2.41,0,0,0,2-2.47L104,149.21a2.4,2.4,0,0,0-4.67-.7l-20.55,58.3A2.4,2.4,0,0,0,81.44,210Z"/><path class="cls-2" d="M117.45,134.11l61.73-10.44a2.4,2.4,0,0,1,2.66,3.17l-7.91,22.39a2.39,2.39,0,0,1-2.78,1.54l-53.82-11.94A2.41,2.41,0,0,1,117.45,134.11Z"/><path class="cls-3" d="M224.64,176.9,177,152a2.42,2.42,0,0,1-1.16-2.93l7.92-22.41a2.39,2.39,0,0,1,4.09-.75l39.76,47.29A2.4,2.4,0,0,1,224.64,176.9Z"/><path class="cls-4" d="M175.24,160.18l11.88,65.26a4.21,4.21,0,0,0,7.3,2l35.75-40.6a4.22,4.22,0,0,0-1.23-6.52l-47.62-24.66A4.21,4.21,0,0,0,175.24,160.18Z"/><path class="cls-4" d="M191.35,236.17l15,17.74a2.4,2.4,0,0,0,4.09-.75l20.7-58.4a2.4,2.4,0,0,0-4.06-2.39L191.38,233A2.4,2.4,0,0,0,191.35,236.17Z"/><path class="cls-3" d="M79.21,215.79l39.52,46.9a2.4,2.4,0,0,0,4.11-2.3l-16.71-50.66a2.41,2.41,0,0,0-2.67-1.61l-22.81,3.75A2.4,2.4,0,0,0,79.21,215.79Z"/><path class="cls-4" d="M108.73,213.48l16.88,51.37a4.27,4.27,0,0,0,6.27,2.32l46.81-28.36a4.27,4.27,0,0,0-.77-7.67l-63.68-23A4.28,4.28,0,0,0,108.73,213.48Z"/><path class="cls-4" d="M139.1,264.17l46.44-28a2.38,2.38,0,0,1,3.06.5l14.92,17.47a2.4,2.4,0,0,1-1.42,3.93L140.75,268.6A2.41,2.41,0,0,1,139.1,264.17Z"/><path class="cls-2" d="M299.13,145a7.57,7.57,0,0,1,15.13,0v24.47a28.16,28.16,0,0,1,17.46-6c16.36,0,29.28,12.37,29.28,32v33a7.66,7.66,0,0,1-7.56,7.7,7.57,7.57,0,0,1-7.56-7.7V194.86c0-11.55-7-17.46-15.81-17.46s-15.81,5.91-15.81,17.46v33.55a7.57,7.57,0,1,1-15.13,0Z"/><path class="cls-2" d="M375.57,199.81c0-20.35,15.54-36.43,36.44-36.43s36.43,16.08,36.43,36.43S433.05,236.25,412,236.25,375.57,220.16,375.57,199.81Zm57.61,0c0-12.37-9.07-22.41-21.17-22.41s-21.18,10-21.18,22.41,9.08,22.41,21.18,22.41S433.18,212.05,433.18,199.81Z"/><path class="cls-2" d="M460.26,199.81c0-20.35,15.54-36.43,36.44-36.43s36.43,16.08,36.43,36.43-15.4,36.44-36.43,36.44S460.26,220.16,460.26,199.81Zm57.61,0c0-12.37-9.07-22.41-21.17-22.41s-21.18,10-21.18,22.41,9.08,22.41,21.18,22.41S517.87,212.05,517.87,199.81Z"/><path class="cls-2" d="M547.84,191c0-17.18,11.55-27.63,26.12-27.63,8.39,0,15.4,2.88,19.94,10.17,4.26-7.29,11.68-10.17,19.8-10.17,14.57,0,26.12,10.45,26.12,27.63v37.4a7.56,7.56,0,1,1-15.12,0V190.87c0-9.07-5.09-13.47-11.69-13.47s-11.55,4.4-11.55,13.47v37.54a7.66,7.66,0,0,1-7.56,7.7,7.57,7.57,0,0,1-7.57-7.7V190.87c0-9.07-5.22-13.47-11.68-13.47S563,181.8,563,190.87v37.54a7.56,7.56,0,1,1-15.12,0Z"/><path class="cls-2" d="M712.13,227.72a34.17,34.17,0,0,1-22.82,8.53c-19.8,0-34.79-16.09-34.79-36.44s15-36.43,34.79-36.43A33.6,33.6,0,0,1,712.13,172V145a7.56,7.56,0,1,1,15.12,0v83.46a7.56,7.56,0,1,1-15.12,0Zm0-27.91v-1c-.55-12.24-9.62-21.45-21.17-21.45-11.83,0-21.18,9.62-21.18,22.41s9.35,22.41,21.18,22.41S712.13,212.6,712.13,199.81Z"/><path class="cls-4" d="M755.76,228.14v.68a7.56,7.56,0,1,1-15.12,0V145.37a7.56,7.56,0,1,1,15.12,0v27.08a33.62,33.62,0,0,1,22.83-8.66c19.8,0,34.78,16.09,34.78,36.44s-15,36.43-34.78,36.43A34.19,34.19,0,0,1,755.76,228.14Zm42.35-27.91c0-12.79-9.35-22.42-21.17-22.42-11.55,0-20.76,9.22-21.18,21.45v1c0,12.78,9.35,22.41,21.18,22.41S798.11,213,798.11,200.23Z"/><path class="cls-4" d="M828.08,145.37a7.56,7.56,0,1,1,15.12,0v83.45a7.56,7.56,0,1,1-15.12,0Z"/><path class="cls-4" d="M860.8,171.49a7.56,7.56,0,1,1,15.12,0V205c0,11.55,7,17.6,15.81,17.6s15.82-6,15.82-17.6V171.49a7.45,7.45,0,0,1,7.56-7.56,7.54,7.54,0,0,1,7.56,7.56v33c0,19.66-13.61,32.17-30.94,32.17s-30.93-12.51-30.93-32.17Z"/><path class="cls-4" d="M937.24,200.23c0-20.35,15.53-36.44,36.43-36.44,10.73,0,19.11,4.26,23.79,8.53a7.68,7.68,0,0,1,.55,11.27l-21.18,25.16a6.34,6.34,0,0,1-5.22,2.47,6.79,6.79,0,0,1-7.15-6.87,6.2,6.2,0,0,1,1.65-4.54l16.64-19.52a17,17,0,0,0-9.08-2.48c-11.82,0-21.17,9.9-21.17,22.42s9.21,22.41,21.17,22.41a19.73,19.73,0,0,0,14.58-6.19c2.2-1.79,3.71-3.44,6.6-3.44a7.12,7.12,0,0,1,7.42,7.29,8,8,0,0,1-2.2,4.95c-5.22,6.32-14.71,11.41-26.4,11.41C952.91,236.66,937.24,220.57,937.24,200.23Z"/></svg>
