<?xml version="1.0" encoding="utf-8"?>
<!-- Generator: Adobe Illustrator 26.3.1, SVG Export Plug-In . SVG Version: 6.00 Build 0)  -->
<svg version="1.1" id="Layer_1" xmlns="http://www.w3.org/2000/svg" xmlns:xlink="http://www.w3.org/1999/xlink" x="0px" y="0px"
	 viewBox="0 0 597.7 567.6" style="enable-background:new 0 0 597.7 567.6;" xml:space="preserve">
<style type="text/css">
	.st0{fill:#0F2A4E;}
	.st1{fill:#A8CEDE;}
	.st2{fill:#76ABC9;}
	.st3{fill:#5187B2;}
</style>
<path class="st0" d="M149.5,303.7l200.7-168c6.1-5.1,15.3-4.3,20.4,1.8c1.6,1.9,2.7,4.2,3.1,6.7l46.5,257.4
	c1.4,7.9-3.8,15.4-11.7,16.8c-2.5,0.5-5.1,0.2-7.5-0.6l-247.2-89.4c-7.5-2.7-11.4-11-8.7-18.6C146,307.5,147.5,305.3,149.5,303.7z"
	/>
<path class="st1" d="M103.9,75.7l9.7,216.8c0.4,9.2,8.2,16.3,17.4,15.8c3.6-0.2,7.1-1.5,9.9-3.8l203-169.3c7.1-5.9,8-16.3,2.2-23.4
	c-2.3-2.8-5.6-4.8-9.2-5.6L124.1,58.7c-9-2-17.8,3.6-19.8,12.6C104,72.7,103.8,74.2,103.9,75.7z"/>
<path class="st1" d="M10.9,338l89-14.7c4.7-0.8,8.1-4.9,7.9-9.7l-8.5-213.5C98.8,89.8,84.4,87.6,81,97.4L0.6,325.6
	c-1.8,4.9,0.8,10.3,5.7,12C7.7,338.1,9.3,338.3,10.9,338z"/>
<path class="st1" d="M151.9,41L393.5,0.1c5.1-0.9,10,2.6,10.8,7.7c0.3,1.6,0.1,3.2-0.4,4.7l-31,87.6c-1.6,4.5-6.3,7-10.9,6
	L151.4,59.4C141.4,57.2,141.7,42.7,151.9,41z"/>
<path class="st2" d="M571.5,208.5l-186.6-97.3c-4.1-2.2-6.1-7-4.5-11.4l31-87.7c1.7-4.9,7.1-7.4,12-5.7c1.6,0.6,3,1.5,4,2.8
	L583,194.1C589.7,202,580.6,213.3,571.5,208.5z"/>
<path class="st3" d="M378.1,143l46.5,255.5c1.6,9,10.2,14.9,19.2,13.3c3.6-0.7,7-2.5,9.4-5.3l139.9-158.9c6-6.8,5.4-17.2-1.5-23.3
	c-1-0.9-2.1-1.7-3.3-2.3l-186.4-96.5c-8.1-4.2-18-1-22.2,7.1C378.1,135.8,377.5,139.4,378.1,143z"/>
<path class="st3" d="M441.2,440.5l58.9,69.4c3.3,4,9.3,4.4,13.2,1.1c1.3-1.1,2.2-2.5,2.8-4l81-228.6c3.5-9.7-9.1-17.1-15.9-9.3
	L441.3,428.2C438.2,431.7,438.2,436.9,441.2,440.5z"/>
<path class="st2" d="M2.2,360.7l154.7,183.6c6.7,7.9,19.4,0.8,16.1-9L107.6,337c-1.5-4.4-5.9-7.1-10.5-6.3L7.9,345.4
	c-5.1,0.8-8.6,5.7-7.8,10.8C0.4,357.8,1.1,359.4,2.2,360.7z"/>
<path class="st3" d="M117.8,351.7l66.1,201.1c2.9,8.8,12.3,13.6,21.1,10.7c1.2-0.4,2.4-0.9,3.4-1.6l183.2-111
	c7.9-4.8,10.4-15.1,5.6-23c-2-3.2-5-5.7-8.6-7l-249.3-90.1c-8.7-3.1-18.3,1.4-21.4,10C116.7,344.3,116.6,348.1,117.8,351.7z"/>
<path class="st3" d="M236.7,550.1l181.8-109.6c3.9-2.4,9-1.6,12,1.9l58.4,68.4c3.4,3.9,2.9,9.9-1,13.3c-1.3,1.1-2.8,1.8-4.5,2.1
	l-240.2,41.2C232.9,569.2,227.8,555.5,236.7,550.1z"/>
</svg>
