<svg id="Layer_1" data-name="Layer 1" xmlns="http://www.w3.org/2000/svg" viewBox="170 165 790 750"><defs><style>.cls-1{fill:#0f2a4e;}.cls-2{fill:#a8cede;}.cls-3{fill:#76abc9;}.cls-4{fill:#5187b2;}</style></defs><path class="cls-1" d="M407.56,477.7,608.22,309.75a14.5,14.5,0,0,1,23.56,8.54l46.53,257.37a14.49,14.49,0,0,1-19.19,16.21L411.93,502.44A14.49,14.49,0,0,1,407.56,477.7Z"/><path class="cls-2" d="M362,249.69l9.73,216.84a16.62,16.62,0,0,0,27.25,12L602,309.26a16.62,16.62,0,0,0-7-29L382.23,232.73A16.61,16.61,0,0,0,362,249.69Z"/><path class="cls-2" d="M269,512l89-14.72a9.41,9.41,0,0,0,7.86-9.66l-8.53-213.49c-.41-10.36-14.82-12.53-18.27-2.75L258.64,499.55A9.4,9.4,0,0,0,269,512Z"/><path class="cls-2" d="M410,215l241.63-40.87a9.41,9.41,0,0,1,10.44,12.41l-31,87.63a9.4,9.4,0,0,1-10.9,6L409.52,233.44C399.44,231.21,399.81,216.71,410,215Z"/><path class="cls-3" d="M829.6,382.49,643,285.15a9.39,9.39,0,0,1-4.51-11.44l31-87.74a9.38,9.38,0,0,1,16-2.92L841.13,368.14C847.74,376,838.72,387.25,829.6,382.49Z"/><path class="cls-4" d="M636.23,317l46.5,255.47a16.48,16.48,0,0,0,28.58,7.94L851.22,421.5a16.48,16.48,0,0,0-4.8-25.53L660,299.44A16.48,16.48,0,0,0,636.23,317Z"/><path class="cls-4" d="M699.29,614.48l58.87,69.44a9.38,9.38,0,0,0,16-2.93l81-228.61c3.45-9.74-9.07-17.09-15.89-9.33L699.4,602.22A9.37,9.37,0,0,0,699.29,614.48Z"/><path class="cls-3" d="M260.31,534.7,415,718.3c6.66,7.91,19.35.82,16.11-9L365.68,511a9.4,9.4,0,0,0-10.45-6.32L266,519.37A9.4,9.4,0,0,0,260.31,534.7Z"/><path class="cls-4" d="M375.86,525.65l66.07,201.09a16.73,16.73,0,0,0,24.55,9.09l183.22-111a16.72,16.72,0,0,0-3-30L397.43,504.7A16.72,16.72,0,0,0,375.86,525.65Z"/><path class="cls-4" d="M494.74,724.1,676.51,614.48a9.4,9.4,0,0,1,12,1.94l58.39,68.41a9.4,9.4,0,0,1-5.56,15.37L501.19,741.42C490.94,743.18,485.84,729.46,494.74,724.1Z"/><path class="cls-2" d="M176.36,808.7a8.4,8.4,0,0,1,16.79,0v27.18a31.22,31.22,0,0,1,19.39-6.72c18.17,0,32.52,13.74,32.52,35.57v36.64a8.5,8.5,0,0,1-8.4,8.55,8.4,8.4,0,0,1-8.39-8.55V864.12c0-12.82-7.79-19.39-17.56-19.39s-17.56,6.57-17.56,19.39v37.25a8.4,8.4,0,1,1-16.79,0Z"/><path class="cls-2" d="M261.23,869.62c0-22.6,17.26-40.46,40.46-40.46,23.36,0,40.46,17.86,40.46,40.46s-17.1,40.46-40.46,40.46C278.49,910.08,261.23,892.21,261.23,869.62Zm64,0c0-13.74-10.07-24.89-23.51-24.89s-23.51,11.15-23.51,24.89,10.08,24.88,23.51,24.88S325.2,883.21,325.2,869.62Z"/><path class="cls-2" d="M355.27,869.62c0-22.6,17.25-40.46,40.46-40.46s40.45,17.86,40.45,40.46-17.09,40.46-40.45,40.46S355.27,892.21,355.27,869.62Zm64,0c0-13.74-10.08-24.89-23.51-24.89s-23.52,11.15-23.52,24.89,10.08,24.88,23.52,24.88S419.24,883.21,419.24,869.62Z"/><path class="cls-2" d="M452.51,859.85c0-19.09,12.82-30.69,29-30.69,9.31,0,17.1,3.21,22.13,11.3,4.74-8.09,13-11.3,22-11.3,16.18,0,29,11.6,29,30.69v41.52a8.4,8.4,0,1,1-16.79,0V859.7c0-10.08-5.65-15-13-15-7.17,0-12.82,4.89-12.82,15v41.67a8.5,8.5,0,0,1-8.4,8.55,8.4,8.4,0,0,1-8.39-8.55V859.7c0-10.08-5.8-15-13-15s-13,4.89-13,15v41.67a8.4,8.4,0,1,1-16.79,0Z"/><path class="cls-2" d="M634.94,900.61a38,38,0,0,1-25.35,9.47c-22,0-38.62-17.87-38.62-40.46s16.64-40.46,38.62-40.46a37.33,37.33,0,0,1,25.35,9.62V808.7a8.4,8.4,0,0,1,16.79,0v92.67a8.4,8.4,0,1,1-16.79,0Zm0-31v-1.07c-.61-13.59-10.69-23.82-23.51-23.82-13.13,0-23.51,10.69-23.51,24.89s10.38,24.88,23.51,24.88S634.94,883.82,634.94,869.62Z"/><path class="cls-4" d="M683.39,901.07v.76a8.4,8.4,0,1,1-16.8,0V809.16a8.4,8.4,0,0,1,16.8,0v30.08a37.28,37.28,0,0,1,25.34-9.62c22,0,38.62,17.86,38.62,40.46s-16.64,40.46-38.62,40.46A37.94,37.94,0,0,1,683.39,901.07Zm47-31c0-14.2-10.38-24.89-23.51-24.89-12.83,0-23,10.23-23.51,23.82v1.07c0,14.2,10.38,24.88,23.51,24.88S730.41,884.28,730.41,870.08Z"/><path class="cls-4" d="M763.68,809.16a8.4,8.4,0,0,1,16.79,0v92.67a8.4,8.4,0,1,1-16.79,0Z"/><path class="cls-4" d="M800,838.17a8.4,8.4,0,0,1,16.8,0v37.25c0,12.83,7.78,19.54,17.55,19.54s17.56-6.71,17.56-19.54V838.17a8.28,8.28,0,0,1,8.4-8.4,8.37,8.37,0,0,1,8.39,8.4v36.64c0,21.83-15.11,35.73-34.35,35.73S800,896.64,800,874.81Z"/><path class="cls-4" d="M884.89,870.08c0-22.6,17.25-40.46,40.46-40.46,11.9,0,21.22,4.73,26.41,9.47a8.86,8.86,0,0,1,3,6.41,8.76,8.76,0,0,1-2.44,6.11l-23.51,27.93a7,7,0,0,1-5.8,2.75c-4.58,0-7.94-3.2-7.94-7.63a6.86,6.86,0,0,1,1.83-5l18.47-21.68c-2.59-1.83-6.72-2.75-10.07-2.75-13.13,0-23.52,11-23.52,24.89S912.06,895,925.35,895a21.9,21.9,0,0,0,16.18-6.87c2.44-2,4.12-3.81,7.33-3.81a7.9,7.9,0,0,1,8.24,8.09,8.82,8.82,0,0,1-2.44,5.49c-5.8,7-16.34,12.68-29.31,12.68C902.29,910.54,884.89,892.67,884.89,870.08Z"/></svg>
