<?xml version="1.0" encoding="utf-8" standalone="no"?>
<!DOCTYPE svg PUBLIC "-//W3C//DTD SVG 1.1//EN"
  "http://www.w3.org/Graphics/SVG/1.1/DTD/svg11.dtd">
<svg xmlns:xlink="http://www.w3.org/1999/xlink" width="303.613133pt" height="179.778711pt" viewBox="0 0 303.613133 179.778711" xmlns="http://www.w3.org/2000/svg" version="1.1">
 <metadata>
  <rdf:RDF xmlns:dc="http://purl.org/dc/elements/1.1/" xmlns:cc="http://creativecommons.org/ns#" xmlns:rdf="http://www.w3.org/1999/02/22-rdf-syntax-ns#">
   <cc:Work>
    <dc:type rdf:resource="http://purl.org/dc/dcmitype/StillImage"/>
    <dc:date>2023-03-16T09:19:32.822036</dc:date>
    <dc:format>image/svg+xml</dc:format>
    <dc:creator>
     <cc:Agent>
      <dc:title>Matplotlib v3.7.1, https://matplotlib.org/</dc:title>
     </cc:Agent>
    </dc:creator>
   </cc:Work>
  </rdf:RDF>
 </metadata>
 <defs>
  <style type="text/css">*{stroke-linejoin: round; stroke-linecap: butt}</style>
 </defs>
 <g id="figure_1">
  <g id="patch_1">
   <path d="M 0 179.778711 
L 303.613133 179.778711 
L 303.613133 0 
L 0 0 
z
" style="fill: #ffffff"/>
  </g>
  <g id="axes_1">
   <g id="patch_2">
    <path d="M 169.687261 137.136043 
C 167.964135 133.440786 165.375115 130.214934 162.140404 127.732853 
C 158.905692 125.250772 155.119671 123.584882 151.104349 122.876873 
C 147.089027 122.168863 142.961564 122.439392 139.073007 123.665449 
C 135.184451 124.891506 131.648262 127.037318 128.765201 129.920379 
" clip-path="url(#p8f3f37c31e)" style="fill: none; stroke: #000000; stroke-width: 1.5; stroke-linejoin: miter"/>
   </g>
   <g id="line2d_1">
    <path d="M 19.881818 21.036997 
L 146.7 147.855179 
L 273.518182 97.127906 
" clip-path="url(#p8f3f37c31e)" style="fill: none; stroke: #348abd; stroke-width: 3; stroke-linecap: square"/>
   </g>
   <g id="line2d_2">
    <defs>
     <path id="mad4dd2db6d" d="M 0 3.75 
C 0.994512 3.75 1.948425 3.354876 2.65165 2.65165 
C 3.354876 1.948425 3.75 0.994512 3.75 0 
C 3.75 -0.994512 3.354876 -1.948425 2.65165 -2.65165 
C 1.948425 -3.354876 0.994512 -3.75 0 -3.75 
C -0.994512 -3.75 -1.948425 -3.354876 -2.65165 -2.65165 
C -3.354876 -1.948425 -3.75 -0.994512 -3.75 0 
C -3.75 0.994512 -3.354876 1.948425 -2.65165 2.65165 
C -1.948425 3.354876 -0.994512 3.75 0 3.75 
z
" style="stroke: #e24a33"/>
    </defs>
    <g clip-path="url(#p8f3f37c31e)">
     <use xlink:href="#mad4dd2db6d" x="19.881818" y="21.036997" style="fill: #e24a33; stroke: #e24a33"/>
    </g>
   </g>
   <g id="line2d_3">
    <g clip-path="url(#p8f3f37c31e)">
     <use xlink:href="#mad4dd2db6d" x="146.7" y="147.855179" style="fill: #e24a33; stroke: #e24a33"/>
    </g>
   </g>
   <g id="line2d_4">
    <g clip-path="url(#p8f3f37c31e)">
     <use xlink:href="#mad4dd2db6d" x="273.518182" y="97.127906" style="fill: #e24a33; stroke: #e24a33"/>
    </g>
   </g>
   <g id="text_1">
    <!-- $\vec{r}_i$ -->
    <g transform="translate(26.222727 21.036997) scale(0.2 -0.2)">
     <defs>
      <path id="CMMI12-7e" d="M 3424 3840 
C 3347 3769 3110 3545 3110 3455 
C 3110 3391 3168 3334 3232 3334 
C 3290 3334 3315 3372 3360 3436 
C 3514 3628 3686 3750 3834 3833 
C 3898 3872 3942 3891 3942 3961 
C 3942 4019 3891 4051 3853 4083 
C 3674 4204 3629 4377 3610 4454 
C 3590 4505 3571 4582 3482 4582 
C 3443 4582 3366 4556 3366 4460 
C 3366 4403 3405 4249 3526 4076 
L 1376 4076 
C 1267 4076 1158 4076 1158 3955 
C 1158 3840 1274 3840 1376 3840 
L 3424 3840 
z
" transform="scale(0.015625)"/>
      <path id="CMMI12-72" d="M 2490 2633 
C 2291 2598 2189 2457 2189 2316 
C 2189 2163 2310 2111 2400 2111 
C 2579 2111 2726 2265 2726 2457 
C 2726 2651 2528 2816 2208 2816 
C 1952 2816 1658 2700 1389 2335 
C 1344 2660 1088 2816 832 2816 
C 582 2816 454 2642 378 2508 
C 269 2278 173 1892 173 1860 
C 173 1834 198 1801 243 1801 
C 294 1801 301 1808 339 1957 
C 435 2342 557 2687 813 2687 
C 966 2687 1011 2604 1011 2419 
C 1011 2278 947 2028 902 1827 
L 723 1130 
C 698 1007 627 716 595 600 
C 550 432 480 128 480 96 
C 480 6 550 -64 646 -64 
C 717 -64 838 -20 877 109 
C 896 160 1133 1136 1171 1285 
C 1203 1427 1242 1562 1274 1705 
C 1299 1795 1325 1898 1344 1982 
C 1363 2040 1536 2355 1696 2495 
C 1773 2566 1939 2687 2202 2687 
C 2304 2687 2406 2674 2490 2633 
z
" transform="scale(0.015625)"/>
      <path id="CMMI12-69" d="M 1811 913 
C 1811 945 1786 970 1747 970 
C 1690 970 1683 951 1651 842 
C 1485 261 1222 64 1011 64 
C 934 64 845 83 845 274 
C 845 447 922 638 992 830 
L 1440 2017 
C 1459 2068 1504 2183 1504 2305 
C 1504 2573 1312 2816 998 2816 
C 410 2816 173 1890 173 1838 
C 173 1813 198 1781 243 1781 
C 301 1781 307 1807 333 1896 
C 486 2432 730 2687 979 2687 
C 1037 2687 1146 2681 1146 2477 
C 1146 2311 1062 2100 1011 1960 
L 563 772 
C 525 670 486 568 486 453 
C 486 166 685 -64 992 -64 
C 1581 -64 1811 868 1811 913 
z
M 1760 4012 
C 1760 4108 1683 4224 1542 4224 
C 1395 4224 1229 4083 1229 3916 
C 1229 3756 1363 3705 1440 3705 
C 1613 3705 1760 3871 1760 4012 
z
" transform="scale(0.015625)"/>
     </defs>
     <use xlink:href="#CMMI12-7e" transform="scale(0.996264)"/>
     <use xlink:href="#CMMI12-72" transform="translate(3.294926 0) scale(0.996264)"/>
     <use xlink:href="#CMMI12-69" transform="translate(47.25582 -14.943915) scale(0.697382)"/>
    </g>
   </g>
   <g id="text_2">
    <!-- $\vec{r}_j$ -->
    <g transform="translate(146.7 166.877906) scale(0.2 -0.2)">
     <defs>
      <path id="CMMI12-6a" d="M 2240 2027 
C 2266 2129 2266 2218 2266 2243 
C 2266 2611 1990 2816 1702 2816 
C 1056 2816 710 1888 710 1843 
C 710 1811 736 1786 774 1786 
C 826 1786 832 1811 864 1875 
C 1120 2491 1440 2687 1683 2687 
C 1818 2687 1888 2617 1888 2395 
C 1888 2243 1869 2180 1843 2065 
L 1235 -327 
C 1114 -797 813 -1152 461 -1152 
C 435 -1152 301 -1152 179 -1089 
C 333 -1057 454 -937 454 -784 
C 454 -683 378 -581 237 -581 
C 70 -581 -83 -721 -83 -911 
C -83 -1172 198 -1280 461 -1280 
C 902 -1280 1485 -956 1645 -321 
L 2240 2027 
z
M 2502 4012 
C 2502 4172 2368 4224 2291 4224 
C 2118 4224 1971 4057 1971 3916 
C 1971 3820 2048 3705 2189 3705 
C 2336 3705 2502 3846 2502 4012 
z
" transform="scale(0.015625)"/>
     </defs>
     <use xlink:href="#CMMI12-7e" transform="scale(0.996264)"/>
     <use xlink:href="#CMMI12-72" transform="translate(3.294926 0) scale(0.996264)"/>
     <use xlink:href="#CMMI12-6a" transform="translate(47.25582 -14.943915) scale(0.697382)"/>
    </g>
   </g>
   <g id="text_3">
    <!-- $\vec{r}_k$ -->
    <g transform="translate(279.859091 97.127906) scale(0.2 -0.2)">
     <defs>
      <path id="CMMI12-6b" d="M 1798 4255 
C 1805 4281 1818 4319 1818 4351 
C 1818 4416 1754 4416 1741 4416 
C 1734 4416 1504 4396 1389 4383 
C 1280 4377 1184 4364 1069 4358 
C 915 4345 870 4339 870 4223 
C 870 4159 934 4159 998 4159 
C 1325 4159 1325 4103 1325 4040 
C 1325 4014 1325 4002 1293 3888 
L 378 250 
C 352 153 352 141 352 102 
C 352 -39 461 -64 525 -64 
C 704 -64 742 76 794 275 
L 1094 1476 
C 1555 1425 1830 1232 1830 924 
C 1830 885 1830 860 1811 763 
C 1786 667 1786 590 1786 558 
C 1786 185 2029 -64 2355 -64 
C 2650 -64 2803 205 2854 295 
C 2989 532 3072 892 3072 917 
C 3072 949 3046 975 3008 975 
C 2950 975 2944 949 2918 847 
C 2829 513 2694 64 2368 64 
C 2240 64 2157 128 2157 372 
C 2157 494 2182 635 2208 731 
C 2234 847 2234 853 2234 930 
C 2234 1309 1894 1521 1306 1598 
C 1536 1739 1766 1989 1856 2086 
C 2221 2495 2470 2687 2765 2687 
C 2912 2687 2950 2655 2995 2624 
C 2758 2598 2669 2431 2669 2303 
C 2669 2150 2790 2099 2880 2099 
C 3053 2099 3206 2246 3206 2451 
C 3206 2634 3059 2816 2771 2816 
C 2419 2816 2131 2579 1677 2067 
C 1613 1989 1376 1746 1139 1656 
L 1798 4255 
z
" transform="scale(0.015625)"/>
     </defs>
     <use xlink:href="#CMMI12-7e" transform="scale(0.996264)"/>
     <use xlink:href="#CMMI12-72" transform="translate(3.294926 0) scale(0.996264)"/>
     <use xlink:href="#CMMI12-6b" transform="translate(47.25582 -14.943915) scale(0.697382)"/>
    </g>
   </g>
   <g id="text_4">
    <!-- $\theta$ -->
    <g transform="translate(146.7 119.955179) scale(0.2 -0.2)">
     <defs>
      <path id="CMMI12-12" d="M 2835 3200 
C 2835 3849 2630 4480 2106 4480 
C 1210 4480 256 2615 256 1215 
C 256 922 320 -64 992 -64 
C 1862 -64 2835 1755 2835 3200 
z
M 896 2304 
C 992 2679 1126 3213 1382 3665 
C 1594 4046 1818 4351 2099 4351 
C 2310 4351 2451 4173 2451 3563 
C 2451 3334 2432 3016 2246 2304 
L 896 2304 
z
M 2202 2112 
C 2042 1488 1907 1088 1677 687 
C 1491 362 1267 64 998 64 
C 800 64 640 216 640 846 
C 640 1259 742 1692 845 2112 
L 2202 2112 
z
" transform="scale(0.015625)"/>
     </defs>
     <use xlink:href="#CMMI12-12" transform="scale(0.996264)"/>
    </g>
   </g>
  </g>
 </g>
 <defs>
  <clipPath id="p8f3f37c31e">
   <rect x="7.2" y="8.355179" width="279" height="152.181818"/>
  </clipPath>
 </defs>
</svg>
