<?xml version="1.0" encoding="utf-8" standalone="no"?>
<!DOCTYPE svg PUBLIC "-//W3C//DTD SVG 1.1//EN"
  "http://www.w3.org/Graphics/SVG/1.1/DTD/svg11.dtd">
<!-- Created with matplotlib (https://matplotlib.org/) -->
<svg height="371.7813pt" version="1.1" viewBox="0 0 605.6922 371.7813" width="605.6922pt" xmlns="http://www.w3.org/2000/svg" xmlns:xlink="http://www.w3.org/1999/xlink">
 <defs>
  <style type="text/css">
*{stroke-linecap:butt;stroke-linejoin:round;}
  </style>
 </defs>
 <g id="figure_1">
  <g id="patch_1">
   <path d="M 0 371.7813 
L 605.6922 371.7813 
L 605.6922 0 
L 0 0 
z
" style="fill:none;"/>
  </g>
  <g id="axes_1">
   <g id="patch_2">
    <path d="M 40.4922 343.1448 
L 598.4922 343.1448 
L 598.4922 7.2 
L 40.4922 7.2 
z
" style="fill:#e5e5e5;"/>
   </g>
   <g id="matplotlib.axis_1">
    <g id="xtick_1">
     <g id="line2d_1">
      <path clip-path="url(#p3a3cf73cca)" d="M 133.4922 343.1448 
L 133.4922 7.2 
" style="fill:none;stroke:#ffffff;stroke-linecap:square;stroke-width:0.8;"/>
     </g>
     <g id="line2d_2"/>
    </g>
    <g id="xtick_2">
     <g id="line2d_3">
      <path clip-path="url(#p3a3cf73cca)" d="M 226.4922 343.1448 
L 226.4922 7.2 
" style="fill:none;stroke:#ffffff;stroke-linecap:square;stroke-width:0.8;"/>
     </g>
     <g id="line2d_4"/>
    </g>
    <g id="xtick_3">
     <g id="line2d_5">
      <path clip-path="url(#p3a3cf73cca)" d="M 319.4922 343.1448 
L 319.4922 7.2 
" style="fill:none;stroke:#ffffff;stroke-linecap:square;stroke-width:0.8;"/>
     </g>
     <g id="line2d_6"/>
    </g>
    <g id="xtick_4">
     <g id="line2d_7">
      <path clip-path="url(#p3a3cf73cca)" d="M 412.4922 343.1448 
L 412.4922 7.2 
" style="fill:none;stroke:#ffffff;stroke-linecap:square;stroke-width:0.8;"/>
     </g>
     <g id="line2d_8"/>
    </g>
    <g id="xtick_5">
     <g id="line2d_9">
      <path clip-path="url(#p3a3cf73cca)" d="M 505.4922 343.1448 
L 505.4922 7.2 
" style="fill:none;stroke:#ffffff;stroke-linecap:square;stroke-width:0.8;"/>
     </g>
     <g id="line2d_10"/>
    </g>
    <g id="text_1">
     <!-- step -->
     <defs>
      <path d="M 44.28125 53.078125 
L 44.28125 44.578125 
Q 40.484375 46.53125 36.375 47.5 
Q 32.28125 48.484375 27.875 48.484375 
Q 21.1875 48.484375 17.84375 46.4375 
Q 14.5 44.390625 14.5 40.28125 
Q 14.5 37.15625 16.890625 35.375 
Q 19.28125 33.59375 26.515625 31.984375 
L 29.59375 31.296875 
Q 39.15625 29.25 43.1875 25.515625 
Q 47.21875 21.78125 47.21875 15.09375 
Q 47.21875 7.46875 41.1875 3.015625 
Q 35.15625 -1.421875 24.609375 -1.421875 
Q 20.21875 -1.421875 15.453125 -0.5625 
Q 10.6875 0.296875 5.421875 2 
L 5.421875 11.28125 
Q 10.40625 8.6875 15.234375 7.390625 
Q 20.0625 6.109375 24.8125 6.109375 
Q 31.15625 6.109375 34.5625 8.28125 
Q 37.984375 10.453125 37.984375 14.40625 
Q 37.984375 18.0625 35.515625 20.015625 
Q 33.0625 21.96875 24.703125 23.78125 
L 21.578125 24.515625 
Q 13.234375 26.265625 9.515625 29.90625 
Q 5.8125 33.546875 5.8125 39.890625 
Q 5.8125 47.609375 11.28125 51.796875 
Q 16.75 56 26.8125 56 
Q 31.78125 56 36.171875 55.265625 
Q 40.578125 54.546875 44.28125 53.078125 
z
" id="DejaVuSans-115"/>
      <path d="M 18.3125 70.21875 
L 18.3125 54.6875 
L 36.8125 54.6875 
L 36.8125 47.703125 
L 18.3125 47.703125 
L 18.3125 18.015625 
Q 18.3125 11.328125 20.140625 9.421875 
Q 21.96875 7.515625 27.59375 7.515625 
L 36.8125 7.515625 
L 36.8125 0 
L 27.59375 0 
Q 17.1875 0 13.234375 3.875 
Q 9.28125 7.765625 9.28125 18.015625 
L 9.28125 47.703125 
L 2.6875 47.703125 
L 2.6875 54.6875 
L 9.28125 54.6875 
L 9.28125 70.21875 
z
" id="DejaVuSans-116"/>
      <path d="M 56.203125 29.59375 
L 56.203125 25.203125 
L 14.890625 25.203125 
Q 15.484375 15.921875 20.484375 11.0625 
Q 25.484375 6.203125 34.421875 6.203125 
Q 39.59375 6.203125 44.453125 7.46875 
Q 49.3125 8.734375 54.109375 11.28125 
L 54.109375 2.78125 
Q 49.265625 0.734375 44.1875 -0.34375 
Q 39.109375 -1.421875 33.890625 -1.421875 
Q 20.796875 -1.421875 13.15625 6.1875 
Q 5.515625 13.8125 5.515625 26.8125 
Q 5.515625 40.234375 12.765625 48.109375 
Q 20.015625 56 32.328125 56 
Q 43.359375 56 49.78125 48.890625 
Q 56.203125 41.796875 56.203125 29.59375 
z
M 47.21875 32.234375 
Q 47.125 39.59375 43.09375 43.984375 
Q 39.0625 48.390625 32.421875 48.390625 
Q 24.90625 48.390625 20.390625 44.140625 
Q 15.875 39.890625 15.1875 32.171875 
z
" id="DejaVuSans-101"/>
      <path d="M 18.109375 8.203125 
L 18.109375 -20.796875 
L 9.078125 -20.796875 
L 9.078125 54.6875 
L 18.109375 54.6875 
L 18.109375 46.390625 
Q 20.953125 51.265625 25.265625 53.625 
Q 29.59375 56 35.59375 56 
Q 45.5625 56 51.78125 48.09375 
Q 58.015625 40.1875 58.015625 27.296875 
Q 58.015625 14.40625 51.78125 6.484375 
Q 45.5625 -1.421875 35.59375 -1.421875 
Q 29.59375 -1.421875 25.265625 0.953125 
Q 20.953125 3.328125 18.109375 8.203125 
z
M 48.6875 27.296875 
Q 48.6875 37.203125 44.609375 42.84375 
Q 40.53125 48.484375 33.40625 48.484375 
Q 26.265625 48.484375 22.1875 42.84375 
Q 18.109375 37.203125 18.109375 27.296875 
Q 18.109375 17.390625 22.1875 11.75 
Q 26.265625 6.109375 33.40625 6.109375 
Q 40.53125 6.109375 44.609375 11.75 
Q 48.6875 17.390625 48.6875 27.296875 
z
" id="DejaVuSans-112"/>
     </defs>
     <g style="fill:#555555;" transform="translate(303.9177 361.58655)scale(0.144 -0.144)">
      <use xlink:href="#DejaVuSans-115"/>
      <use x="52.099609" xlink:href="#DejaVuSans-116"/>
      <use x="91.308594" xlink:href="#DejaVuSans-101"/>
      <use x="152.832031" xlink:href="#DejaVuSans-112"/>
     </g>
    </g>
   </g>
   <g id="matplotlib.axis_2">
    <g id="ytick_1">
     <g id="line2d_11">
      <path clip-path="url(#p3a3cf73cca)" d="M 40.4922 275.95584 
L 598.4922 275.95584 
" style="fill:none;stroke:#ffffff;stroke-linecap:square;stroke-width:0.8;"/>
     </g>
     <g id="line2d_12"/>
     <g id="text_2">
      <!-- A -->
      <defs>
       <path d="M 34.1875 63.1875 
L 20.796875 26.90625 
L 47.609375 26.90625 
z
M 28.609375 72.90625 
L 39.796875 72.90625 
L 67.578125 0 
L 57.328125 0 
L 50.6875 18.703125 
L 17.828125 18.703125 
L 11.1875 0 
L 0.78125 0 
z
" id="DejaVuSans-65"/>
      </defs>
      <g style="fill:#555555;" transform="translate(25.1716 282.52089)scale(0.1728 -0.1728)">
       <use xlink:href="#DejaVuSans-65"/>
      </g>
     </g>
    </g>
    <g id="ytick_2">
     <g id="line2d_13">
      <path clip-path="url(#p3a3cf73cca)" d="M 40.4922 208.76688 
L 598.4922 208.76688 
" style="fill:none;stroke:#ffffff;stroke-linecap:square;stroke-width:0.8;"/>
     </g>
     <g id="line2d_14"/>
    </g>
    <g id="ytick_3">
     <g id="line2d_15">
      <path clip-path="url(#p3a3cf73cca)" d="M 40.4922 141.57792 
L 598.4922 141.57792 
" style="fill:none;stroke:#ffffff;stroke-linecap:square;stroke-width:0.8;"/>
     </g>
     <g id="line2d_16"/>
    </g>
    <g id="ytick_4">
     <g id="line2d_17">
      <path clip-path="url(#p3a3cf73cca)" d="M 40.4922 74.38896 
L 598.4922 74.38896 
" style="fill:none;stroke:#ffffff;stroke-linecap:square;stroke-width:0.8;"/>
     </g>
     <g id="line2d_18"/>
     <g id="text_3">
      <!-- B -->
      <defs>
       <path d="M 19.671875 34.8125 
L 19.671875 8.109375 
L 35.5 8.109375 
Q 43.453125 8.109375 47.28125 11.40625 
Q 51.125 14.703125 51.125 21.484375 
Q 51.125 28.328125 47.28125 31.5625 
Q 43.453125 34.8125 35.5 34.8125 
z
M 19.671875 64.796875 
L 19.671875 42.828125 
L 34.28125 42.828125 
Q 41.5 42.828125 45.03125 45.53125 
Q 48.578125 48.25 48.578125 53.8125 
Q 48.578125 59.328125 45.03125 62.0625 
Q 41.5 64.796875 34.28125 64.796875 
z
M 9.8125 72.90625 
L 35.015625 72.90625 
Q 46.296875 72.90625 52.390625 68.21875 
Q 58.5 63.53125 58.5 54.890625 
Q 58.5 48.1875 55.375 44.234375 
Q 52.25 40.28125 46.1875 39.3125 
Q 53.46875 37.75 57.5 32.78125 
Q 61.53125 27.828125 61.53125 20.40625 
Q 61.53125 10.640625 54.890625 5.3125 
Q 48.25 0 35.984375 0 
L 9.8125 0 
z
" id="DejaVuSans-66"/>
      </defs>
      <g style="fill:#555555;" transform="translate(25.1365 80.95401)scale(0.1728 -0.1728)">
       <use xlink:href="#DejaVuSans-66"/>
      </g>
     </g>
    </g>
    <g id="ytick_5">
     <g id="line2d_19">
      <path clip-path="url(#p3a3cf73cca)" d="M 40.4922 7.2 
L 598.4922 7.2 
" style="fill:none;stroke:#ffffff;stroke-linecap:square;stroke-width:0.8;"/>
     </g>
     <g id="line2d_20"/>
    </g>
    <g id="text_4">
     <!-- value -->
     <defs>
      <path d="M 2.984375 54.6875 
L 12.5 54.6875 
L 29.59375 8.796875 
L 46.6875 54.6875 
L 56.203125 54.6875 
L 35.6875 0 
L 23.484375 0 
z
" id="DejaVuSans-118"/>
      <path d="M 34.28125 27.484375 
Q 23.390625 27.484375 19.1875 25 
Q 14.984375 22.515625 14.984375 16.5 
Q 14.984375 11.71875 18.140625 8.90625 
Q 21.296875 6.109375 26.703125 6.109375 
Q 34.1875 6.109375 38.703125 11.40625 
Q 43.21875 16.703125 43.21875 25.484375 
L 43.21875 27.484375 
z
M 52.203125 31.203125 
L 52.203125 0 
L 43.21875 0 
L 43.21875 8.296875 
Q 40.140625 3.328125 35.546875 0.953125 
Q 30.953125 -1.421875 24.3125 -1.421875 
Q 15.921875 -1.421875 10.953125 3.296875 
Q 6 8.015625 6 15.921875 
Q 6 25.140625 12.171875 29.828125 
Q 18.359375 34.515625 30.609375 34.515625 
L 43.21875 34.515625 
L 43.21875 35.40625 
Q 43.21875 41.609375 39.140625 45 
Q 35.0625 48.390625 27.6875 48.390625 
Q 23 48.390625 18.546875 47.265625 
Q 14.109375 46.140625 10.015625 43.890625 
L 10.015625 52.203125 
Q 14.9375 54.109375 19.578125 55.046875 
Q 24.21875 56 28.609375 56 
Q 40.484375 56 46.34375 49.84375 
Q 52.203125 43.703125 52.203125 31.203125 
z
" id="DejaVuSans-97"/>
      <path d="M 9.421875 75.984375 
L 18.40625 75.984375 
L 18.40625 0 
L 9.421875 0 
z
" id="DejaVuSans-108"/>
      <path d="M 8.5 21.578125 
L 8.5 54.6875 
L 17.484375 54.6875 
L 17.484375 21.921875 
Q 17.484375 14.15625 20.5 10.265625 
Q 23.53125 6.390625 29.59375 6.390625 
Q 36.859375 6.390625 41.078125 11.03125 
Q 45.3125 15.671875 45.3125 23.6875 
L 45.3125 54.6875 
L 54.296875 54.6875 
L 54.296875 0 
L 45.3125 0 
L 45.3125 8.40625 
Q 42.046875 3.421875 37.71875 1 
Q 33.40625 -1.421875 27.6875 -1.421875 
Q 18.265625 -1.421875 13.375 4.4375 
Q 8.5 10.296875 8.5 21.578125 
z
M 31.109375 56 
z
" id="DejaVuSans-117"/>
     </defs>
     <g style="fill:#555555;" transform="translate(18.14175 194.83965)rotate(-90)scale(0.144 -0.144)">
      <use xlink:href="#DejaVuSans-118"/>
      <use x="59.179688" xlink:href="#DejaVuSans-97"/>
      <use x="120.458984" xlink:href="#DejaVuSans-108"/>
      <use x="148.242188" xlink:href="#DejaVuSans-117"/>
      <use x="211.621094" xlink:href="#DejaVuSans-101"/>
     </g>
    </g>
   </g>
   <g id="line2d_21">
    <path clip-path="url(#p3a3cf73cca)" d="M 40.4922 275.95584 
L 133.4922 275.95584 
L 217.1922 275.95584 
L 254.3922 74.38896 
L 300.8922 74.38896 
L 365.9922 275.95584 
L 449.6922 275.95584 
L 486.8922 74.38896 
L 533.3922 74.38896 
L 598.4922 275.95584 
L 606.6922 275.95584 
" style="fill:none;stroke:#e24a33;stroke-linecap:square;stroke-width:1.5;"/>
   </g>
   <g id="line2d_22">
    <path clip-path="url(#p3a3cf73cca)" d="M 40.4922 274.276116 
L 43.39845 268.78826 
L 46.3047 266.584454 
L 49.21095 266.030781 
L 52.1172 265.90986 
L 55.02345 265.88429 
L 57.9297 265.878918 
L 60.83595 265.877782 
L 63.7422 265.877496 
L 66.64845 265.87721 
L 69.5547 265.876074 
L 72.46095 265.870702 
L 75.3672 265.845132 
L 78.27345 265.724211 
L 81.1797 265.170538 
L 84.08595 262.966732 
L 86.9922 257.478876 
L 89.89845 262.966732 
L 92.8047 265.170538 
L 95.71095 265.724211 
L 98.6172 265.845132 
L 101.52345 265.870702 
L 104.4297 265.876074 
L 107.33595 265.87721 
L 110.2422 265.877496 
L 113.14845 265.877782 
L 116.0547 265.878918 
L 118.96095 265.88429 
L 121.8672 265.90986 
L 124.77345 266.030781 
L 127.6797 266.584454 
L 130.58595 268.78826 
L 133.4922 274.276116 
" style="fill:none;stroke:#000000;stroke-linecap:square;"/>
   </g>
   <g id="line2d_23">
    <path clip-path="url(#p3a3cf73cca)" d="M 133.4922 274.276116 
L 136.2822 268.941741 
L 139.0722 266.67412 
L 141.8622 266.062046 
L 144.6522 265.919028 
L 147.4422 265.886776 
L 150.2322 265.879546 
L 153.0222 265.877855 
L 155.8122 265.877137 
L 158.6022 265.875446 
L 161.3922 265.868216 
L 164.1822 265.835964 
L 166.9722 265.692946 
L 169.7622 265.080872 
L 172.5522 262.813251 
L 175.3422 257.478876 
L 178.1322 262.813251 
L 180.9222 265.080872 
L 183.7122 265.692946 
L 186.5022 265.835964 
L 189.2922 265.868216 
L 192.0822 265.875446 
L 194.8722 265.877137 
L 197.6622 265.877855 
L 200.4522 265.879546 
L 203.2422 265.886776 
L 206.0322 265.919028 
L 208.8222 266.062046 
L 211.6122 266.67412 
L 214.4022 268.941741 
L 217.1922 274.276116 
" style="fill:none;stroke:#000000;stroke-linecap:square;"/>
   </g>
   <g id="line2d_24">
    <path clip-path="url(#p3a3cf73cca)" d="M 217.1922 72.708473 
L 220.2922 66.975142 
L 223.3922 64.867851 
L 226.4922 64.310616 
L 229.5922 63.753381 
L 232.6922 61.64609 
L 235.7922 55.912759 
L 238.8922 61.64609 
L 241.9922 63.753381 
L 245.0922 64.310616 
L 248.1922 64.867851 
L 251.2922 66.975142 
L 254.3922 72.708473 
" style="fill:none;stroke:#000000;stroke-linecap:square;"/>
   </g>
   <g id="line2d_25">
    <path clip-path="url(#p3a3cf73cca)" d="M 254.3922 72.709173 
L 257.29845 67.221081 
L 260.2047 65.016149 
L 263.11095 64.457107 
L 266.0172 64.310616 
L 268.92345 64.164125 
L 271.8297 63.605083 
L 274.73595 61.400151 
L 277.6422 55.912059 
L 280.54845 61.400151 
L 283.4547 63.605083 
L 286.36095 64.164125 
L 289.2672 64.310616 
L 292.17345 64.457107 
L 295.0797 65.016149 
L 297.98595 67.221081 
L 300.8922 72.709173 
" style="fill:none;stroke:#000000;stroke-linecap:square;"/>
   </g>
   <g id="line2d_26">
    <path clip-path="url(#p3a3cf73cca)" d="M 300.8922 72.709236 
L 303.851291 67.153648 
L 306.810382 64.980072 
L 309.769473 64.451434 
L 312.728564 64.339265 
L 315.687655 64.315309 
L 318.646745 64.305923 
L 321.605836 64.281967 
L 324.564927 64.169798 
L 327.524018 63.64116 
L 330.483109 61.467584 
L 333.4422 55.911996 
L 336.401291 61.467584 
L 339.360382 63.64116 
L 342.319473 64.169798 
L 345.278564 64.281967 
L 348.237655 64.305923 
L 351.196745 64.315309 
L 354.155836 64.339265 
L 357.114927 64.451434 
L 360.074018 64.980072 
L 363.033109 67.153648 
L 365.9922 72.709236 
" style="fill:none;stroke:#000000;stroke-linecap:square;"/>
   </g>
   <g id="patch_3">
    <path d="M 40.4922 343.1448 
L 40.4922 7.2 
" style="fill:none;stroke:#ffffff;stroke-linecap:square;stroke-linejoin:miter;"/>
   </g>
   <g id="patch_4">
    <path d="M 598.4922 343.1448 
L 598.4922 7.2 
" style="fill:none;stroke:#ffffff;stroke-linecap:square;stroke-linejoin:miter;"/>
   </g>
   <g id="patch_5">
    <path d="M 40.4922 343.1448 
L 598.4922 343.1448 
" style="fill:none;stroke:#ffffff;stroke-linecap:square;stroke-linejoin:miter;"/>
   </g>
   <g id="patch_6">
    <path d="M 40.4922 7.2 
L 598.4922 7.2 
" style="fill:none;stroke:#ffffff;stroke-linecap:square;stroke-linejoin:miter;"/>
   </g>
   <g id="text_5">
    <!-- t_start -->
    <defs>
     <path d="M 29.984375 70.21875 
L 29.984375 54.6875 
L 50.390625 54.6875 
L 50.390625 47.703125 
L 29.984375 47.703125 
L 29.984375 18.015625 
Q 29.984375 11.96875 32.28125 9.5625 
Q 34.578125 7.171875 40.28125 7.171875 
L 50.390625 7.171875 
L 50.390625 0 
L 39.40625 0 
Q 29.296875 0 25.140625 4.046875 
Q 21 8.109375 21 18.015625 
L 21 47.703125 
L 6.390625 47.703125 
L 6.390625 54.6875 
L 21 54.6875 
L 21 70.21875 
z
" id="DejaVuSansMono-116"/>
     <path d="M 60.203125 -19.671875 
L 60.203125 -23.578125 
L 0 -23.578125 
L 0 -19.671875 
z
" id="DejaVuSansMono-95"/>
     <path d="M 47.515625 52.78125 
L 47.515625 44 
Q 43.65625 46.234375 39.75 47.359375 
Q 35.84375 48.484375 31.78125 48.484375 
Q 25.6875 48.484375 22.671875 46.5 
Q 19.671875 44.53125 19.671875 40.484375 
Q 19.671875 36.8125 21.921875 35 
Q 24.171875 33.203125 33.109375 31.5 
L 36.71875 30.8125 
Q 43.40625 29.546875 46.84375 25.734375 
Q 50.296875 21.921875 50.296875 15.828125 
Q 50.296875 7.71875 44.53125 3.140625 
Q 38.765625 -1.421875 28.515625 -1.421875 
Q 24.46875 -1.421875 20.015625 -0.5625 
Q 15.578125 0.296875 10.40625 2 
L 10.40625 11.28125 
Q 15.4375 8.6875 20.015625 7.390625 
Q 24.609375 6.109375 28.71875 6.109375 
Q 34.671875 6.109375 37.9375 8.515625 
Q 41.21875 10.9375 41.21875 15.28125 
Q 41.21875 21.53125 29.25 23.921875 
L 28.859375 24.03125 
L 25.484375 24.703125 
Q 17.71875 26.21875 14.15625 29.8125 
Q 10.59375 33.40625 10.59375 39.59375 
Q 10.59375 47.46875 15.90625 51.734375 
Q 21.234375 56 31.109375 56 
Q 35.5 56 39.546875 55.1875 
Q 43.609375 54.390625 47.515625 52.78125 
z
" id="DejaVuSansMono-115"/>
     <path d="M 34.28125 27.484375 
L 31.296875 27.484375 
Q 23.4375 27.484375 19.453125 24.71875 
Q 15.484375 21.96875 15.484375 16.5 
Q 15.484375 11.578125 18.453125 8.84375 
Q 21.4375 6.109375 26.703125 6.109375 
Q 34.125 6.109375 38.375 11.25 
Q 42.625 16.40625 42.671875 25.484375 
L 42.671875 27.484375 
z
M 51.703125 31.203125 
L 51.703125 0 
L 42.671875 0 
L 42.671875 8.109375 
Q 39.796875 3.21875 35.421875 0.890625 
Q 31.0625 -1.421875 24.8125 -1.421875 
Q 16.453125 -1.421875 11.46875 3.296875 
Q 6.5 8.015625 6.5 15.921875 
Q 6.5 25.046875 12.625 29.78125 
Q 18.75 34.515625 30.609375 34.515625 
L 42.671875 34.515625 
L 42.671875 35.9375 
Q 42.625 42.484375 39.34375 45.4375 
Q 36.078125 48.390625 28.90625 48.390625 
Q 24.3125 48.390625 19.625 47.0625 
Q 14.9375 45.75 10.5 43.21875 
L 10.5 52.203125 
Q 15.484375 54.109375 20.046875 55.046875 
Q 24.609375 56 28.90625 56 
Q 35.6875 56 40.5 54 
Q 45.3125 52 48.296875 48 
Q 50.140625 45.5625 50.921875 41.96875 
Q 51.703125 38.375 51.703125 31.203125 
z
" id="DejaVuSansMono-97"/>
     <path d="M 56.390625 43.40625 
Q 53.515625 45.65625 50.53125 46.671875 
Q 47.5625 47.703125 44 47.703125 
Q 35.59375 47.703125 31.140625 42.421875 
Q 26.703125 37.15625 26.703125 27.203125 
L 26.703125 0 
L 17.671875 0 
L 17.671875 54.6875 
L 26.703125 54.6875 
L 26.703125 44 
Q 28.953125 49.8125 33.609375 52.90625 
Q 38.28125 56 44.671875 56 
Q 48 56 50.875 55.171875 
Q 53.765625 54.34375 56.390625 52.59375 
z
" id="DejaVuSansMono-114"/>
    </defs>
    <g transform="translate(61.706887 249.610329)scale(0.12 -0.12)">
     <use xlink:href="#DejaVuSansMono-116"/>
     <use x="60.205078" xlink:href="#DejaVuSansMono-95"/>
     <use x="120.410156" xlink:href="#DejaVuSansMono-115"/>
     <use x="180.615234" xlink:href="#DejaVuSansMono-116"/>
     <use x="240.820312" xlink:href="#DejaVuSansMono-97"/>
     <use x="301.025391" xlink:href="#DejaVuSansMono-114"/>
     <use x="361.230469" xlink:href="#DejaVuSansMono-116"/>
    </g>
   </g>
   <g id="text_6">
    <!-- t_A -->
    <defs>
     <path d="M 30.078125 64.203125 
L 19.671875 26.90625 
L 40.484375 26.90625 
z
M 24.125 72.90625 
L 36.078125 72.90625 
L 58.40625 0 
L 48.1875 0 
L 42.828125 19 
L 17.28125 19 
L 12.015625 0 
L 1.8125 0 
z
" id="DejaVuSansMono-65"/>
    </defs>
    <g transform="translate(164.505638 249.610329)scale(0.12 -0.12)">
     <use xlink:href="#DejaVuSansMono-116"/>
     <use x="60.205078" xlink:href="#DejaVuSansMono-95"/>
     <use x="120.410156" xlink:href="#DejaVuSansMono-65"/>
    </g>
   </g>
   <g id="text_7">
    <!-- t_AB -->
    <defs>
     <path d="M 18.015625 34.8125 
L 18.015625 8.109375 
L 29.6875 8.109375 
Q 38.28125 8.109375 41.9375 11.109375 
Q 45.609375 14.109375 45.609375 21 
Q 45.609375 28.125 41.75 31.46875 
Q 37.890625 34.8125 29.6875 34.8125 
z
M 18.015625 64.796875 
L 18.015625 42.828125 
L 29.5 42.828125 
Q 36.625 42.828125 39.8125 45.5625 
Q 43.015625 48.296875 43.015625 54.390625 
Q 43.015625 59.90625 39.859375 62.34375 
Q 36.71875 64.796875 29.5 64.796875 
z
M 8.109375 72.90625 
L 29.6875 72.90625 
Q 40.875 72.90625 46.921875 68.0625 
Q 52.984375 63.234375 52.984375 54.390625 
Q 52.984375 47.703125 49.78125 43.84375 
Q 46.578125 39.984375 40.1875 39.015625 
Q 47.359375 37.9375 51.4375 32.875 
Q 55.515625 27.828125 55.515625 20.015625 
Q 55.515625 10.109375 49.015625 5.046875 
Q 42.53125 0 29.6875 0 
L 8.109375 0 
z
" id="DejaVuSansMono-66"/>
    </defs>
    <g transform="translate(221.34345 48.043449)scale(0.12 -0.12)">
     <use xlink:href="#DejaVuSansMono-116"/>
     <use x="60.205078" xlink:href="#DejaVuSansMono-95"/>
     <use x="120.410156" xlink:href="#DejaVuSansMono-65"/>
     <use x="180.615234" xlink:href="#DejaVuSansMono-66"/>
    </g>
   </g>
   <g id="text_8">
    <!-- t_B -->
    <g transform="translate(266.805637 48.043449)scale(0.12 -0.12)">
     <use xlink:href="#DejaVuSansMono-116"/>
     <use x="60.205078" xlink:href="#DejaVuSansMono-95"/>
     <use x="120.410156" xlink:href="#DejaVuSansMono-66"/>
    </g>
   </g>
   <g id="text_9">
    <!-- t_BA -->
    <g transform="translate(318.99345 48.043449)scale(0.12 -0.12)">
     <use xlink:href="#DejaVuSansMono-116"/>
     <use x="60.205078" xlink:href="#DejaVuSansMono-95"/>
     <use x="120.410156" xlink:href="#DejaVuSansMono-66"/>
     <use x="180.615234" xlink:href="#DejaVuSansMono-65"/>
    </g>
   </g>
  </g>
 </g>
 <defs>
  <clipPath id="p3a3cf73cca">
   <rect height="335.9448" width="558" x="40.4922" y="7.2"/>
  </clipPath>
 </defs>
</svg>
