<?xml version="1.0" encoding="utf-8" standalone="no"?>
<!DOCTYPE svg PUBLIC "-//W3C//DTD SVG 1.1//EN"
  "http://www.w3.org/Graphics/SVG/1.1/DTD/svg11.dtd">
<svg xmlns:xlink="http://www.w3.org/1999/xlink" width="438.2922pt" height="275.683277pt" viewBox="0 0 438.2922 275.683277" xmlns="http://www.w3.org/2000/svg" version="1.1">
 <metadata>
  <rdf:RDF xmlns:dc="http://purl.org/dc/elements/1.1/" xmlns:cc="http://creativecommons.org/ns#" xmlns:rdf="http://www.w3.org/1999/02/22-rdf-syntax-ns#">
   <cc:Work>
    <dc:type rdf:resource="http://purl.org/dc/dcmitype/StillImage"/>
    <dc:date>2023-03-16T09:35:18.218715</dc:date>
    <dc:format>image/svg+xml</dc:format>
    <dc:creator>
     <cc:Agent>
      <dc:title>Matplotlib v3.7.1, https://matplotlib.org/</dc:title>
     </cc:Agent>
    </dc:creator>
   </cc:Work>
  </rdf:RDF>
 </metadata>
 <defs>
  <style type="text/css">*{stroke-linejoin: round; stroke-linecap: butt}</style>
 </defs>
 <g id="figure_1">
  <g id="patch_1">
   <path d="M 0 275.683277 
L 438.2922 275.683277 
L 438.2922 0 
L 0 0 
z
" style="fill: #ffffff"/>
  </g>
  <g id="axes_1">
   <g id="patch_2">
    <path d="M 40.4922 247.046777 
L 431.0922 247.046777 
L 431.0922 7.2 
L 40.4922 7.2 
z
" style="fill: #e5e5e5"/>
   </g>
   <g id="matplotlib.axis_1">
    <g id="xtick_1">
     <g id="line2d_1">
      <path d="M 105.5922 247.046777 
L 105.5922 7.2 
" clip-path="url(#p0e05066eaa)" style="fill: none; stroke: #ffffff; stroke-width: 0.8; stroke-linecap: square"/>
     </g>
     <g id="line2d_2"/>
    </g>
    <g id="xtick_2">
     <g id="line2d_3">
      <path d="M 170.6922 247.046777 
L 170.6922 7.2 
" clip-path="url(#p0e05066eaa)" style="fill: none; stroke: #ffffff; stroke-width: 0.8; stroke-linecap: square"/>
     </g>
     <g id="line2d_4"/>
    </g>
    <g id="xtick_3">
     <g id="line2d_5">
      <path d="M 235.7922 247.046777 
L 235.7922 7.2 
" clip-path="url(#p0e05066eaa)" style="fill: none; stroke: #ffffff; stroke-width: 0.8; stroke-linecap: square"/>
     </g>
     <g id="line2d_6"/>
    </g>
    <g id="xtick_4">
     <g id="line2d_7">
      <path d="M 300.8922 247.046777 
L 300.8922 7.2 
" clip-path="url(#p0e05066eaa)" style="fill: none; stroke: #ffffff; stroke-width: 0.8; stroke-linecap: square"/>
     </g>
     <g id="line2d_8"/>
    </g>
    <g id="xtick_5">
     <g id="line2d_9">
      <path d="M 365.9922 247.046777 
L 365.9922 7.2 
" clip-path="url(#p0e05066eaa)" style="fill: none; stroke: #ffffff; stroke-width: 0.8; stroke-linecap: square"/>
     </g>
     <g id="line2d_10"/>
    </g>
    <g id="text_1">
     <!-- step -->
     <g style="fill: #555555" transform="translate(220.2177 265.488527) scale(0.144 -0.144)">
      <defs>
       <path id="DejaVuSans-73" d="M 2834 3397 
L 2834 2853 
Q 2591 2978 2328 3040 
Q 2066 3103 1784 3103 
Q 1356 3103 1142 2972 
Q 928 2841 928 2578 
Q 928 2378 1081 2264 
Q 1234 2150 1697 2047 
L 1894 2003 
Q 2506 1872 2764 1633 
Q 3022 1394 3022 966 
Q 3022 478 2636 193 
Q 2250 -91 1575 -91 
Q 1294 -91 989 -36 
Q 684 19 347 128 
L 347 722 
Q 666 556 975 473 
Q 1284 391 1588 391 
Q 1994 391 2212 530 
Q 2431 669 2431 922 
Q 2431 1156 2273 1281 
Q 2116 1406 1581 1522 
L 1381 1569 
Q 847 1681 609 1914 
Q 372 2147 372 2553 
Q 372 3047 722 3315 
Q 1072 3584 1716 3584 
Q 2034 3584 2315 3537 
Q 2597 3491 2834 3397 
z
" transform="scale(0.015625)"/>
       <path id="DejaVuSans-74" d="M 1172 4494 
L 1172 3500 
L 2356 3500 
L 2356 3053 
L 1172 3053 
L 1172 1153 
Q 1172 725 1289 603 
Q 1406 481 1766 481 
L 2356 481 
L 2356 0 
L 1766 0 
Q 1100 0 847 248 
Q 594 497 594 1153 
L 594 3053 
L 172 3053 
L 172 3500 
L 594 3500 
L 594 4494 
L 1172 4494 
z
" transform="scale(0.015625)"/>
       <path id="DejaVuSans-65" d="M 3597 1894 
L 3597 1613 
L 953 1613 
Q 991 1019 1311 708 
Q 1631 397 2203 397 
Q 2534 397 2845 478 
Q 3156 559 3463 722 
L 3463 178 
Q 3153 47 2828 -22 
Q 2503 -91 2169 -91 
Q 1331 -91 842 396 
Q 353 884 353 1716 
Q 353 2575 817 3079 
Q 1281 3584 2069 3584 
Q 2775 3584 3186 3129 
Q 3597 2675 3597 1894 
z
M 3022 2063 
Q 3016 2534 2758 2815 
Q 2500 3097 2075 3097 
Q 1594 3097 1305 2825 
Q 1016 2553 972 2059 
L 3022 2063 
z
" transform="scale(0.015625)"/>
       <path id="DejaVuSans-70" d="M 1159 525 
L 1159 -1331 
L 581 -1331 
L 581 3500 
L 1159 3500 
L 1159 2969 
Q 1341 3281 1617 3432 
Q 1894 3584 2278 3584 
Q 2916 3584 3314 3078 
Q 3713 2572 3713 1747 
Q 3713 922 3314 415 
Q 2916 -91 2278 -91 
Q 1894 -91 1617 61 
Q 1341 213 1159 525 
z
M 3116 1747 
Q 3116 2381 2855 2742 
Q 2594 3103 2138 3103 
Q 1681 3103 1420 2742 
Q 1159 2381 1159 1747 
Q 1159 1113 1420 752 
Q 1681 391 2138 391 
Q 2594 391 2855 752 
Q 3116 1113 3116 1747 
z
" transform="scale(0.015625)"/>
      </defs>
      <use xlink:href="#DejaVuSans-73"/>
      <use xlink:href="#DejaVuSans-74" x="52.099609"/>
      <use xlink:href="#DejaVuSans-65" x="91.308594"/>
      <use xlink:href="#DejaVuSans-70" x="152.832031"/>
     </g>
    </g>
   </g>
   <g id="matplotlib.axis_2">
    <g id="ytick_1">
     <g id="line2d_11">
      <path d="M 40.4922 199.077421 
L 431.0922 199.077421 
" clip-path="url(#p0e05066eaa)" style="fill: none; stroke: #ffffff; stroke-width: 0.8; stroke-linecap: square"/>
     </g>
     <g id="line2d_12"/>
     <g id="text_2">
      <!-- A -->
      <g style="fill: #555555" transform="translate(25.1716 205.642471) scale(0.1728 -0.1728)">
       <defs>
        <path id="DejaVuSans-41" d="M 2188 4044 
L 1331 1722 
L 3047 1722 
L 2188 4044 
z
M 1831 4666 
L 2547 4666 
L 4325 0 
L 3669 0 
L 3244 1197 
L 1141 1197 
L 716 0 
L 50 0 
L 1831 4666 
z
" transform="scale(0.015625)"/>
       </defs>
       <use xlink:href="#DejaVuSans-41"/>
      </g>
     </g>
    </g>
    <g id="ytick_2">
     <g id="line2d_13">
      <path d="M 40.4922 151.108066 
L 431.0922 151.108066 
" clip-path="url(#p0e05066eaa)" style="fill: none; stroke: #ffffff; stroke-width: 0.8; stroke-linecap: square"/>
     </g>
     <g id="line2d_14"/>
    </g>
    <g id="ytick_3">
     <g id="line2d_15">
      <path d="M 40.4922 103.138711 
L 431.0922 103.138711 
" clip-path="url(#p0e05066eaa)" style="fill: none; stroke: #ffffff; stroke-width: 0.8; stroke-linecap: square"/>
     </g>
     <g id="line2d_16"/>
    </g>
    <g id="ytick_4">
     <g id="line2d_17">
      <path d="M 40.4922 55.169355 
L 431.0922 55.169355 
" clip-path="url(#p0e05066eaa)" style="fill: none; stroke: #ffffff; stroke-width: 0.8; stroke-linecap: square"/>
     </g>
     <g id="line2d_18"/>
     <g id="text_3">
      <!-- B -->
      <g style="fill: #555555" transform="translate(25.1365 61.734405) scale(0.1728 -0.1728)">
       <defs>
        <path id="DejaVuSans-42" d="M 1259 2228 
L 1259 519 
L 2272 519 
Q 2781 519 3026 730 
Q 3272 941 3272 1375 
Q 3272 1813 3026 2020 
Q 2781 2228 2272 2228 
L 1259 2228 
z
M 1259 4147 
L 1259 2741 
L 2194 2741 
Q 2656 2741 2882 2914 
Q 3109 3088 3109 3444 
Q 3109 3797 2882 3972 
Q 2656 4147 2194 4147 
L 1259 4147 
z
M 628 4666 
L 2241 4666 
Q 2963 4666 3353 4366 
Q 3744 4066 3744 3513 
Q 3744 3084 3544 2831 
Q 3344 2578 2956 2516 
Q 3422 2416 3680 2098 
Q 3938 1781 3938 1306 
Q 3938 681 3513 340 
Q 3088 0 2303 0 
L 628 0 
L 628 4666 
z
" transform="scale(0.015625)"/>
       </defs>
       <use xlink:href="#DejaVuSans-42"/>
      </g>
     </g>
    </g>
    <g id="ytick_5">
     <g id="line2d_19">
      <path d="M 40.4922 7.2 
L 431.0922 7.2 
" clip-path="url(#p0e05066eaa)" style="fill: none; stroke: #ffffff; stroke-width: 0.8; stroke-linecap: square"/>
     </g>
     <g id="line2d_20"/>
    </g>
    <g id="text_4">
     <!-- value -->
     <g style="fill: #555555" transform="translate(18.14175 146.790638) rotate(-90) scale(0.144 -0.144)">
      <defs>
       <path id="DejaVuSans-76" d="M 191 3500 
L 800 3500 
L 1894 563 
L 2988 3500 
L 3597 3500 
L 2284 0 
L 1503 0 
L 191 3500 
z
" transform="scale(0.015625)"/>
       <path id="DejaVuSans-61" d="M 2194 1759 
Q 1497 1759 1228 1600 
Q 959 1441 959 1056 
Q 959 750 1161 570 
Q 1363 391 1709 391 
Q 2188 391 2477 730 
Q 2766 1069 2766 1631 
L 2766 1759 
L 2194 1759 
z
M 3341 1997 
L 3341 0 
L 2766 0 
L 2766 531 
Q 2569 213 2275 61 
Q 1981 -91 1556 -91 
Q 1019 -91 701 211 
Q 384 513 384 1019 
Q 384 1609 779 1909 
Q 1175 2209 1959 2209 
L 2766 2209 
L 2766 2266 
Q 2766 2663 2505 2880 
Q 2244 3097 1772 3097 
Q 1472 3097 1187 3025 
Q 903 2953 641 2809 
L 641 3341 
Q 956 3463 1253 3523 
Q 1550 3584 1831 3584 
Q 2591 3584 2966 3190 
Q 3341 2797 3341 1997 
z
" transform="scale(0.015625)"/>
       <path id="DejaVuSans-6c" d="M 603 4863 
L 1178 4863 
L 1178 0 
L 603 0 
L 603 4863 
z
" transform="scale(0.015625)"/>
       <path id="DejaVuSans-75" d="M 544 1381 
L 544 3500 
L 1119 3500 
L 1119 1403 
Q 1119 906 1312 657 
Q 1506 409 1894 409 
Q 2359 409 2629 706 
Q 2900 1003 2900 1516 
L 2900 3500 
L 3475 3500 
L 3475 0 
L 2900 0 
L 2900 538 
Q 2691 219 2414 64 
Q 2138 -91 1772 -91 
Q 1169 -91 856 284 
Q 544 659 544 1381 
z
M 1991 3584 
L 1991 3584 
z
" transform="scale(0.015625)"/>
      </defs>
      <use xlink:href="#DejaVuSans-76"/>
      <use xlink:href="#DejaVuSans-61" x="59.179688"/>
      <use xlink:href="#DejaVuSans-6c" x="120.458984"/>
      <use xlink:href="#DejaVuSans-75" x="148.242188"/>
      <use xlink:href="#DejaVuSans-65" x="211.621094"/>
     </g>
    </g>
   </g>
   <g id="line2d_21">
    <path d="M 40.4922 199.077421 
L 105.5922 199.077421 
L 164.1822 199.077421 
L 190.2222 55.169355 
L 222.7722 55.169355 
L 268.3422 199.077421 
L 326.9322 199.077421 
L 352.9722 55.169355 
L 385.5222 55.169355 
L 431.0922 199.077421 
L 439.2922 199.077421 
" clip-path="url(#p0e05066eaa)" style="fill: none; stroke: #e24a33; stroke-width: 1.5; stroke-linecap: square"/>
   </g>
   <g id="line2d_22">
    <path d="M 40.4922 197.878187 
L 42.526575 193.960149 
L 44.56095 192.386748 
L 46.595325 191.991456 
L 48.6297 191.905124 
L 50.664075 191.886868 
L 52.69845 191.883033 
L 54.732825 191.882222 
L 56.7672 191.882018 
L 58.801575 191.881814 
L 60.83595 191.881003 
L 62.870325 191.877168 
L 64.9047 191.858912 
L 66.939075 191.77258 
L 68.97345 191.377288 
L 71.007825 189.803887 
L 73.0422 185.885849 
L 75.076575 189.803887 
L 77.11095 191.377288 
L 79.145325 191.77258 
L 81.1797 191.858912 
L 83.214075 191.877168 
L 85.24845 191.881003 
L 87.282825 191.881814 
L 89.3172 191.882018 
L 91.351575 191.882222 
L 93.38595 191.883033 
L 95.420325 191.886868 
L 97.4547 191.905124 
L 99.489075 191.991456 
L 101.52345 192.386748 
L 103.557825 193.960149 
L 105.5922 197.878187 
" clip-path="url(#p0e05066eaa)" style="fill: none; stroke: #000000; stroke-linecap: square"/>
   </g>
   <g id="line2d_23">
    <path d="M 105.5922 197.878187 
L 107.5452 194.069727 
L 109.4982 192.450765 
L 111.4512 192.013777 
L 113.4042 191.91167 
L 115.3572 191.888643 
L 117.3102 191.883481 
L 119.2632 191.882275 
L 121.2162 191.881761 
L 123.1692 191.880555 
L 125.1222 191.875393 
L 127.0752 191.852366 
L 129.0282 191.750259 
L 130.9812 191.313271 
L 132.9342 189.694309 
L 134.8872 185.885849 
L 136.8402 189.694309 
L 138.7932 191.313271 
L 140.7462 191.750259 
L 142.6992 191.852366 
L 144.6522 191.875393 
L 146.6052 191.880555 
L 148.5582 191.881761 
L 150.5112 191.882275 
L 152.4642 191.883481 
L 154.4172 191.888643 
L 156.3702 191.91167 
L 158.3232 192.013777 
L 160.2762 192.450765 
L 162.2292 194.069727 
L 164.1822 197.878187 
" clip-path="url(#p0e05066eaa)" style="fill: none; stroke: #000000; stroke-linecap: square"/>
   </g>
   <g id="line2d_24">
    <path d="M 164.1822 53.969577 
L 166.3522 49.876282 
L 168.5222 48.371788 
L 170.6922 47.973952 
L 172.8622 47.576116 
L 175.0322 46.071622 
L 177.2022 41.978327 
L 179.3722 46.071622 
L 181.5422 47.576116 
L 183.7122 47.973952 
L 185.8822 48.371788 
L 188.0522 49.876282 
L 190.2222 53.969577 
" clip-path="url(#p0e05066eaa)" style="fill: none; stroke: #000000; stroke-linecap: square"/>
   </g>
   <g id="line2d_25">
    <path d="M 190.2222 53.970077 
L 192.256575 50.05187 
L 194.29095 48.477665 
L 196.325325 48.078539 
L 198.3597 47.973952 
L 200.394075 47.869365 
L 202.42845 47.470239 
L 204.462825 45.896034 
L 206.4972 41.977827 
L 208.531575 45.896034 
L 210.56595 47.470239 
L 212.600325 47.869365 
L 214.6347 47.973952 
L 216.669075 48.078539 
L 218.70345 48.477665 
L 220.737825 50.05187 
L 222.7722 53.970077 
" clip-path="url(#p0e05066eaa)" style="fill: none; stroke: #000000; stroke-linecap: square"/>
   </g>
   <g id="line2d_26">
    <path d="M 222.7722 53.970121 
L 224.843564 50.003726 
L 226.914927 48.451908 
L 228.986291 48.074488 
L 231.057655 47.994406 
L 233.129018 47.977303 
L 235.200382 47.970601 
L 237.271745 47.953498 
L 239.343109 47.873416 
L 241.414473 47.495996 
L 243.485836 45.944178 
L 245.5572 41.977783 
L 247.628564 45.944178 
L 249.699927 47.495996 
L 251.771291 47.873416 
L 253.842655 47.953498 
L 255.914018 47.970601 
L 257.985382 47.977303 
L 260.056745 47.994406 
L 262.128109 48.074488 
L 264.199473 48.451908 
L 266.270836 50.003726 
L 268.3422 53.970121 
" clip-path="url(#p0e05066eaa)" style="fill: none; stroke: #000000; stroke-linecap: square"/>
   </g>
   <g id="patch_3">
    <path d="M 40.4922 247.046777 
L 40.4922 7.2 
" style="fill: none; stroke: #ffffff; stroke-linejoin: miter; stroke-linecap: square"/>
   </g>
   <g id="patch_4">
    <path d="M 431.0922 247.046777 
L 431.0922 7.2 
" style="fill: none; stroke: #ffffff; stroke-linejoin: miter; stroke-linecap: square"/>
   </g>
   <g id="patch_5">
    <path d="M 40.4922 247.046777 
L 431.0922 247.046777 
" style="fill: none; stroke: #ffffff; stroke-linejoin: miter; stroke-linecap: square"/>
   </g>
   <g id="patch_6">
    <path d="M 40.4922 7.2 
L 431.0922 7.2 
" style="fill: none; stroke: #ffffff; stroke-linejoin: miter; stroke-linecap: square"/>
   </g>
   <g id="text_5">
    <!-- t_start -->
    <g transform="translate(47.756888 179.458772) scale(0.12 -0.12)">
     <defs>
      <path id="DejaVuSansMono-74" d="M 1919 4494 
L 1919 3500 
L 3225 3500 
L 3225 3053 
L 1919 3053 
L 1919 1153 
Q 1919 766 2066 612 
Q 2213 459 2578 459 
L 3225 459 
L 3225 0 
L 2522 0 
Q 1875 0 1609 259 
Q 1344 519 1344 1153 
L 1344 3053 
L 409 3053 
L 409 3500 
L 1344 3500 
L 1344 4494 
L 1919 4494 
z
" transform="scale(0.015625)"/>
      <path id="DejaVuSansMono-5f" d="M 3853 -1259 
L 3853 -1509 
L 0 -1509 
L 0 -1259 
L 3853 -1259 
z
" transform="scale(0.015625)"/>
      <path id="DejaVuSansMono-73" d="M 3041 3378 
L 3041 2816 
Q 2794 2959 2544 3031 
Q 2294 3103 2034 3103 
Q 1644 3103 1451 2976 
Q 1259 2850 1259 2591 
Q 1259 2356 1403 2240 
Q 1547 2125 2119 2016 
L 2350 1972 
Q 2778 1891 2998 1647 
Q 3219 1403 3219 1013 
Q 3219 494 2850 201 
Q 2481 -91 1825 -91 
Q 1566 -91 1281 -36 
Q 997 19 666 128 
L 666 722 
Q 988 556 1281 473 
Q 1575 391 1838 391 
Q 2219 391 2428 545 
Q 2638 700 2638 978 
Q 2638 1378 1872 1531 
L 1847 1538 
L 1631 1581 
Q 1134 1678 906 1908 
Q 678 2138 678 2534 
Q 678 3038 1018 3311 
Q 1359 3584 1991 3584 
Q 2272 3584 2531 3532 
Q 2791 3481 3041 3378 
z
" transform="scale(0.015625)"/>
      <path id="DejaVuSansMono-61" d="M 2194 1759 
L 2003 1759 
Q 1500 1759 1245 1582 
Q 991 1406 991 1056 
Q 991 741 1181 566 
Q 1372 391 1709 391 
Q 2184 391 2456 720 
Q 2728 1050 2731 1631 
L 2731 1759 
L 2194 1759 
z
M 3309 1997 
L 3309 0 
L 2731 0 
L 2731 519 
Q 2547 206 2267 57 
Q 1988 -91 1588 -91 
Q 1053 -91 734 211 
Q 416 513 416 1019 
Q 416 1603 808 1906 
Q 1200 2209 1959 2209 
L 2731 2209 
L 2731 2300 
Q 2728 2719 2518 2908 
Q 2309 3097 1850 3097 
Q 1556 3097 1256 3012 
Q 956 2928 672 2766 
L 672 3341 
Q 991 3463 1283 3523 
Q 1575 3584 1850 3584 
Q 2284 3584 2592 3456 
Q 2900 3328 3091 3072 
Q 3209 2916 3259 2686 
Q 3309 2456 3309 1997 
z
" transform="scale(0.015625)"/>
      <path id="DejaVuSansMono-72" d="M 3609 2778 
Q 3425 2922 3234 2987 
Q 3044 3053 2816 3053 
Q 2278 3053 1993 2715 
Q 1709 2378 1709 1741 
L 1709 0 
L 1131 0 
L 1131 3500 
L 1709 3500 
L 1709 2816 
Q 1853 3188 2151 3386 
Q 2450 3584 2859 3584 
Q 3072 3584 3256 3531 
Q 3441 3478 3609 3366 
L 3609 2778 
z
" transform="scale(0.015625)"/>
     </defs>
     <use xlink:href="#DejaVuSansMono-74"/>
     <use xlink:href="#DejaVuSansMono-5f" x="60.205078"/>
     <use xlink:href="#DejaVuSansMono-73" x="120.410156"/>
     <use xlink:href="#DejaVuSansMono-74" x="180.615234"/>
     <use xlink:href="#DejaVuSansMono-61" x="240.820312"/>
     <use xlink:href="#DejaVuSansMono-72" x="301.025391"/>
     <use xlink:href="#DejaVuSansMono-74" x="361.230469"/>
    </g>
   </g>
   <g id="text_6">
    <!-- t_A -->
    <g transform="translate(124.050638 179.458772) scale(0.12 -0.12)">
     <defs>
      <path id="DejaVuSansMono-41" d="M 1925 4109 
L 1259 1722 
L 2591 1722 
L 1925 4109 
z
M 1544 4666 
L 2309 4666 
L 3738 0 
L 3084 0 
L 2741 1216 
L 1106 1216 
L 769 0 
L 116 0 
L 1544 4666 
z
" transform="scale(0.015625)"/>
     </defs>
     <use xlink:href="#DejaVuSansMono-74"/>
     <use xlink:href="#DejaVuSansMono-5f" x="60.205078"/>
     <use xlink:href="#DejaVuSansMono-41" x="120.410156"/>
    </g>
   </g>
   <g id="text_7">
    <!-- t_AB -->
    <g transform="translate(162.75345 35.550706) scale(0.12 -0.12)">
     <defs>
      <path id="DejaVuSansMono-42" d="M 1153 2228 
L 1153 519 
L 1900 519 
Q 2450 519 2684 711 
Q 2919 903 2919 1344 
Q 2919 1800 2672 2014 
Q 2425 2228 1900 2228 
L 1153 2228 
z
M 1153 4147 
L 1153 2741 
L 1888 2741 
Q 2344 2741 2548 2916 
Q 2753 3091 2753 3481 
Q 2753 3834 2551 3990 
Q 2350 4147 1888 4147 
L 1153 4147 
z
M 519 4666 
L 1900 4666 
Q 2616 4666 3003 4356 
Q 3391 4047 3391 3481 
Q 3391 3053 3186 2806 
Q 2981 2559 2572 2497 
Q 3031 2428 3292 2104 
Q 3553 1781 3553 1281 
Q 3553 647 3137 323 
Q 2722 0 1900 0 
L 519 0 
L 519 4666 
z
" transform="scale(0.015625)"/>
     </defs>
     <use xlink:href="#DejaVuSansMono-74"/>
     <use xlink:href="#DejaVuSansMono-5f" x="60.205078"/>
     <use xlink:href="#DejaVuSansMono-41" x="120.410156"/>
     <use xlink:href="#DejaVuSansMono-42" x="180.615234"/>
    </g>
   </g>
   <g id="text_8">
    <!-- t_B -->
    <g transform="translate(195.660638 35.550706) scale(0.12 -0.12)">
     <use xlink:href="#DejaVuSansMono-74"/>
     <use xlink:href="#DejaVuSansMono-5f" x="60.205078"/>
     <use xlink:href="#DejaVuSansMono-42" x="120.410156"/>
    </g>
   </g>
   <g id="text_9">
    <!-- t_BA -->
    <g transform="translate(231.10845 35.550706) scale(0.12 -0.12)">
     <use xlink:href="#DejaVuSansMono-74"/>
     <use xlink:href="#DejaVuSansMono-5f" x="60.205078"/>
     <use xlink:href="#DejaVuSansMono-42" x="120.410156"/>
     <use xlink:href="#DejaVuSansMono-41" x="180.615234"/>
    </g>
   </g>
  </g>
 </g>
 <defs>
  <clipPath id="p0e05066eaa">
   <rect x="40.4922" y="7.2" width="390.6" height="239.846777"/>
  </clipPath>
 </defs>
</svg>
